STARTFONT 2.3
FONT -FontForge-STIX Two Math-Book-R-Normal--36-360-72-72-P-246-ISO10646-1
SIZE 36 72 72  2
FONTBOUNDINGBOX 146 155 -35 -60
COMMENT "Generated by fontforge, http://fontforge.sourceforge.net"
COMMENT "Copyright 2001-2021 The STIX Fonts Project Authors (https://github.com/stipub/stixfonts)"
STARTPROPERTIES 41
FOUNDRY "FontForge"
FAMILY_NAME "STIX Two Math"
WEIGHT_NAME "Book"
SLANT "R"
SETWIDTH_NAME "Normal"
ADD_STYLE_NAME ""
PIXEL_SIZE 36
POINT_SIZE 360
RESOLUTION_X 72
RESOLUTION_Y 72
SPACING "P"
AVERAGE_WIDTH 246
CHARSET_REGISTRY "ISO10646"
CHARSET_ENCODING "1"
FONTNAME_REGISTRY ""
CHARSET_COLLECTIONS "ASCII ISOLatin1Encoding ISO8859-2 ISO8859-5 ISO8859-7 ISO8859-9 ISO8859-4 ISO10646-1"
BITS_PER_PIXEL 2
FONT_NAME "STIXTwoMath-Regular"
FACE_NAME "STIX Two Math Regular"
COPYRIGHT "Copyright 2001-2021 The STIX Fonts Project Authors (https://github.com/stipub/stixfonts)"
FONT_VERSION "2.12 b168a"
FONT_ASCENT 27
FONT_DESCENT 9
UNDERLINE_POSITION -4
UNDERLINE_THICKNESS 2
X_HEIGHT 17
CAP_HEIGHT 23
RAW_ASCENT 762
RAW_DESCENT 238
NORM_SPACE 8
RELATIVE_WEIGHT 40
RELATIVE_SETWIDTH 50
SUPERSCRIPT_X 0
SUPERSCRIPT_Y 18
SUPERSCRIPT_SIZE 18
SUBSCRIPT_X 0
SUBSCRIPT_Y 9
SUBSCRIPT_SIZE 18
FIGURE_WIDTH 18
AVG_LOWERCASE_WIDTH 178
AVG_UPPERCASE_WIDTH 244
ENDPROPERTIES
CHARS 6611
STARTCHAR space
ENCODING 32
SWIDTH 235 0
DWIDTH 8 0
BBX 1 1 0 0
BITMAP
00
ENDCHAR
STARTCHAR exclam
ENCODING 33
SWIDTH 283 0
DWIDTH 10 0
BBX 4 24 3 0
BITMAP
7D
BF
BF
BF
BF
BE
BE
7E
7E
7D
7D
3D
3D
3C
3C
2C
28
28
00
00
7D
FF
FF
7D
ENDCHAR
STARTCHAR quotedbl
ENCODING 34
SWIDTH 334 0
DWIDTH 12 0
BBX 9 8 2 19
BITMAP
FC3F40
FC3F00
F83F00
F43E00
F03D00
F02D00
E02C00
D02800
ENDCHAR
STARTCHAR numbersign
ENCODING 35
SWIDTH 702 0
DWIDTH 25 0
BBX 22 25 2 -1
BITMAP
0003D001E000
0003C002E000
0007C002D000
00078002D000
000B8003C000
000B4003C000
000B40078000
000F00078000
3FFFFFFFFFD0
2ABFAAAFEA90
001E000F4000
002E000F0000
002D000F0000
003D001E0000
003C001E0000
007C002E0000
FFFFFFFFFF40
55B9557D5500
00B4003C0000
00B4007C0000
00F000780000
00F000780000
01E000B40000
01E000B40000
02D000F40000
ENDCHAR
STARTCHAR dollar
ENCODING 36
SWIDTH 495 0
DWIDTH 18 0
BBX 16 30 1 -3
BITMAP
00014000
00038000
00038000
00AFF900
0BFBAFE0
2F4382F8
7E0380B8
7D038078
BD038038
7E038028
7F438000
2FE38000
0FFF8000
02FFE000
00BFFD00
000BFF80
0003FFE0
00039FF8
000382FD
500380FD
A00380BE
A00380BD
B40380BD
B80380FC
BE0382F4
7FE7AFD0
06BFF900
00038000
00038000
00038000
ENDCHAR
STARTCHAR percent
ENCODING 37
SWIDTH 692 0
DWIDTH 25 0
BBX 23 24 1 0
BITMAP
006F80001E00
03E0B901BD00
0F803BF9B800
1F002401F000
3E002403D000
3D0024078000
7D00340F0000
7C00702E0000
7D00A07C0000
3D01C0B40000
2F5B41E00000
0BFD03C00000
00500B80BF40
00000F07D090
00002D1F4070
0000782E0034
0000F03D0034
0001D07C0034
0003C0BC0070
000B40BC00A0
001E007C00D0
002C007D0280
0074002F6F00
00E0000BE400
ENDCHAR
STARTCHAR ampersand
ENCODING 38
SWIDTH 736 0
DWIDTH 27 0
BBX 25 24 1 0
BITMAP
0001BF80000000
000FE6F4000000
002F007C000000
003E003C000000
007E003C000000
003E007C000000
003F40B4000000
002F87D0000000
000FFE02FFFD00
000BF4017FE400
001FF4001F8000
00B9FC001F0000
07D0FD002D0000
1F807F00380000
3F002F80740000
7E001FD0E00000
BD000BF2C00000
FD0003FB400000
FD0001FE000000
BE0000BF400000
BF4001FFE00240
3FE55B8BF95B00
1FFFFE02FFFC00
02BF90006FE000
ENDCHAR
STARTCHAR quotesingle
ENCODING 39
SWIDTH 187 0
DWIDTH 7 0
BBX 3 7 2 19
BITMAP
FC
F8
F8
F4
F0
E0
D0
ENDCHAR
STARTCHAR parenleft
ENCODING 40
SWIDTH 357 0
DWIDTH 13 0
BBX 11 33 1 -7
BITMAP
000078
0002D0
000F40
002D00
00B800
01F000
03D000
0BC000
0F8000
1F4000
2F0000
3F0000
3E0000
7E0000
7E0000
7E0000
7E0000
7E0000
7E0000
3E0000
3F0000
2F0000
2F4000
1F4000
0B8000
07D000
02E000
00F400
007C00
001E00
000780
0001E0
000028
ENDCHAR
STARTCHAR parenright
ENCODING 41
SWIDTH 357 0
DWIDTH 13 0
BBX 11 34 1 -7
BITMAP
400000
B40000
2E0000
078000
01E000
00B800
003D00
002F00
000F40
000BC0
000BD0
0007E0
0003E0
0003F0
0003F0
0002F0
0002F4
0002F4
0002F0
0002F0
0003F0
0003E0
0003E0
0007D0
000BC0
000F80
001F40
002E00
007C00
00F400
02D000
0B4000
7D0000
A00000
ENDCHAR
STARTCHAR asterisk
ENCODING 42
SWIDTH 410 0
DWIDTH 15 0
BBX 13 14 1 12
BITMAP
002D0000
003E0000
002E0000
782D0B00
BE1C7F40
2F9DFE00
01BE4000
01BF4000
2F9DFD00
BE1C3F40
782D0B00
002E0000
003E0000
002D0000
ENDCHAR
STARTCHAR plus
ENCODING 43
SWIDTH 720 0
DWIDTH 26 0
BBX 22 23 2 -2
BITMAP
00001A000000
00001F400000
00001F400000
00001F400000
00001F400000
00001F400000
00001F400000
00001F400000
00001F400000
00001F400000
BFFFFFFFFFE0
BFFFFFFFFFE0
BFFFFFFFFFE0
00001F400000
00001F400000
00001F400000
00001F400000
00001F400000
00001F400000
00001F400000
00001F400000
00001F400000
00001F400000
ENDCHAR
STARTCHAR comma
ENCODING 44
SWIDTH 245 0
DWIDTH 9 0
BBX 5 9 2 -5
BITMAP
7E00
FF80
FFC0
7FC0
03C0
0780
0B00
2D00
A000
ENDCHAR
STARTCHAR hyphen
ENCODING 45
SWIDTH 315 0
DWIDTH 11 0
BBX 9 2 1 8
BITMAP
7FFF80
7FFF80
ENDCHAR
STARTCHAR period
ENCODING 46
SWIDTH 245 0
DWIDTH 9 0
BBX 5 5 2 0
BITMAP
2E00
BF40
BF80
BF40
2E00
ENDCHAR
STARTCHAR slash
ENCODING 47
SWIDTH 386 0
DWIDTH 14 0
BBX 12 30 1 -3
BITMAP
000019
00002D
00003C
000078
0000B4
0000F0
0001E0
0002D0
0003C0
000780
000B40
000F00
000E00
001E00
002D00
003C00
007800
00B400
00F000
01E000
02D000
03C000
078000
0B4000
0F0000
1E0000
2D0000
3C0000
780000
B40000
ENDCHAR
STARTCHAR zero
ENCODING 48
SWIDTH 495 0
DWIDTH 18 0
BBX 16 24 1 0
BITMAP
006FF800
01F96F40
07D00BD0
0F8003F0
2F4002F4
3F0001FC
7F0000FC
BE0000FD
BE0000BE
FD0000BE
FD0000BE
FD0000BE
FD0000BE
FD0000BE
FE0000BE
BE0000BE
BE0000FD
7F0000FC
3F0001F8
2F4002F4
0FC003E0
07E00BD0
01F9BF40
002FE400
ENDCHAR
STARTCHAR one
ENCODING 49
SWIDTH 495 0
DWIDTH 18 0
BBX 14 24 2 0
BITMAP
00054000
01BF8000
7FFF8000
542F8000
001F8000
001F8000
001F8000
001F8000
001F8000
001F8000
001F8000
001F8000
001F8000
001F8000
001F8000
001F8000
001F8000
001F8000
001F8000
001F8000
002F8000
003FD000
16FFFA40
3FFFFFD0
ENDCHAR
STARTCHAR two
ENCODING 50
SWIDTH 495 0
DWIDTH 18 0
BBX 16 24 1 0
BITMAP
006FE400
02FFFF40
0B957FD0
2D000FF0
340007F4
600003F4
000002F8
000003F4
000003F4
000003F0
000007D0
00000F80
00002F00
00007D00
0000F400
0002E000
000B8000
002E0000
00B8000A
02E0000D
0780002D
1FFFFFFC
7FFFFFFC
BFFFFFF8
ENDCHAR
STARTCHAR three
ENCODING 51
SWIDTH 495 0
DWIDTH 18 0
BBX 14 24 2 0
BITMAP
00BFA000
07FFFD00
1E56FF00
38007F40
A0002F80
00002F80
00002F40
00003F00
00007C00
0001E000
001BD000
01FFF900
005BFF40
00007FC0
00001FE0
00000BF0
000007F0
000003F0
000003E0
000007D0
10000B80
BD001E00
BFE6B400
2FFA4000
ENDCHAR
STARTCHAR four
ENCODING 52
SWIDTH 495 0
DWIDTH 18 0
BBX 18 24 0 0
BITMAP
000003E000
00000BE000
00001FE000
00003FE000
0000BBE000
0001DBE000
00078BE000
000E0BE000
002D0BE000
00740BE000
00E00BE000
02C00BE000
07400BE000
1E000BE000
3C000BE000
7FFFFFFFD0
BFFFFFFFD0
BFFFFFFFD0
00000BE000
00000BE000
00000BE000
00000BE000
00000BE000
00000BE000
ENDCHAR
STARTCHAR five
ENCODING 53
SWIDTH 495 0
DWIDTH 18 0
BBX 14 24 2 0
BITMAP
01FFFFD0
02FFFFD0
02FFFFC0
03400000
07400000
07000000
0B000000
0E000000
0FFE8000
1FFFF800
1FFFFF00
0006FF80
00002FD0
00000BE0
000003F0
000003F0
000002F0
000002E0
000003E0
000003C0
24000B40
BE406E00
BFFFF400
2FFA4000
ENDCHAR
STARTCHAR six
ENCODING 54
SWIDTH 495 0
DWIDTH 18 0
BBX 16 24 1 0
BITMAP
00001AF0
0001FE40
001FE000
007F4000
01FC0000
03F40000
0BE00000
0FC00000
1F86F900
2F6FFFC0
3FF55FF0
7F8003F8
7F4001FC
7F0000FD
7F0000FD
7F0000BD
7F0000BD
3F0000BD
2F4000FC
1F8000FC
0FC001F4
07E003E0
01FE6F80
002BF900
ENDCHAR
STARTCHAR seven
ENCODING 55
SWIDTH 495 0
DWIDTH 18 0
BBX 16 24 1 0
BITMAP
1FFFFFFE
1FFFFFFE
2FFFFFFD
3900007C
740000B4
600000F0
000001E0
000003D0
000007C0
00000B80
00000F40
00002F00
00003E00
00007C00
0000B800
0000F400
0002F000
0003E000
0007D000
000BC000
000F8000
002F4000
003E0000
007D0000
ENDCHAR
STARTCHAR eight
ENCODING 56
SWIDTH 495 0
DWIDTH 18 0
BBX 15 24 1 0
BITMAP
006FF800
02F9AF40
0F8007D0
1F4002F0
2F0002F4
3F0001F4
2F4002F0
2FC003E0
0FF00780
07FD1E00
01FFF400
007FF800
006BFE00
01E0BFD0
0B801FF0
1F0007F8
3E0002FC
7E0000FC
7E0000FC
7E0000FC
3F0001F8
1F8003F0
07F96FD0
006FF900
ENDCHAR
STARTCHAR nine
ENCODING 57
SWIDTH 495 0
DWIDTH 18 0
BBX 16 24 1 0
BITMAP
006FE400
07F9BF40
0FC00BC0
2F4003E0
3F0002F4
7E0001F8
BE0001F8
BE0000FC
BE0000FC
7E0000FD
7F0001FD
3F8002FC
1FE41BFC
07FFF9FC
01BFD2F8
000002F4
000007F0
00000BE0
00001FC0
00007F40
0001FE00
000BF400
01BF8000
0FA40000
ENDCHAR
STARTCHAR colon
ENCODING 58
SWIDTH 245 0
DWIDTH 9 0
BBX 5 18 2 0
BITMAP
2E00
BF40
BF80
BF40
2E00
0000
0000
0000
0000
0000
0000
0000
0000
2E00
BF40
BF80
BF40
2E00
ENDCHAR
STARTCHAR semicolon
ENCODING 59
SWIDTH 245 0
DWIDTH 9 0
BBX 5 23 2 -5
BITMAP
2E00
BF40
BF80
BF40
2E00
0000
0000
0000
0000
0000
0000
0000
0000
0000
7E00
FF80
FFC0
7FC0
03C0
0780
0B00
2D00
A000
ENDCHAR
STARTCHAR less
ENCODING 60
SWIDTH 720 0
DWIDTH 26 0
BBX 22 21 2 -1
BITMAP
000000000050
0000000006D0
000000006FD0
00000006FE40
0000007FE400
000007FE4000
00007FE40000
0007FE400000
007FE0000000
07FE00000000
7FF000000000
1BFD00000000
01BFD0000000
001BFD000000
0001BFD00000
00000BFD0000
000000BFD000
0000000BFD00
00000000BFD0
000000000BD0
000000000050
ENDCHAR
STARTCHAR equal
ENCODING 61
SWIDTH 720 0
DWIDTH 26 0
BBX 22 10 2 5
BITMAP
BFFFFFFFFFE0
BFFFFFFFFFE0
BFFFFFFFFFE0
000000000000
000000000000
000000000000
000000000000
BFFFFFFFFFE0
BFFFFFFFFFE0
BFFFFFFFFFE0
ENDCHAR
STARTCHAR greater
ENCODING 62
SWIDTH 720 0
DWIDTH 26 0
BBX 22 21 2 -1
BITMAP
500000000000
790000000000
7F9000000000
1BF900000000
01BF90000000
001BFD000000
0001BFD00000
00001BFD0000
000001BFD000
0000001BFD00
00000001FFD0
00000007FE40
0000007FE400
000007FE4000
00007FE00000
0007FE000000
007FE0000000
07FE00000000
7FE000000000
7D0000000000
500000000000
ENDCHAR
STARTCHAR question
ENCODING 63
SWIDTH 411 0
DWIDTH 15 0
BBX 13 24 1 0
BITMAP
02BF9000
1F9AFD00
7C007F00
B8002F80
FC001F80
FD001F80
BD001F80
14002F40
00003F00
00007D00
0000BC00
0001F400
0003D000
000B8000
000F0000
001D0000
001C0000
00180000
00000000
00000000
002E0000
00BF4000
00BF4000
002E0000
ENDCHAR
STARTCHAR at
ENCODING 64
SWIDTH 905 0
DWIDTH 33 0
BBX 29 30 2 -7
BITMAP
00001AFFF9400000
0001BE956BE40000
000BD00000BE0000
007E0000001F8000
01F400000003E000
03D000000001F400
0B8002FF4780BC00
1F401F96DF803D00
2E003E007F802E00
3D00BC002F801F00
7C01F8001F800F40
BC02F4001F800F40
BC02F0001F400F40
B803F0001F400F40
F803F0001F400F40
B803F0001F400F40
BC03F0001F401F00
BC03F0001F401F00
7C02F4002F403D00
7D02FC00BF407C00
3E00FE46CFD6F400
2F007FFF4BFFD000
0F800BF802FE4000
07D0000000000000
02F4000000000000
00BD000000000000
002F900000060000
0006FE5015BD0000
00006BFFFE900000
0000001540000000
ENDCHAR
STARTCHAR A
ENCODING 65
SWIDTH 718 0
DWIDTH 26 0
BBX 26 24 0 0
BITMAP
000001E0000000
000002F0000000
000003F8000000
00000BFC000000
00000FFD000000
00001EBF000000
00002C7F400000
0000783F800000
0000B42FD00000
0000F00FE00000
0001E00BF00000
0003C007F80000
00078003FC0000
000B4002FD0000
001F0001FF0000
002FFFFFFF4000
003D5555BF8000
007800003FC000
00F400001FE000
01E000000FF000
02D000000BF800
07D000000BFD00
6FF500006FFF90
FFFE0000FFFFE0
ENDCHAR
STARTCHAR B
ENCODING 66
SWIDTH 618 0
DWIDTH 22 0
BBX 20 24 1 0
BITMAP
BFFFFFE900
17FE9AFF80
01FC001FE0
01FC0007F4
01FC0003F8
01FC0002F8
01FC0002F8
01FC0003F8
01FC0007F0
01FC000BD0
01FD017E00
01FFFFF400
01FD55BF90
01FC000BF4
01FC0002FC
01FC0001FE
01FC0000FF
01FC0000BF
01FC0000FF
01FC0000FE
01FC0002FD
02FC0007F8
17FE56BFD0
BFFFFFF900
ENDCHAR
STARTCHAR C
ENCODING 67
SWIDTH 670 0
DWIDTH 24 0
BBX 22 24 1 0
BITMAP
00006FFE42C0
000BFA5BFFC0
007F8000BFC0
01FD00002FC0
03F400000BC0
0BE0000007C0
0FD0000003C0
2FC0000002C0
2FC0000001C0
3F8000000000
3F8000000000
7F8000000000
7F8000000000
3F8000000000
3F8000000000
2FC000000000
2FD000000000
1FE000000000
0BF400000000
07FC000001D0
01FF40000B80
007FF955BE00
001BFFFFF400
0001AFFA4000
ENDCHAR
STARTCHAR D
ENCODING 68
SWIDTH 730 0
DWIDTH 26 0
BBX 24 24 1 0
BITMAP
BFFFFFE90000
17FEAAFFE000
01FC001BFD00
01FC0000BF80
01FC00002FD0
01FC00000FF0
01FC000007F8
01FC000003FC
01FC000002FC
01FC000002FD
01FC000001FD
01FC000001FD
01FC000001FD
01FC000001FD
01FC000001FD
01FC000002FC
01FC000002FC
01FC000003F4
01FC00000BF0
01FC00001FD0
01FC00007F80
01FC0006FD00
17FE56BFE000
BFFFFFE90000
ENDCHAR
STARTCHAR E
ENCODING 69
SWIDTH 626 0
DWIDTH 23 0
BBX 21 24 1 0
BITMAP
BFFFFFFFFD00
07FEAAABFD00
01FC00007D00
01FC00001D00
01FC00000D00
01FC00000900
01FC00000000
01FC00028000
01FC00028000
01FC00038000
01FD005B8000
01FFFFFF8000
01FD555F8000
01FC00038000
01FC00028000
01FC00028000
01FC00000000
01FC00000140
01FC00000340
01FC00000740
01FC00000F00
01FC00006F00
07FEAAABFE00
BFFFFFFFFE00
ENDCHAR
STARTCHAR F
ENCODING 70
SWIDTH 588 0
DWIDTH 21 0
BBX 20 24 1 0
BITMAP
BFFFFFFFFD
17FEAAABFE
01FC00002E
01FC00000E
01FC00000A
01FC000006
01FC000000
01FC000340
01FC000340
01FC000740
01FD005F40
01FFFFFF40
01FD556F40
01FC000740
01FC000340
01FC000340
01FC000000
01FC000000
01FC000000
01FC000000
01FC000000
02FD000000
5BFF940000
BFFFFC0000
ENDCHAR
STARTCHAR G
ENCODING 71
SWIDTH 720 0
DWIDTH 26 0
BBX 24 24 1 0
BITMAP
00006FFE41C0
000BFA5BFFC0
007F8000BFC0
01FD00001FC0
03F400000BC0
0BF0000007C0
0FD0000003C0
2FC0000002C0
2FC0000001C0
3F8000000000
3F8000000000
7F8000000000
7F800007FFFE
3F8000017FF5
3F8000001FD0
3FC000000FD0
2FC000000FD0
1FD000000FD0
0FF000000FD0
07F800000FD0
02FD00000FD0
00BF80007FD0
001BFA5BFE00
0001AFFE9000
ENDCHAR
STARTCHAR H
ENCODING 72
SWIDTH 777 0
DWIDTH 28 0
BBX 27 24 1 0
BITMAP
7FFFFC00FFFFF4
1BFFE4006FFF90
00FF000003FC00
00BE000002F800
00BE000002F800
00BE000002F800
00BE000002F800
00BE000002F800
00BE000002F800
00BE000002F800
00BE000002F800
00BFFFFFFFF800
00BE555556F800
00BE000002F800
00BE000002F800
00BE000002F800
00BE000002F800
00BE000002F800
00BE000002F800
00BE000002F800
00BE000002F800
00FF000003FC00
1BFFA4006BFF90
7FFFFC00FFFFF4
ENDCHAR
STARTCHAR I
ENCODING 73
SWIDTH 357 0
DWIDTH 13 0
BBX 11 24 1 0
BITMAP
BFFFF8
5BFF94
02FD00
01FC00
01FC00
01FC00
01FC00
01FC00
01FC00
01FC00
01FC00
01FC00
01FC00
01FC00
01FC00
01FC00
01FC00
01FC00
01FC00
01FC00
01FC00
02FD00
5BFF94
BFFFF8
ENDCHAR
STARTCHAR J
ENCODING 74
SWIDTH 396 0
DWIDTH 14 0
BBX 14 24 0 0
BITMAP
02FFFFE0
016FFE50
0007F800
0007F400
0003F400
0003F400
0003F400
0003F400
0003F400
0003F400
0003F400
0003F400
0003F400
0003F400
0003F400
0003F400
0003F400
0003F400
0003F400
6403F000
FD07F000
FF07E000
BF9F8000
1BF90000
ENDCHAR
STARTCHAR K
ENCODING 75
SWIDTH 702 0
DWIDTH 25 0
BBX 24 24 1 0
BITMAP
BFFFF81FFFF8
5BFF9407FFA4
02FD0001FD00
01FC0002F400
01FC0007D000
01FC001F0000
01FC00780000
01FC01E00000
01FC07800000
01FC1E000000
01FC78000000
01FEF4000000
01FEFD000000
01FCBF400000
01FC2FE00000
01FC0BF80000
01FC02FE0000
01FC00BF8000
01FC002FE000
01FC000BF800
01FC0002FE00
02FD0001FF80
5BFF9406FFF9
BFFFF81FFFFF
ENDCHAR
STARTCHAR L
ENCODING 76
SWIDTH 585 0
DWIDTH 21 0
BBX 20 24 1 0
BITMAP
7FFFF80000
5BFF940000
02FE000000
01FD000000
01FC000000
01FC000000
01FC000000
01FC000000
01FC000000
01FC000000
01FC000000
01FC000000
01FC000000
01FC000000
01FC000000
01FC000000
01FC000000
01FC000009
01FC00001D
01FC00002C
01FC00003C
01FD0000F8
06FF956BF8
7FFFFFFFF4
ENDCHAR
STARTCHAR M
ENCODING 77
SWIDTH 895 0
DWIDTH 32 0
BBX 30 24 1 0
BITMAP
FFFE00000007FFE0
6FFF0000000FFE50
03FF4000001FF800
02FFC000002FF800
02EFD000003EF400
02DFE00000BAF400
02DBF00000F2F400
02D7F80001E2F400
02D2FC0002D2F400
02D1FD0007C2F400
02D0FE000B42F400
02D0BF400F02F400
02D03F801E02F400
02D02FC03C02F400
02D01FD07802F400
02D00BF0B402F400
02D007F4F002F400
02D003FAD002F400
02D002FFC002F400
02D000FF8002F400
02D000BF4002F800
03E0007E0003F800
6FF9402D006FFE50
FFFF401C00FFFFE0
ENDCHAR
STARTCHAR N
ENCODING 78
SWIDTH 742 0
DWIDTH 27 0
BBX 25 24 1 0
BITMAP
FFF80000BFFF80
6FFD00006FFE40
07FF000003F000
02FF800002E000
02FFE00001E000
02DFF40001D000
02D7FC0001D000
02D2FE0001D000
02D0FF8001D000
02D03FD001D000
02D01FF401D000
02D00BFC01D000
02D002FE01D000
02D000FF41D000
02D0007FD1D000
02D0001FF1D000
02D0000BF9D000
02D00002FED000
02D00000FFD000
02D000007FD000
02D000001FD000
03E000000BD000
6FF9400003D000
FFFF400000D000
ENDCHAR
STARTCHAR O
ENCODING 79
SWIDTH 738 0
DWIDTH 27 0
BBX 23 24 2 0
BITMAP
0001BFE90000
002FE5AFD000
01FD0006F800
07F40000BF00
0FD000003F80
2FC000001FD0
3F4000000FE0
7F0000000BF0
BF00000007F4
FE00000007F8
FE00000003F8
FE00000003F8
FE00000003F8
FE00000003F8
FE00000007F8
BF00000007F4
BF4000000BF0
7F4000000BE0
2FC000001FD0
0FD000002F80
07F400007E00
01FD0002F800
002FE5AFD000
0001BFE90000
ENDCHAR
STARTCHAR P
ENCODING 80
SWIDTH 569 0
DWIDTH 20 0
BBX 19 24 1 0
BITMAP
7FFFFFA400
07FEAAFF40
01FC002FD0
01FC000BF0
01FC0007F4
01FC0003F8
01FC0003F8
01FC0003F4
01FC0007F4
01FC000BE0
01FC001FC0
01FD01BF40
01FFFFF400
01FD550000
01FC000000
01FC000000
01FC000000
01FC000000
01FC000000
01FC000000
01FD000000
02FD000000
5BFF940000
7FFFF80000
ENDCHAR
STARTCHAR Q
ENCODING 81
SWIDTH 737 0
DWIDTH 27 0
BBX 25 31 1 -7
BITMAP
00006FFA400000
000BF96BF40000
007F4001BE0000
01FD00002FC000
03F400000FE000
0BE0000007F400
0FD0000003F800
2FC0000002FC00
2FC0000001FD00
3F80000001FE00
3F80000000FE00
7F80000000FE00
7F80000000FE00
3F80000000FE00
3F80000001FD00
3FC0000001FD00
2FC0000002FC00
1FD0000003F800
0FF0000007F000
07F400000BE000
02FD00002F8000
00BF4000BE0000
001FF96BF40000
0001BFFF400000
000001FF000000
000000BFC00000
0000007FE00000
0000001FFD0000
00000007FFA500
000000006FFF80
00000000005540
ENDCHAR
STARTCHAR R
ENCODING 82
SWIDTH 659 0
DWIDTH 24 0
BBX 23 24 1 0
BITMAP
7FFFFFA40000
07FE9AFF8000
01FC002FE000
01FC000BF400
01FC0003F800
01FC0003F800
01FC0003F800
01FC0007F400
01FC000BF000
01FC002FD000
01FD16FE0000
01FFFFD00000
01FD6FD00000
01FC0BF40000
01FC03FC0000
01FC01FE0000
01FC00BF4000
01FC003FC000
01FC001FE000
01FC000BF400
01FD0007FC00
02FD0002FF00
5BFF9400FFE4
7FFFF8007FFC
ENDCHAR
STARTCHAR S
ENCODING 83
SWIDTH 504 0
DWIDTH 18 0
BBX 16 24 1 0
BITMAP
006FF928
07F96FF8
1F8002F8
2F0000F8
3F000078
7F000038
3F400028
3FD00018
2FF40000
0BFE4000
02FFE000
00BFFE00
000BFFD0
0001FFF4
00002FFC
000007FE
A00001FE
A00000BF
B00000BF
B80000BE
BD0000BD
BF4001F8
7FE96FE0
716FFA40
ENDCHAR
STARTCHAR T
ENCODING 84
SWIDTH 603 0
DWIDTH 22 0
BBX 21 24 0 0
BITMAP
3FFFFFFFFFC0
3F957F95AFC0
7C002F8007C0
74002F8002C0
70002F8001C0
70002F8001C0
10002F800040
00002F800000
00002F800000
00002F800000
00002F800000
00002F800000
00002F800000
00002F800000
00002F800000
00002F800000
00002F800000
00002F800000
00002F800000
00003F800000
00003F800000
00007FC00000
0006FFE90000
001FFFFF0000
ENDCHAR
STARTCHAR U
ENCODING 85
SWIDTH 752 0
DWIDTH 27 0
BBX 27 24 0 0
BITMAP
7FFFFC001FFFF4
1BFFE40006FF94
00FF000000BD00
00FE0000007D00
00BE0000003C00
00BE0000003C00
00BE0000003C00
00BE0000003C00
00BE0000003C00
00BE0000003C00
00BE0000003C00
00BE0000003C00
00BE0000003C00
00BE0000003C00
00BE0000003C00
00BE0000003C00
00BE0000003C00
00BF0000007800
007F400000B400
003F800000F000
002FE00002E000
000BFE556F8000
0002FFFFFE0000
00001BFF900000
ENDCHAR
STARTCHAR V
ENCODING 86
SWIDTH 680 0
DWIDTH 24 0
BBX 26 24 -1 0
BITMAP
7FFFF4000BFFE0
2FFF900006FF90
02FF0000007D00
01FF000000B800
00BF400000F400
007F800001E000
002FC00002D000
001FD00003C000
000FF000078000
000BF4000F0000
0003F8001E0000
0002FC002D0000
0001FE003C0000
0000BF00740000
00007F40B00000
00003F81E00000
00002FC2D00000
00000FE3800000
00000BF7400000
000007FF000000
000002FE000000
000001FC000000
000000F8000000
000000B4000000
ENDCHAR
STARTCHAR W
ENCODING 87
SWIDTH 944 0
DWIDTH 34 0
BBX 35 24 -1 0
BITMAP
7FFFF07FFFF401FFFC
2FFF901BFF9001BFE4
02FE0002FE00001F80
01FE0000FE00000F00
00BF0000BF00001E00
007F40007F40002D00
003F80003F80003C00
002FD0002FC0007800
000FE0002FE000B400
000BF0003FF000F000
0007F400B7F401E000
0003F800E3F802D000
0002FD01D1FC03C000
0000FE02C0FD078000
0000BF0380BF0B4000
00007F47407F4F0000
00003F8F003F9E0000
00002FDE002FED0000
00000FFC000FFC0000
00000BF8000BF40000
000007F40007F00000
000003F00003E00000
000002E00002D00000
000000D00001C00000
ENDCHAR
STARTCHAR X
ENCODING 88
SWIDTH 664 0
DWIDTH 24 0
BBX 24 24 0 0
BITMAP
7FFFF802FFFD
1BFFD401BFE5
01FF40002F40
007F80003D00
002FD000B800
000FF001E000
0007F803C000
0002FC0B4000
0000FE2D0000
00007FB80000
00002FE00000
00000FE00000
00000FF80000
00002EFD0000
0000B4FF0000
0001E07F8000
0007C02FD000
000F400FF000
002E0007F800
00780002FD00
01F00001FF00
07E00000FF80
6FF90006FFF9
FFFF001FFFFE
ENDCHAR
STARTCHAR Y
ENCODING 89
SWIDTH 647 0
DWIDTH 23 0
BBX 25 24 -1 0
BITMAP
7FFFF8007FFF40
1BFF94001BFA40
02FF000003E000
00BF8000078000
003FC0000F0000
001FE0002D0000
000BF400380000
0003FC00B00000
0001FE01E00000
0000BF43C00000
00003F8B400000
00001FEE000000
00000BFC000000
000007F8000000
000003F4000000
000003F4000000
000003F4000000
000003F4000000
000003F4000000
000003F4000000
000003F8000000
000007F8000000
00016FFE900000
0002FFFFF00000
ENDCHAR
STARTCHAR Z
ENCODING 90
SWIDTH 594 0
DWIDTH 21 0
BBX 20 24 1 0
BITMAP
1FFFFFFFFC
2FE9555BF8
2F00000FF0
2C00002FD0
2800007F80
240000FF00
000002FD00
000007F800
00000FF000
00002FD000
00007F8000
0000FF0000
0002FD0000
0007F80000
001FF00000
002FD00000
007F800000
01FF000009
02FD00000D
0BF800001C
1FF000003C
3FD00000B8
BFD5555BF8
FFFFFFFFF4
ENDCHAR
STARTCHAR bracketleft
ENCODING 91
SWIDTH 349 0
DWIDTH 13 0
BBX 8 35 3 -8
BITMAP
BFFE
BD55
BC00
BC00
BC00
BC00
BC00
BC00
BC00
BC00
BC00
BC00
BC00
BC00
BC00
BC00
BC00
BC00
BC00
BC00
BC00
BC00
BC00
BC00
BC00
BC00
BC00
BC00
BC00
BC00
BC00
BC00
BD00
BFFE
5555
ENDCHAR
STARTCHAR backslash
ENCODING 92
SWIDTH 385 0
DWIDTH 14 0
BBX 12 30 1 -3
BITMAP
600000
780000
3C0000
2D0000
1E0000
0E0000
0F0000
0B4000
078000
03C000
02D000
01E000
00F000
00B400
007800
003C00
002D00
001E00
000F00
000B40
000780
0003C0
0002D0
0001E0
0000F0
0000B0
000074
000078
00003C
00002D
ENDCHAR
STARTCHAR bracketright
ENCODING 93
SWIDTH 349 0
DWIDTH 13 0
BBX 9 35 1 -8
BITMAP
7FFF40
156F40
002F40
002F40
002F40
002F40
002F40
002F40
002F40
002F40
002F40
002F40
002F40
002F40
002F40
002F40
002F40
002F40
002F40
002F40
002F40
002F40
002F40
002F40
002F40
002F40
002F40
002F40
002F40
002F40
002F40
002F40
002F40
7FFF40
155500
ENDCHAR
STARTCHAR asciicircum
ENCODING 94
SWIDTH 480 0
DWIDTH 17 0
BBX 15 14 1 11
BITMAP
00064000
000FC000
001FE000
002DF000
0078B800
00B43C00
01F02E00
02D00F00
07C00B80
0B4007C0
1F0002D0
2D0001F0
3C0000B4
B800007C
ENDCHAR
STARTCHAR underscore
ENCODING 95
SWIDTH 512 0
DWIDTH 18 0
BBX 19 2 0 -5
BITMAP
FFFFFFFFF4
5555555550
ENDCHAR
STARTCHAR grave
ENCODING 96
SWIDTH 222 0
DWIDTH 8 0
BBX 6 6 1 19
BITMAP
6900
BF00
2F40
0B80
02D0
00E0
ENDCHAR
STARTCHAR a
ENCODING 97
SWIDTH 480 0
DWIDTH 17 0
BBX 16 18 1 0
BITMAP
00AFE400
07E6FE00
1F403F40
2F401F80
3F001F80
1E001F80
00000F80
00006F80
001BEF80
01F90F80
0BD00F80
2F400F80
7E000F80
BE000F80
BE001FC0
7F006FD6
2FE68BFD
0BF907E4
ENDCHAR
STARTCHAR b
ENCODING 98
SWIDTH 522 0
DWIDTH 19 0
BBX 18 27 0 0
BITMAP
0050000000
6FF0000000
6BF0000000
07F0000000
03F0000000
03F0000000
03F0000000
03F0000000
03F0000000
03F02FE000
03F1FFFD00
03F7FFFF00
03FE00BF80
03F4003FC0
03F0001FD0
03F0000FD0
03F0000FD0
03F0000BE0
03F0000BD0
03F0000BD0
03F0000FC0
03F0000F80
03F0001F40
03F0003E00
03F400BC00
03FF9BE000
006BFE4000
ENDCHAR
STARTCHAR c
ENCODING 99
SWIDTH 446 0
DWIDTH 16 0
BBX 14 18 1 0
BITMAP
002BF900
02F9BF80
0B801FD0
1F000BE0
3E0007E0
7D000140
7C000000
BC000000
BC000000
BC000000
BD000000
BE000000
7F000010
3F800070
2FE406D0
0FFFFF80
02FFFE00
006FE400
ENDCHAR
STARTCHAR d
ENCODING 100
SWIDTH 539 0
DWIDTH 19 0
BBX 18 27 1 0
BITMAP
0000001400
000006FC00
00002FFC00
000001FC00
000000FC00
000000FC00
000000FC00
000000FC00
000000FC00
001BF9FC00
01FA6FFC00
07D003FC00
0F4001FC00
2F0000FC00
3E0000FC00
7D0000FC00
BD0000FC00
BD0000FC00
BD0000FC00
BD0000FC00
BE0000FC00
7F0000FC00
7F8000FC00
2FE007FC00
1FFFFEFD00
07FFF4FFE0
01BF80F940
ENDCHAR
STARTCHAR e
ENCODING 101
SWIDTH 464 0
DWIDTH 17 0
BBX 15 18 1 0
BITMAP
006FE400
02E9BE00
0B801F80
1F000BD0
3E0007F0
7D0003F0
BD0003F4
BFFFFFF4
BD555550
BD000000
BD000000
BE000000
7F400000
3FC00034
1FF401E0
0BFFFFC0
02FFFF40
006FE800
ENDCHAR
STARTCHAR f
ENCODING 102
SWIDTH 307 0
DWIDTH 11 0
BBX 14 26 0 0
BITMAP
0006FF40
002E6FD0
007C0BE0
00B80280
00F80000
01F80000
01F80000
01F80000
3FFFFC00
16F95400
01F80000
01F80000
01F80000
01F80000
01F80000
01F80000
01F80000
01F80000
01F80000
01F80000
01F80000
01F80000
01F80000
02FC0000
1BFF9000
7FFFF400
ENDCHAR
STARTCHAR g
ENCODING 103
SWIDTH 484 0
DWIDTH 17 0
BBX 17 27 0 -9
BITMAP
001BFFFFC0
01FD6FE540
03F007F000
0BD003F800
0FC002F800
0FC001FC00
0FC001FC00
0FC001F800
0BD002F400
03E003F000
00B91BD000
01FFFE0000
03C1500000
0B80000000
1F80000000
1FFFEA9000
0BFFFFFE00
02FFFFFF40
0340006F80
0B00000780
2E00000380
3E00000740
7F00000B00
3F80006D00
2FFEABF400
07FFFE4000
0055500000
ENDCHAR
STARTCHAR h
ENCODING 104
SWIDTH 577 0
DWIDTH 21 0
BBX 20 26 0 0
BITMAP
05B8000000
7FF8000000
02F8000000
01F8000000
01F8000000
01F8000000
01F8000000
01F8000000
01F81BF800
01F8BFFF00
01FAD57F80
01FE001FC0
01F8000FC0
01F8000BD0
01F8000BD0
01F8000BD0
01F8000BD0
01F8000BD0
01F8000BD0
01F8000BD0
01F8000BD0
01F8000BD0
01F8000BD0
02F8000BE0
1BFE406FF9
3FFFD1FFFF
ENDCHAR
STARTCHAR i
ENCODING 105
SWIDTH 285 0
DWIDTH 10 0
BBX 9 24 1 0
BITMAP
07E000
0BF000
0BF000
07E000
000000
000000
16E000
BFE000
0BE000
07E000
07E000
07E000
07E000
07E000
07E000
07E000
07E000
07E000
07E000
07E000
07E000
07E000
6FF900
FFFF40
ENDCHAR
STARTCHAR j
ENCODING 106
SWIDTH 263 0
DWIDTH 9 0
BBX 11 33 -4 -9
BITMAP
0001F4
0003FC
0003FC
0001F4
000000
000000
0006B8
003FF8
0002F8
0001F8
0001F8
0001F8
0001F8
0001F8
0001F8
0001F8
0001F8
0001F8
0001F8
0001F8
0001F8
0001F8
0001F8
0001F8
0001F8
0001F8
0001F4
0001F4
2802F0
7F02E0
7F97C0
2FFE00
055400
ENDCHAR
STARTCHAR k
ENCODING 107
SWIDTH 542 0
DWIDTH 20 0
BBX 19 26 1 0
BITMAP
16E0000000
FFE0000000
0BE0000000
07E0000000
07E0000000
07E0000000
07E0000000
07E0000000
07E02FFFC0
07E01BFE40
07E003E000
07E00B8000
07E02D0000
07E0B40000
07E2D00000
07EB800000
07FFD00000
07EBF40000
07E2FD0000
07E0BF0000
07E03F8000
07E00FE000
07E007F800
0BE001FE00
6FF906FF94
FFFF4BFFF4
ENDCHAR
STARTCHAR l
ENCODING 108
SWIDTH 283 0
DWIDTH 10 0
BBX 9 26 1 0
BITMAP
16E000
FFE000
0BE000
07E000
07E000
07E000
07E000
07E000
07E000
07E000
07E000
07E000
07E000
07E000
07E000
07E000
07E000
07E000
07E000
07E000
07E000
07E000
07E000
0BE000
6FF900
FFFF40
ENDCHAR
STARTCHAR m
ENCODING 109
SWIDTH 852 0
DWIDTH 31 0
BBX 29 18 1 0
BITMAP
16E02FE002FE0000
BFE1FFF81FFFC000
0BEB51FDB91FE000
07F8007FD007F000
07E0003F4003F000
07E0003F0002F400
07E0003F0002F400
07E0003F0002F400
07E0003F0002F400
07E0003F0002F400
07E0003F0002F400
07E0003F0002F400
07E0003F0002F400
07E0003F0002F400
07E0003F0002F400
0BF0007F4003F400
6FF906FFE41BFE40
FFFF4BFFF87FFFC0
ENDCHAR
STARTCHAR n
ENCODING 110
SWIDTH 576 0
DWIDTH 21 0
BBX 19 18 1 0
BITMAP
16E02FE000
BFE1FFFC00
1BEB56FE00
07F8007F00
07E0003F00
07E0002F40
07E0002F40
07E0002F40
07E0002F40
07E0002F40
07E0002F40
07E0002F40
07E0002F40
07E0002F40
07E0002F40
07E0002F40
6FF901BFE4
FFFF47FFFC
ENDCHAR
STARTCHAR o
ENCODING 111
SWIDTH 514 0
DWIDTH 19 0
BBX 17 18 1 0
BITMAP
002BF90000
01F96FD000
0BD003F400
1F8001FC00
3F0000BD00
7F00007F00
BE00007F00
BE00003F40
BE00003F40
BE00003F40
BE00003F00
BE00007F00
7F00007E00
3F4000BD00
1F8000F800
0BE002F000
02FE6FC000
006BF90000
ENDCHAR
STARTCHAR p
ENCODING 112
SWIDTH 537 0
DWIDTH 19 0
BBX 18 26 0 -8
BITMAP
01B41BE400
3FF4BFFE00
1BF6FFFF40
02FB407FC0
02F8001FD0
02F4000BE0
02F40007F0
02F40007F0
02F40007F0
02F40007F0
02F40007F0
02F40007E0
02F4000BD0
02F4000BC0
02F8001F40
02FE007E00
02FFE6F800
02F6BF9000
02F4000000
02F4000000
02F4000000
02F4000000
02F4000000
02F8000000
1BFE500000
7FFFF00000
ENDCHAR
STARTCHAR q
ENCODING 113
SWIDTH 521 0
DWIDTH 19 0
BBX 18 26 1 -8
BITMAP
001BF92C00
01F96FFC00
07D007FC00
0F4001FC00
2F0000FC00
3E0000FC00
7D0000FC00
BD0000FC00
BD0000FC00
BD0000FC00
BD0000FC00
BE0000FC00
BF0000FC00
7F8000FC00
3FE007FC00
1FFFFEFC00
07FFF4FC00
01BF80FC00
000000FC00
000000FC00
000000FC00
000000FC00
000000FC00
000001FC00
00005BFE40
00007FFFD0
ENDCHAR
STARTCHAR r
ENCODING 114
SWIDTH 380 0
DWIDTH 14 0
BBX 13 18 1 0
BITMAP
06E06E00
BFE1FF40
5BE7FF40
07ED1E00
07F80000
07F00000
07E00000
07E00000
07E00000
07E00000
07E00000
07E00000
07E00000
07E00000
07E00000
07F00000
6FFA4000
FFFFC000
ENDCHAR
STARTCHAR s
ENCODING 115
SWIDTH 395 0
DWIDTH 14 0
BBX 13 18 1 0
BITMAP
02FE8C00
1F9AFC00
3D007C00
7C002C00
BD001D00
7E000D00
7FD00000
2FF90000
07FF8000
01BFF400
001BFD00
0001FF00
90007F00
A0003F40
B4003F00
BC007E00
BF96F800
66FF9000
ENDCHAR
STARTCHAR t
ENCODING 116
SWIDTH 315 0
DWIDTH 11 0
BBX 10 23 1 0
BITMAP
009000
01D000
03D000
07D000
1FD000
7FFFD0
5BE540
0BD000
0BD000
0BD000
0BD000
0BD000
0BD000
0BD000
0BD000
0BD000
0BD000
0BD000
0BD000
0BD010
07F5A0
03FFC0
01BE00
ENDCHAR
STARTCHAR u
ENCODING 117
SWIDTH 570 0
DWIDTH 21 0
BBX 19 18 1 0
BITMAP
ABD006AF00
BFD00AFF00
0FD0007F00
0BD0003F00
0BD0003F00
0BD0003F00
0BD0003F00
0BD0003F00
0BD0003F00
0BD0003F00
0BD0003F00
0BD0003F00
0BD0003F00
0BE0003F00
07F001FF00
03FD5B7F40
01FFFD3FF4
006F903E90
ENDCHAR
STARTCHAR v
ENCODING 118
SWIDTH 481 0
DWIDTH 17 0
BBX 19 18 -1 0
BITMAP
7FFF007FFC
6FF9001FE4
07F40007C0
02F8000B40
01FC000F00
00FD001E00
00BE002C00
007F003800
003F407400
001F80B000
000FC0E000
000BD1C000
0007E38000
0003F74000
0002FF0000
0000FE0000
0000BC0000
0000780000
ENDCHAR
STARTCHAR w
ENCODING 119
SWIDTH 749 0
DWIDTH 27 0
BBX 29 18 -1 0
BITMAP
BFFF07FFF00BFF40
6FF901FFD006FE40
07F4007F4000B400
02F8002F8000F000
01FC001FC001E000
00FD000FD002C000
00BE001FE0038000
007F003BF0074000
003F4076F40B0000
001F80B1F80E0000
000FD0D0FC1D0000
000BE1C0BD2C0000
0007F2807E340000
0003F7403F700000
0002FF002FE00000
0000FD001FD00000
0000BC000FC00000
000078000B800000
ENDCHAR
STARTCHAR x
ENCODING 120
SWIDTH 479 0
DWIDTH 17 0
BBX 18 18 0 0
BITMAP
BFFF07FF80
6FFD02FE40
07F400B400
02FC01E000
00BE028000
007F4B0000
001F9D0000
000BF80000
0003F40000
0003FC0000
000BBE0000
002D3F4000
00781FC000
00F00BE000
02D003F400
0B8002FD00
6F9007FF80
FFF01FFFD0
ENDCHAR
STARTCHAR y
ENCODING 121
SWIDTH 483 0
DWIDTH 17 0
BBX 19 27 -1 -9
BITMAP
7FFF407FF8
6FF9001FE4
07F4000780
03F8000B40
01FC000F00
00FD001E00
00BF002C00
003F403800
002F807400
001FD0B000
000BE0E000
0007F1D000
0003F6C000
0001FB8000
0000FF4000
0000BE0000
00003D0000
00003C0000
0000780000
0000B40000
0000F00000
0002D00000
0507C00000
2FEF400000
2FFE000000
1FF8000000
0540000000
ENDCHAR
STARTCHAR z
ENCODING 122
SWIDTH 458 0
DWIDTH 16 0
BBX 15 18 1 0
BITMAP
3FFFFFF0
7E555FE0
78001FC0
74003F40
7000BE00
1001FD00
0003F800
000BF000
001FD000
003F8000
00BF0000
01FD0000
03F80034
0BF00074
1FD000B0
3F8001F0
BFAAAFF0
FFFFFFF0
ENDCHAR
STARTCHAR braceleft
ENCODING 123
SWIDTH 327 0
DWIDTH 12 0
BBX 9 35 1 -8
BITMAP
001BC0
01FE40
03E000
07D000
07D000
0BC000
07D000
07D000
07D000
07E000
03E000
03E000
03E000
03E000
03D000
0B8000
BE0000
F80000
5F4000
07C000
03D000
03E000
03E000
03E000
07E000
07D000
07D000
07D000
0BD000
07C000
07D000
03E000
01F900
006FC0
000140
ENDCHAR
STARTCHAR bar
ENCODING 124
SWIDTH 267 0
DWIDTH 10 0
BBX 3 35 3 -8
BITMAP
24
78
78
78
78
78
78
78
78
78
78
78
78
78
78
78
78
78
78
78
78
78
78
78
78
78
78
78
78
78
78
78
78
78
78
ENDCHAR
STARTCHAR braceright
ENCODING 125
SWIDTH 327 0
DWIDTH 12 0
BBX 10 35 1 -8
BITMAP
7E4000
1BE000
00F800
00BC00
007D00
007D00
007D00
00BD00
00BC00
00BC00
00BC00
00F800
00F800
00B800
007800
002D00
000BE0
0002F0
001E50
007C00
00B800
00F800
00F800
00BC00
00BC00
00BC00
00BC00
007D00
007D00
007D00
00BC00
00F800
17F400
7F8000
100000
ENDCHAR
STARTCHAR asciitilde
ENCODING 126
SWIDTH 557 0
DWIDTH 20 0
BBX 18 6 1 6
BITMAP
0000000080
07FE4002E0
1FFFF95BD0
7E01BFFF40
B8001BF900
1000000000
ENDCHAR
STARTCHAR uni00A0
ENCODING 160
SWIDTH 235 0
DWIDTH 8 0
BBX 1 1 0 0
BITMAP
00
ENDCHAR
STARTCHAR exclamdown
ENCODING 161
SWIDTH 282 0
DWIDTH 10 0
BBX 4 25 3 -7
BITMAP
7E
FF
FF
7D
00
00
18
2C
2C
2C
3C
3D
3D
3D
7D
7E
7E
BE
BE
BF
BF
BF
BF
7E
14
ENDCHAR
STARTCHAR cent
ENCODING 162
SWIDTH 495 0
DWIDTH 18 0
BBX 15 26 1 -2
BITMAP
0000E000
0000D000
0000D000
0001E500
002FFF90
01E5DBF0
0781D7F4
0F41D2F8
1F01D1F4
2E01D000
3E01D000
7E01C000
7E01C000
7E02C000
7F02C000
3F42C000
3FC2C00C
2FE2C038
0FFAC1F0
07FFFFD0
01FFFF40
002BE900
00028000
00038000
00038000
00014000
ENDCHAR
STARTCHAR sterling
ENCODING 163
SWIDTH 495 0
DWIDTH 18 0
BBX 17 24 0 0
BITMAP
00006FE400
0002E6FE00
0007407F40
000F002F80
002F000A00
002F000000
003F000000
003F000000
003F000000
003F400000
003F400000
0FFFFFD000
056F954000
002F800000
001F800000
001F800000
001F800000
001F400000
000F400000
1FFF000080
797F900780
702FFFFF40
79B5FFFD00
1F902FE400
ENDCHAR
STARTCHAR currency
ENCODING 164
SWIDTH 617 0
DWIDTH 22 0
BBX 20 19 1 1
BITMAP
2800000018
7E0000007E
1F86FF91F8
07FF96FFE0
01FD002F80
01F0000B80
03D00003D0
07800002E0
07800001E0
0B400001E0
07800001E0
07800002E0
03C00003D0
02E00007C0
00F8001F40
02FF51BFD0
0FDBFFE6F4
7E001500BD
280000002D
ENDCHAR
STARTCHAR yen
ENCODING 165
SWIDTH 495 0
DWIDTH 18 0
BBX 18 23 0 0
BITMAP
FFFF01FFE0
7FF5006F90
1FF0002E00
0BF4002C00
03FC007400
01FD00B000
00FF00E000
007F41C000
002FC38000
001FD70000
000BEA0000
0007FD0000
07FFFFFD00
0156FD5400
0002F80000
0002F80000
07FFFFFD00
0156FD5400
0002F80000
0002FC0000
0003FC0000
005BFF9000
00BFFFF000
ENDCHAR
STARTCHAR brokenbar
ENCODING 166
SWIDTH 267 0
DWIDTH 10 0
BBX 3 27 3 -1
BITMAP
78
78
78
78
78
78
78
78
78
78
78
00
00
00
00
00
78
78
78
78
78
78
78
78
78
78
78
ENDCHAR
STARTCHAR section
ENCODING 167
SWIDTH 491 0
DWIDTH 18 0
BBX 13 33 2 -9
BITMAP
006FE400
02E9BD00
0B800F00
0F000F40
1F001F40
1F401F40
0FC00900
0BE00000
03F80000
01FF4000
00BFD000
02AFF400
0D07FD00
2C01FF00
3C007F40
3C001F80
3E000BC0
2F4003C0
1FD00380
0BF40340
03FE0A00
00FFE400
002FE000
000BF400
0001FD00
1400BE00
3D002F00
7D001F00
7C001E00
3C002D00
1F45B800
07FFD000
00140000
ENDCHAR
STARTCHAR dieresis
ENCODING 168
SWIDTH 392 0
DWIDTH 14 0
BBX 12 4 1 21
BITMAP
7D007D
BF00FF
BF00FF
7D007D
ENDCHAR
STARTCHAR copyright
ENCODING 169
SWIDTH 781 0
DWIDTH 28 0
BBX 24 26 2 -1
BITMAP
0001BFFE4000
001BE55AF400
00B900006E00
02D000000780
0740000001E0
0D002FF9D074
2801F96FD028
3407D002D01D
700B8001D00E
A00F8000D00A
E01F40000007
D01F40000007
D01F40000007
D01F40000007
D01F80000007
A00FC000000B
B007D000600A
7402F906C00D
28007FFE002C
1D0001500074
0B00000000E0
02D0000007C0
00B800001E00
001F9416F800
0001BFFF8000
000005500000
ENDCHAR
STARTCHAR ordfeminine
ENCODING 170
SWIDTH 410 0
DWIDTH 15 0
BBX 14 14 1 9
BITMAP
02BF8000
1F47F000
3E01F400
3D00F800
1400F800
0001F800
006EF800
0B90F800
3E00F800
7C00F800
BC00F800
BE01FC40
7FFEBFD0
1BE43E40
ENDCHAR
STARTCHAR guillemotleft
ENCODING 171
SWIDTH 517 0
DWIDTH 19 0
BBX 16 15 1 1
BITMAP
00060009
001E002D
007800B4
01F002E0
07D00BC0
1F802F40
7E00BD00
BD01FC00
7F00BE00
1F801F40
03E007D0
00F401F0
003C0078
000A001D
00020005
ENDCHAR
STARTCHAR logicalnot
ENCODING 172
SWIDTH 720 0
DWIDTH 26 0
BBX 21 13 2 3
BITMAP
BFFFFFFFFF80
BFFFFFFFFFC0
BFFFFFFFFFC0
000000000BC0
000000000BC0
000000000BC0
000000000BC0
000000000BC0
000000000BC0
000000000BC0
000000000BC0
000000000BC0
000000000BC0
ENDCHAR
STARTCHAR uni00AD
ENCODING 173
SWIDTH 315 0
DWIDTH 11 0
BBX 9 2 1 8
BITMAP
7FFF80
7FFF80
ENDCHAR
STARTCHAR registered
ENCODING 174
SWIDTH 413 0
DWIDTH 15 0
BBX 13 14 1 13
BITMAP
01BF9000
0B95B400
18001D00
31AA4700
60E1C240
90E2C140
80EE4180
90E74140
50E2D240
32A4A700
28000900
0B517800
02FFD000
00140000
ENDCHAR
STARTCHAR macron
ENCODING 175
SWIDTH 350 0
DWIDTH 13 0
BBX 11 2 1 21
BITMAP
FFFFF8
FFFFF8
ENDCHAR
STARTCHAR degree
ENCODING 176
SWIDTH 409 0
DWIDTH 15 0
BBX 11 12 2 14
BITMAP
06FE00
2F5BD0
7801F0
B400B4
F00078
F00038
F00078
F40078
7800F4
2E47E0
0BFF40
005400
ENDCHAR
STARTCHAR plusminus
ENCODING 177
SWIDTH 720 0
DWIDTH 26 0
BBX 22 23 2 -1
BITMAP
00000A000000
00001F400000
00001F400000
00001F400000
00001F400000
00001F400000
00001F400000
00001F400000
BFFFFFFFFFE0
BFFFFFFFFFE0
00001F400000
00001F400000
00001F400000
00001F400000
00001F400000
00001F400000
00001F400000
00001F400000
00001A000000
000000000000
000000000000
BFFFFFFFFFE0
BFFFFFFFFFE0
ENDCHAR
STARTCHAR twosuperior
ENCODING 178
SWIDTH 373 0
DWIDTH 13 0
BBX 12 17 1 9
BITMAP
06FE40
1FFFE0
7407F4
9001F8
0000FC
0000FC
0000F8
0001F0
0003D0
000B40
002D00
00B400
02D001
0B400A
2D005D
BFFFFD
FFFFFC
ENDCHAR
STARTCHAR threesuperior
ENCODING 179
SWIDTH 374 0
DWIDTH 13 0
BBX 11 17 1 9
BITMAP
06FE40
1FFFD0
7407F0
5002F0
0002E0
000380
001E00
03FE40
005FE0
0002F8
0000FC
0000BC
00007C
0000B8
6000F4
BE4780
7FE900
ENDCHAR
STARTCHAR acute
ENCODING 180
SWIDTH 222 0
DWIDTH 8 0
BBX 6 6 1 19
BITMAP
0690
0FE0
1F80
2E00
7800
B000
ENDCHAR
STARTCHAR uni00B5
ENCODING 181
SWIDTH 556 0
DWIDTH 20 0
BBX 19 26 1 -8
BITMAP
1FC000FD00
1FC000FD00
1F8000FC00
1F8000FC00
1F4000F800
1F4000F800
1F4000F400
1F0000F400
1F0001F000
1E0002F000
1E0003F000
1F0007F000
1F000AF400
1F801DB400
2FD07CBC1C
2EFFF47FF4
3DBFE03FE0
3D2F801F80
3D00000000
3D00000000
7E00000000
7E00000000
7E00000000
7E00000000
7E00000000
6400000000
ENDCHAR
STARTCHAR paragraph
ENCODING 182
SWIDTH 605 0
DWIDTH 22 0
BBX 18 30 2 -6
BITMAP
01AFFFFFE0
0BEAF5FE40
2F42E0F800
7E02E0F400
BD02E0F400
FC02E0F400
FC02E0F400
FC02E0F400
FC02E0F400
FC02E0F400
BD02E0F400
7E02E0F400
2F42E0F400
07D2E0F400
006FE0F400
0002E0F400
0002E0F400
0002E0F400
0002E0F400
0002E0F400
0002E0F400
0002E0F400
0002E0F400
0002E0F400
0002E0F400
0002E0F400
0002E0F400
0003E0F800
005BE0FE40
00BFE0FFE0
ENDCHAR
STARTCHAR periodcentered
ENCODING 183
SWIDTH 282 0
DWIDTH 10 0
BBX 4 4 3 7
BITMAP
7D
FF
FF
7D
ENDCHAR
STARTCHAR cedilla
ENCODING 184
SWIDTH 247 0
DWIDTH 9 0
BBX 7 9 1 -9
BITMAP
0900
0C00
1FE0
05B8
0078
0078
91B4
7FE0
0500
ENDCHAR
STARTCHAR onesuperior
ENCODING 185
SWIDTH 343 0
DWIDTH 12 0
BBX 10 17 1 9
BITMAP
06B800
7FF800
51F800
00F800
00F800
00F800
00F800
00F800
00F800
00F800
00F800
00F800
00F800
00F800
00F800
06FD00
7FFFF0
ENDCHAR
STARTCHAR ordmasculine
ENCODING 186
SWIDTH 432 0
DWIDTH 16 0
BBX 14 14 1 9
BITMAP
01BFA000
0BD1BD00
2F001F40
7D000F80
BC000BC0
BC0007D0
FC0007D0
FC0007D0
BC0007D0
BD000BC0
7D000F80
2F001F00
0BD07D00
01BF9000
ENDCHAR
STARTCHAR guillemotright
ENCODING 187
SWIDTH 517 0
DWIDTH 19 0
BBX 16 15 2 1
BITMAP
90018000
B400E000
2D007800
0F401E00
07D00B80
02F403E0
00BD01F8
007F00BD
00FD01F8
02F407E0
0BC00F80
1F002E00
3C007800
B001E000
80014000
ENDCHAR
STARTCHAR onequarter
ENCODING 188
SWIDTH 861 0
DWIDTH 31 0
BBX 29 27 1 -1
BITMAP
0000000000380000
06F4000000B00000
7FF4000001E00000
52F4000003C00000
01F4000007400000
01F400000E000000
01F400002D000000
01F4000078000000
01F40000B0000000
01F40001E0000000
01F40003C0006400
01F4000B4001F800
01F4000E0003F800
01F4002D000AF800
07F90078002CF800
7FFFC0B00074F800
155541D001E0F800
000003C00380F800
00000B400B00F800
00001E002D00F800
00002C003FFFFFC0
000078007FFFFFC0
0000F0000000F800
0001D0000000F800
000380000000F800
000B40000000A400
0005000000000000
ENDCHAR
STARTCHAR onehalf
ENCODING 189
SWIDTH 889 0
DWIDTH 32 0
BBX 30 27 1 -1
BITMAP
0000000000140000
0050000000740000
1BF4000000E00000
6BF4000002D00000
01F4000007800000
01F400000B000000
01F400001D000000
01F400003C000000
01F40000B4000000
01F40001E0000000
01F40002C0000000
01F40007801BF900
01F4000F00BFFF40
01F4002D02901FC0
01F4003802000BD0
07F900B4000007D0
7FFFC1E000000BD0
155543C000000B80
0000074000001F40
00000E0000007D00
00002D000001E000
0000780000078010
0000F000002D0070
0001D00000B401A0
0003800003FFFFE0
000B400007FFFFD0
0005000000000000
ENDCHAR
STARTCHAR threequarters
ENCODING 190
SWIDTH 861 0
DWIDTH 31 0
BBX 29 27 1 -1
BITMAP
0000000000380000
06FE400000B00000
2D5BD00001E00000
6002F00003C00000
4002F00007400000
0002E0000E000000
000780002D000000
006D000078000000
03FF8000B0000000
016FF001E0000000
0001F803C0006400
0000F80B4001F800
0000B80E0003F800
6400F42D000AF800
BE46E078002CF800
7FFE40B00074F800
054001D001E0F800
000003C00380F800
00000B400B00F800
00001E002D00F800
00002C003FFFFFC0
000078007FFFFFC0
0000F0000000F800
0001D0000000F800
000380000000F800
000B40000000A400
0005000000000000
ENDCHAR
STARTCHAR questiondown
ENCODING 191
SWIDTH 411 0
DWIDTH 15 0
BBX 13 26 1 -8
BITMAP
002E0000
007F8000
007F8000
002E0000
00000000
00000000
00080000
001D0000
001D0000
002C0000
00780000
00F40000
02E00000
0BC00000
1F800000
2F000000
7E000000
BD000500
BD001F80
FD002F80
BD001F80
BE000F80
3F000F40
1FD06D00
02FFE400
00150000
ENDCHAR
STARTCHAR Agrave
ENCODING 192
SWIDTH 718 0
DWIDTH 26 0
BBX 26 31 0 0
BITMAP
00003F80000000
00001FE0000000
000002F4000000
000000BC000000
0000001E000000
00000000000000
00000000000000
000001E0000000
000002F0000000
000003F8000000
00000BFC000000
00000FFD000000
00001EBF000000
00002C7F400000
0000783F800000
0000B42FD00000
0000F00FE00000
0001E00BF00000
0003C007F80000
00078003FC0000
000B4002FD0000
001F0001FF0000
002FFFFFFF4000
003D5555BF8000
007800003FC000
00F400001FE000
01E000000FF000
02D000000BF800
07D000000BFD00
6FF500006FFF90
FFFE0000FFFFE0
ENDCHAR
STARTCHAR Aacute
ENCODING 193
SWIDTH 718 0
DWIDTH 26 0
BBX 26 31 0 0
BITMAP
0000007F800000
000000FE000000
000002F4000000
00000BD0000000
00001E00000000
00000000000000
00000000000000
000001E0000000
000002F0000000
000003F8000000
00000BFC000000
00000FFD000000
00001EBF000000
00002C7F400000
0000783F800000
0000B42FD00000
0000F00FE00000
0001E00BF00000
0003C007F80000
00078003FC0000
000B4002FD0000
001F0001FF0000
002FFFFFFF4000
003D5555BF8000
007800003FC000
00F400001FE000
01E000000FF000
02D000000BF800
07D000000BFD00
6FF500006FFF90
FFFE0000FFFFE0
ENDCHAR
STARTCHAR Acircumflex
ENCODING 194
SWIDTH 718 0
DWIDTH 26 0
BBX 26 31 0 0
BITMAP
000003F4000000
00000BFD000000
00002F6F000000
00007807800000
0001E001E00000
00000000000000
00000000000000
000001E0000000
000002F0000000
000003F8000000
00000BFC000000
00000FFD000000
00001EBF000000
00002C7F400000
0000783F800000
0000B42FD00000
0000F00FE00000
0001E00BF00000
0003C007F80000
00078003FC0000
000B4002FD0000
001F0001FF0000
002FFFFFFF4000
003D5555BF8000
007800003FC000
00F400001FE000
01E000000FF000
02D000000BF800
07D000000BFD00
6FF500006FFF90
FFFE0000FFFFE0
ENDCHAR
STARTCHAR Atilde
ENCODING 195
SWIDTH 718 0
DWIDTH 26 0
BBX 26 31 0 0
BITMAP
00002F80180000
0000FFF5740000
000196FFE00000
0002402F800000
00000000000000
00000000000000
00000000000000
000001E0000000
000002F0000000
000003F8000000
00000BFC000000
00000FFD000000
00001EBF000000
00002C7F400000
0000783F800000
0000B42FD00000
0000F00FE00000
0001E00BF00000
0003C007F80000
00078003FC0000
000B4002FD0000
001F0001FF0000
002FFFFFFF4000
003D5555BF8000
007800003FC000
00F400001FE000
01E000000FF000
02D000000BF800
07D000000BFD00
6FF500006FFF90
FFFE0000FFFFE0
ENDCHAR
STARTCHAR Adieresis
ENCODING 196
SWIDTH 718 0
DWIDTH 26 0
BBX 26 30 0 0
BITMAP
0001E402E00000
0003F807F80000
0003F807F80000
0002E402E00000
00000000000000
00000000000000
000001E0000000
000002F0000000
000003F8000000
00000BFC000000
00000FFD000000
00001EBF000000
00002C7F400000
0000783F800000
0000B42FD00000
0000F00FE00000
0001E00BF00000
0003C007F80000
00078003FC0000
000B4002FD0000
001F0001FF0000
002FFFFFFF4000
003D5555BF8000
007800003FC000
00F400001FE000
01E000000FF000
02D000000BF800
07D000000BFD00
6FF500006FFF90
FFFE0000FFFFE0
ENDCHAR
STARTCHAR Aring
ENCODING 197
SWIDTH 718 0
DWIDTH 26 0
BBX 26 33 0 0
BITMAP
000007F8000000
00001E5E000000
00002C07400000
00003807400000
00003807400000
00002E1F000000
00000BFD000000
00000050000000
00000000000000
000001E0000000
000002F0000000
000003F8000000
00000BFC000000
00000FFD000000
00001EBF000000
00002C7F400000
0000783F800000
0000B42FD00000
0000F00FE00000
0001E00BF00000
0003C007F80000
00078003FC0000
000B4002FD0000
001F0001FF0000
002FFFFFFF4000
003D5555BF8000
007800003FC000
00F400001FE000
01E000000FF000
02D000000BF800
07D000000BFD00
6FF500006FFF90
FFFE0000FFFFE0
ENDCHAR
STARTCHAR AE
ENCODING 198
SWIDTH 894 0
DWIDTH 32 0
BBX 32 24 -1 0
BITMAP
000002FFFFFFFFF8
0000007FFEAAABFC
0000002DFD0000BC
00000038FD00002C
000000B0FD00001C
000000E0FD00001C
000002C0FD000000
00000780FD000000
00000B00FD000300
00001E00FD000700
00003C00FD000700
00007801FD006F00
0000FFFFFFFFFF00
0002E555FD556F00
0003C000FD000700
000B4000FD000300
001F0000FD000000
002D0000FD000007
00780000FD00000B
00F00000FD00000E
02E00001FD00002E
07E00001FD00007D
6FF9005BFEAAABFD
BFFF00BFFFFFFFFD
ENDCHAR
STARTCHAR Ccedilla
ENCODING 199
SWIDTH 670 0
DWIDTH 24 0
BBX 22 33 1 -9
BITMAP
00006FFE42C0
000BFA5BFFC0
007F8000BFC0
01FD00002FC0
03F400000BC0
0BE0000007C0
0FD0000003C0
2FC0000002C0
2FC0000001C0
3F8000000000
3F8000000000
7F8000000000
7F8000000000
3F8000000000
3F8000000000
2FC000000000
2FD000000000
1FE000000000
0BF400000000
07FC000001D0
01FF40000B80
007FF955BE00
001BFFFFF400
0001AFFA4000
000005000000
000009000000
00000FE40000
000005BC0000
0000003D0000
0000003C0000
000064B80000
00002FE00000
000001000000
ENDCHAR
STARTCHAR Egrave
ENCODING 200
SWIDTH 626 0
DWIDTH 23 0
BBX 21 31 1 0
BITMAP
0007F8000000
0001FD000000
00007F000000
00000BC00000
000001E00000
000000000000
000000000000
BFFFFFFFFD00
07FEAAABFD00
01FC00007D00
01FC00001D00
01FC00000D00
01FC00000900
01FC00000000
01FC00028000
01FC00028000
01FC00038000
01FD005B8000
01FFFFFF8000
01FD555F8000
01FC00038000
01FC00028000
01FC00028000
01FC00000000
01FC00000140
01FC00000340
01FC00000740
01FC00000F00
01FC00006F00
07FEAAABFE00
BFFFFFFFFE00
ENDCHAR
STARTCHAR Eacute
ENCODING 201
SWIDTH 626 0
DWIDTH 23 0
BBX 21 31 1 0
BITMAP
00000BF40000
00001FE00000
00003F400000
0000B8000000
0002D0000000
000000000000
000000000000
BFFFFFFFFD00
07FEAAABFD00
01FC00007D00
01FC00001D00
01FC00000D00
01FC00000900
01FC00000000
01FC00028000
01FC00028000
01FC00038000
01FD005B8000
01FFFFFF8000
01FD555F8000
01FC00038000
01FC00028000
01FC00028000
01FC00000000
01FC00000140
01FC00000340
01FC00000740
01FC00000F00
01FC00006F00
07FEAAABFE00
BFFFFFFFFE00
ENDCHAR
STARTCHAR Ecircumflex
ENCODING 202
SWIDTH 626 0
DWIDTH 23 0
BBX 21 31 1 0
BITMAP
00007F400000
0000FFC00000
0002E6E00000
000B80B80000
001D001D0000
000000000000
000000000000
BFFFFFFFFD00
07FEAAABFD00
01FC00007D00
01FC00001D00
01FC00000D00
01FC00000900
01FC00000000
01FC00028000
01FC00028000
01FC00038000
01FD005B8000
01FFFFFF8000
01FD555F8000
01FC00038000
01FC00028000
01FC00028000
01FC00000000
01FC00000140
01FC00000340
01FC00000740
01FC00000F00
01FC00006F00
07FEAAABFE00
BFFFFFFFFE00
ENDCHAR
STARTCHAR Edieresis
ENCODING 203
SWIDTH 626 0
DWIDTH 23 0
BBX 21 30 1 0
BITMAP
002E002E0000
007F407F4000
007F407F4000
002E002E0000
000000000000
000000000000
BFFFFFFFFD00
07FEAAABFD00
01FC00007D00
01FC00001D00
01FC00000D00
01FC00000900
01FC00000000
01FC00028000
01FC00028000
01FC00038000
01FD005B8000
01FFFFFF8000
01FD555F8000
01FC00038000
01FC00028000
01FC00028000
01FC00000000
01FC00000140
01FC00000340
01FC00000740
01FC00000F00
01FC00006F00
07FEAAABFE00
BFFFFFFFFE00
ENDCHAR
STARTCHAR Igrave
ENCODING 204
SWIDTH 357 0
DWIDTH 13 0
BBX 11 31 1 0
BITMAP
1FE000
0BF400
01FC00
002E00
000780
000000
000000
BFFFF8
5BFF94
02FD00
01FC00
01FC00
01FC00
01FC00
01FC00
01FC00
01FC00
01FC00
01FC00
01FC00
01FC00
01FC00
01FC00
01FC00
01FC00
01FC00
01FC00
01FC00
02FD00
5BFF94
BFFFF8
ENDCHAR
STARTCHAR Iacute
ENCODING 205
SWIDTH 357 0
DWIDTH 13 0
BBX 11 31 1 0
BITMAP
002FD0
007F40
01FD00
03E000
0B4000
000000
000000
BFFFF8
5BFF94
02FD00
01FC00
01FC00
01FC00
01FC00
01FC00
01FC00
01FC00
01FC00
01FC00
01FC00
01FC00
01FC00
01FC00
01FC00
01FC00
01FC00
01FC00
01FC00
02FD00
5BFF94
BFFFF8
ENDCHAR
STARTCHAR Icircumflex
ENCODING 206
SWIDTH 357 0
DWIDTH 13 0
BBX 11 31 1 0
BITMAP
01FD00
03FF00
0B9F80
2E02E0
740074
000000
000000
BFFFF8
5BFF94
02FD00
01FC00
01FC00
01FC00
01FC00
01FC00
01FC00
01FC00
01FC00
01FC00
01FC00
01FC00
01FC00
01FC00
01FC00
01FC00
01FC00
01FC00
01FC00
02FD00
5BFF94
BFFFF8
ENDCHAR
STARTCHAR Idieresis
ENCODING 207
SWIDTH 357 0
DWIDTH 13 0
BBX 13 30 0 0
BITMAP
2E002E00
7F40BF40
7F40BF40
2E002E00
00000000
00000000
2FFFFE00
16FFE500
00BF4000
007F0000
007F0000
007F0000
007F0000
007F0000
007F0000
007F0000
007F0000
007F0000
007F0000
007F0000
007F0000
007F0000
007F0000
007F0000
007F0000
007F0000
007F0000
00BF4000
16FFE500
2FFFFE00
ENDCHAR
STARTCHAR Eth
ENCODING 208
SWIDTH 737 0
DWIDTH 27 0
BBX 24 24 1 0
BITMAP
BFFFFFE90000
17FEAAFFE400
01FD000BFE00
00FD0000BF80
00FD00002FE0
00FD00000FF4
00FD000007F8
00FD000003FC
00FD000002FD
00FD000002FE
00FD000001FE
BFFFFFD001FE
15FD554001FE
00FD000001FE
00FD000001FE
00FD000002FD
00FD000002FC
00FD000003F8
00FD000007F4
00FD00000FE0
00FD00007F80
01FD0006FE00
07FE56BFE400
BFFFFFE90000
ENDCHAR
STARTCHAR Ntilde
ENCODING 209
SWIDTH 742 0
DWIDTH 27 0
BBX 25 31 1 0
BITMAP
00006F80180000
0000FFF5740000
000296FFE00000
0003006F800000
00000000000000
00000000000000
00000000000000
FFF80000BFFF80
6FFD00006FFE40
07FF000003F000
02FF800002E000
02FFE00001E000
02DFF40001D000
02D7FC0001D000
02D2FE0001D000
02D0FF8001D000
02D03FD001D000
02D01FF401D000
02D00BFC01D000
02D002FE01D000
02D000FF41D000
02D0007FD1D000
02D0001FF1D000
02D0000BF9D000
02D00002FED000
02D00000FFD000
02D000007FD000
02D000001FD000
03E000000BD000
6FF9400003D000
FFFF400000D000
ENDCHAR
STARTCHAR Ograve
ENCODING 210
SWIDTH 738 0
DWIDTH 27 0
BBX 23 31 2 0
BITMAP
0002FD000000
0000BF400000
00001FC00000
000002E00000
000000B40000
000000000000
000000000000
0001BFE90000
002FE5AFD000
01FD0006F800
07F40000BF00
0FD000003F80
2FC000001FD0
3F4000000FE0
7F0000000BF0
BF00000007F4
FE00000007F8
FE00000003F8
FE00000003F8
FE00000003F8
FE00000003F8
FE00000007F8
BF00000007F4
BF4000000BF0
7F4000000BE0
2FC000001FD0
0FD000002F80
07F400007E00
01FD0002F800
002FE5AFD000
0001BFE90000
ENDCHAR
STARTCHAR Oacute
ENCODING 211
SWIDTH 738 0
DWIDTH 27 0
BBX 23 31 2 0
BITMAP
000002FD0000
00000BF40000
00001F800000
00003E000000
0000B4000000
000000000000
000000000000
0001BFE90000
002FE5AFD000
01FD0006F800
07F40000BF00
0FD000003F80
2FC000001FD0
3F4000000FE0
7F0000000BF0
BF00000007F4
FE00000007F8
FE00000003F8
FE00000003F8
FE00000003F8
FE00000003F8
FE00000007F8
BF00000007F4
BF4000000BF0
7F4000000BE0
2FC000001FD0
0FD000002F80
07F400007E00
01FD0002F800
002FE5AFD000
0001BFE90000
ENDCHAR
STARTCHAR Ocircumflex
ENCODING 212
SWIDTH 738 0
DWIDTH 27 0
BBX 23 31 2 0
BITMAP
00001FC00000
00007FE00000
0000F9F80000
0002D02D0000
000B400B4000
000000000000
000000000000
0001BFE90000
002FE5AFD000
01FD0006F800
07F40000BF00
0FD000003F80
2FC000001FD0
3F4000000FE0
7F0000000BF0
BF00000007F4
FE00000007F8
FE00000003F8
FE00000003F8
FE00000003F8
FE00000003F8
FE00000007F8
BF00000007F4
BF4000000BF0
7F4000000BE0
2FC000001FD0
0FD000002F80
07F400007E00
01FD0002F800
002FE5AFD000
0001BFE90000
ENDCHAR
STARTCHAR Otilde
ENCODING 213
SWIDTH 738 0
DWIDTH 27 0
BBX 23 31 2 0
BITMAP
0001F9009000
0007FF96C000
000E5BFF4000
001801F90000
000000000000
000000000000
000000000000
0001BFE90000
002FE5AFD000
01FD0006F800
07F40000BF00
0FD000003F80
2FC000001FD0
3F4000000FE0
7F0000000BF0
BF00000007F4
FE00000007F8
FE00000003F8
FE00000003F8
FE00000003F8
FE00000003F8
FE00000007F8
BF00000007F4
BF4000000BF0
7F4000000BE0
2FC000001FD0
0FD000002F80
07F400007E00
01FD0002F800
002FE5AFD000
0001BFE90000
ENDCHAR
STARTCHAR Odieresis
ENCODING 214
SWIDTH 738 0
DWIDTH 27 0
BBX 23 30 2 0
BITMAP
000B800B8000
002FD02FD000
002FD02FD000
000B800B8000
000000000000
000000000000
0001BFE90000
002FE5AFD000
01FD0006F800
07F40000BF00
0FD000003F80
2FC000001FD0
3F4000000FE0
7F0000000BF0
BF00000007F4
FE00000007F8
FE00000003F8
FE00000003F8
FE00000003F8
FE00000003F8
FE00000007F8
BF00000007F4
BF4000000BF0
7F4000000BE0
2FC000001FD0
0FD000002F80
07F400007E00
01FD0002F800
002FE5AFD000
0001BFE90000
ENDCHAR
STARTCHAR multiply
ENCODING 215
SWIDTH 720 0
DWIDTH 26 0
BBX 20 21 3 -1
BITMAP
1000000004
740000001D
FD000000BE
3F400002F8
0FD0000BE0
03F4002F80
00FD00BE00
003F42F800
000FDBE000
0003FFC000
0000FF0000
0002FF4000
000BEFD000
002F83F400
00BE00FD00
02F8003F40
0BE0000FD0
2F800003F4
7E000000FD
F80000003E
2000000008
ENDCHAR
STARTCHAR Oslash
ENCODING 216
SWIDTH 737 0
DWIDTH 27 0
BBX 24 24 1 0
BITMAP
00006FFA40D0
000BF96BF6C0
007F4001FF40
01FD00003F80
03F400007FE0
0BE00000E7F4
0FD00002C3F8
2FC0000B42FC
2FC0001D01FD
3F80007801FE
3F8000E000FE
7F8002C000FE
7F800B4000FE
3F801D0000FE
3F80380001FD
2FC0A00001FD
2FC2C00002FC
1FD7400003F8
0BFD000007F0
07F800000BE0
01FD00002F80
02FF4000BE00
0B5BF96BF400
0D01AFFA4000
ENDCHAR
STARTCHAR Ugrave
ENCODING 217
SWIDTH 752 0
DWIDTH 27 0
BBX 27 31 0 0
BITMAP
00000BF4000000
000002FD000000
0000007F000000
0000000B800000
00000002D00000
00000000000000
00000000000000
7FFFFC001FFFF4
1BFFE40006FF94
00FF000000BD00
00FE0000007D00
00BE0000003C00
00BE0000003C00
00BE0000003C00
00BE0000003C00
00BE0000003C00
00BE0000003C00
00BE0000003C00
00BE0000003C00
00BE0000003C00
00BE0000003C00
00BE0000003C00
00BE0000003C00
00BE0000003C00
00BF0000007800
007F400000B400
003F800000F000
002FE00002E000
000BFE556F8000
0002FFFFFE0000
00001BFF900000
ENDCHAR
STARTCHAR Uacute
ENCODING 218
SWIDTH 752 0
DWIDTH 27 0
BBX 27 31 0 0
BITMAP
0000000BF40000
0000001FD00000
0000007E000000
000000F8000000
000002D0000000
00000000000000
00000000000000
7FFFFC001FFFF4
1BFFE40006FF94
00FF000000BD00
00FE0000007D00
00BE0000003C00
00BE0000003C00
00BE0000003C00
00BE0000003C00
00BE0000003C00
00BE0000003C00
00BE0000003C00
00BE0000003C00
00BE0000003C00
00BE0000003C00
00BE0000003C00
00BE0000003C00
00BE0000003C00
00BF0000007800
007F400000B400
003F800000F000
002FE00002E000
000BFE556F8000
0002FFFFFE0000
00001BFF900000
ENDCHAR
STARTCHAR Ucircumflex
ENCODING 219
SWIDTH 752 0
DWIDTH 27 0
BBX 27 31 0 0
BITMAP
0000007F000000
000000FF800000
000003E7E00000
00000B80B40000
00002D001D0000
00000000000000
00000000000000
7FFFFC001FFFF4
1BFFE40006FF94
00FF000000BD00
00FE0000007D00
00BE0000003C00
00BE0000003C00
00BE0000003C00
00BE0000003C00
00BE0000003C00
00BE0000003C00
00BE0000003C00
00BE0000003C00
00BE0000003C00
00BE0000003C00
00BE0000003C00
00BE0000003C00
00BE0000003C00
00BF0000007800
007F400000B400
003F800000F000
002FE00002E000
000BFE556F8000
0002FFFFFE0000
00001BFF900000
ENDCHAR
STARTCHAR Udieresis
ENCODING 220
SWIDTH 752 0
DWIDTH 27 0
BBX 27 30 0 0
BITMAP
00002E002E0000
0000BF40BF4000
0000BF40BF4000
00002E002E0000
00000000000000
00000000000000
7FFFFC001FFFF4
1BFFE40006FF94
00FF000000BD00
00FE0000007D00
00BE0000003C00
00BE0000003C00
00BE0000003C00
00BE0000003C00
00BE0000003C00
00BE0000003C00
00BE0000003C00
00BE0000003C00
00BE0000003C00
00BE0000003C00
00BE0000003C00
00BE0000003C00
00BE0000003C00
00BF0000007800
007F400000B400
003F800000F000
002FE00002E000
000BFE556F8000
0002FFFFFE0000
00001BFF900000
ENDCHAR
STARTCHAR Yacute
ENCODING 221
SWIDTH 647 0
DWIDTH 23 0
BBX 25 31 -1 0
BITMAP
0000002FC00000
000000BF400000
000001F8000000
000003D0000000
00000B40000000
00000000000000
00000000000000
7FFFF8007FFF40
1BFF94001BFA40
02FF000003E000
00BF8000078000
003FC0000F0000
001FE0002D0000
000BF400380000
0003FC00B00000
0001FE01E00000
0000BF43C00000
00003F8B400000
00001FEE000000
00000BFC000000
000007F8000000
000003F4000000
000003F4000000
000003F4000000
000003F4000000
000003F4000000
000003F4000000
000003F8000000
000007F8000000
00016FFE900000
0002FFFFF00000
ENDCHAR
STARTCHAR Thorn
ENCODING 222
SWIDTH 572 0
DWIDTH 21 0
BBX 19 24 1 0
BITMAP
BFFFFC0000
5BFF940000
02FD000000
01FC000000
01FFFFE400
01FD56FF40
01FC002FD0
01FC000FF0
01FC0007F4
01FC0007F4
01FC0003F4
01FC0007F4
01FC0007F4
01FC0007F0
01FC000FD0
01FC002F80
01FD05FE00
01FFFFE400
01FD540000
01FC000000
01FC000000
02FD000000
5BFF940000
BFFFFC0000
ENDCHAR
STARTCHAR germandbls
ENCODING 223
SWIDTH 563 0
DWIDTH 20 0
BBX 19 27 0 0
BITMAP
0001BFA000
000F95BD00
003D002F40
007C001F80
00F8000FC0
00F8000FC0
01F8000F80
01F8001F40
01F8002F00
3FF801B800
16F81F9000
01F81E4000
01F806F900
01F8007F40
01F8001FD0
01F80007F0
01F80003F8
01F80002FC
01F80001FC
01F80001FC
01F80001FC
01F80001FC
01F82801F8
01F8BE02F4
01F8BF03E0
17F83F9B80
7FF80BF900
ENDCHAR
STARTCHAR agrave
ENCODING 224
SWIDTH 480 0
DWIDTH 17 0
BBX 16 25 1 0
BITMAP
01A40000
01FD0000
007E0000
001F0000
000B8000
0002C000
00000000
00AFE400
07E6FE00
1F403F40
2F401F80
3F001F80
1E001F80
00000F80
00006F80
001BEF80
01F90F80
0BD00F80
2F400F80
7E000F80
BE000F80
BE001FC0
7F006FD6
2FE68BFD
0BF907E4
ENDCHAR
STARTCHAR aacute
ENCODING 225
SWIDTH 480 0
DWIDTH 17 0
BBX 16 25 1 0
BITMAP
0000A800
0002FC00
0003F000
0007D000
000F4000
001D0000
00000000
00AFE400
07E6FE00
1F403F40
2F401F80
3F001F80
1E001F80
00000F80
00006F80
001BEF80
01F90F80
0BD00F80
2F400F80
7E000F80
BE000F80
BE001FC0
7F006FD6
2FE68BFD
0BF907E4
ENDCHAR
STARTCHAR acircumflex
ENCODING 226
SWIDTH 480 0
DWIDTH 17 0
BBX 16 25 1 0
BITMAP
00064000
002FD000
007EF000
00F4B800
02D02D00
07400B00
00000000
00AFE400
07E6FE00
1F403F40
2F401F80
3F001F80
1E001F80
00000F80
00006F80
001BEF80
01F90F80
0BD00F80
2F400F80
7E000F80
BE000F80
BE001FC0
7F006FD6
2FE68BFD
0BF907E4
ENDCHAR
STARTCHAR atilde
ENCODING 227
SWIDTH 480 0
DWIDTH 17 0
BBX 16 24 1 0
BITMAP
01F900C0
07FF96C0
0E5BFF40
0C01F900
00000000
00000000
00AFE400
07E6FE00
1F403F40
2F401F80
3F001F80
1E001F80
00000F80
00006F80
001BEF80
01F90F80
0BD00F80
2F400F80
7E000F80
BE000F80
BE001FC0
7F006FD6
2FE68BFD
0BF907E4
ENDCHAR
STARTCHAR adieresis
ENCODING 228
SWIDTH 480 0
DWIDTH 17 0
BBX 16 25 1 0
BITMAP
0B800B80
2FD02FD0
2FD02FD0
0B800B80
00000000
00000000
00000000
00AFE400
07E6FE00
1F403F40
2F401F80
3F001F80
1E001F80
00000F80
00006F80
001BEF80
01F90F80
0BD00F80
2F400F80
7E000F80
BE000F80
BE001FC0
7F006FD6
2FE68BFD
0BF907E4
ENDCHAR
STARTCHAR aring
ENCODING 229
SWIDTH 480 0
DWIDTH 17 0
BBX 16 27 1 0
BITMAP
002FD000
00B5B400
01D03800
01D02C00
01D02C00
00F47800
007FE000
00050000
00000000
00AFE400
07E6FE00
1F403F40
2F401F80
3F001F80
1E001F80
00000F80
00006F80
001BEF80
01F90F80
0BD00F80
2F400F80
7E000F80
BE000F80
BE001FC0
7F006FD6
2FE68BFD
0BF907E4
ENDCHAR
STARTCHAR ae
ENCODING 230
SWIDTH 709 0
DWIDTH 26 0
BBX 24 18 1 0
BITMAP
01BFE01BF900
0BE6FC796F80
2F407FE00BE0
3F002FC003F4
3F002F8001F8
2E002F8001FC
00002F8001FC
00006FFFFFFD
001BFF955554
01F92F800000
0B801F800000
2F001FC00000
7E001FD00004
BE000FE0001C
BE002FF90078
7F95E2FFFFF0
2FFF80BFFF80
0BF9001BF900
ENDCHAR
STARTCHAR ccedilla
ENCODING 231
SWIDTH 446 0
DWIDTH 16 0
BBX 14 26 1 -8
BITMAP
002BF900
01F9BF80
0B801FD0
1F000BE0
2E0007E0
7D000140
7C000000
BC000000
BC000000
BC000000
BD000000
BE000000
7F000010
3F800070
2FE406D0
0FFFFF80
07FFFE00
00BFE400
00060000
000A0000
000BF400
00057C00
00002D00
00002D00
0079B800
001BE000
ENDCHAR
STARTCHAR egrave
ENCODING 232
SWIDTH 464 0
DWIDTH 17 0
BBX 15 25 1 0
BITMAP
00A80000
00FE0000
003F0000
000F4000
0007C000
0001D000
00000000
006FE400
02E9BE00
0B801F80
1F000BD0
3E0007F0
7D0003F0
BD0003F4
BFFFFFF4
BD555550
BD000000
BD000000
BE000000
7F400000
3FC00034
1FF401E0
0BFFFFC0
02FFFF40
006FE800
ENDCHAR
STARTCHAR eacute
ENCODING 233
SWIDTH 464 0
DWIDTH 17 0
BBX 15 25 1 0
BITMAP
00006900
0001FD00
0002F400
0003D000
000B8000
000E0000
00000000
006FE400
02E9BE00
0B801F80
1F000BD0
3E0007F0
7D0003F0
BD0003F4
BFFFFFF4
BD555550
BD000000
BD000000
BE000000
7F400000
3FC00034
1FF401E0
0BFFFFC0
02FFFF40
006FE800
ENDCHAR
STARTCHAR ecircumflex
ENCODING 234
SWIDTH 464 0
DWIDTH 17 0
BBX 15 25 1 0
BITMAP
00064000
001FE000
003EF400
00B87C00
01E01E00
03800740
00000000
006FE400
02E9BE00
0B801F80
1F000BD0
3E0007F0
7D0003F0
BD0003F4
BFFFFFF4
BD555550
BD000000
BD000000
BE000000
7F400000
3FC00034
1FF401E0
0BFFFFC0
02FFFF40
006FE800
ENDCHAR
STARTCHAR edieresis
ENCODING 235
SWIDTH 464 0
DWIDTH 17 0
BBX 15 25 1 0
BITMAP
0B800B80
0FE01FE0
0FE01FE0
0B800B80
00000000
00000000
00000000
006FE400
02E9BE00
0B801F80
1F000BD0
3E0007F0
7D0003F0
BD0003F4
BFFFFFF4
BD555550
BD000000
BD000000
BE000000
7F400000
3FC00034
1FF401E0
0BFFFFC0
02FFFF40
006FE800
ENDCHAR
STARTCHAR igrave
ENCODING 236
SWIDTH 285 0
DWIDTH 10 0
BBX 10 25 0 0
BITMAP
690000
7F4000
1F8000
07D000
01E000
007400
000000
05B800
2FF800
02F800
01F800
01F800
01F800
01F800
01F800
01F800
01F800
01F800
01F800
01F800
01F800
01F800
01F800
1BFE40
3FFFD0
ENDCHAR
STARTCHAR iacute
ENCODING 237
SWIDTH 285 0
DWIDTH 10 0
BBX 9 25 1 0
BITMAP
006900
01FD00
03F400
07D000
0B4000
1D0000
000000
16E000
BFE000
0BE000
07E000
07E000
07E000
07E000
07E000
07E000
07E000
07E000
07E000
07E000
07E000
07E000
07E000
6FF900
FFFF40
ENDCHAR
STARTCHAR icircumflex
ENCODING 238
SWIDTH 285 0
DWIDTH 10 0
BBX 10 25 0 0
BITMAP
03F000
0BF800
1F7D00
3C0F00
B40780
500140
000000
05B800
2FF800
02F800
01F800
01F800
01F800
01F800
01F800
01F800
01F800
01F800
01F800
01F800
01F800
01F800
01F800
1BFE40
3FFFD0
ENDCHAR
STARTCHAR idieresis
ENCODING 239
SWIDTH 285 0
DWIDTH 10 0
BBX 11 24 -1 0
BITMAP
7D01F4
FF03FC
FF03FC
7D01F4
000000
000000
016E00
0BFE00
00BE00
007E00
007E00
007E00
007E00
007E00
007E00
007E00
007E00
007E00
007E00
007E00
007E00
007E00
06FF90
0FFFF4
ENDCHAR
STARTCHAR eth
ENCODING 240
SWIDTH 532 0
DWIDTH 19 0
BBX 17 27 1 0
BITMAP
06FFE00100
0656FD1B00
00007FF800
00002FD000
0001FBE000
000F82F400
000401F800
000000FD00
000000BD00
006FE87E00
01F96F7F00
0BD002FF00
1F8000FF40
3F0000BF40
7F00007F40
BE00003F40
BE00003F40
BE00003F40
BE00003F40
BE00007F00
BE00007E00
7F0000BD00
3F4000BC00
1F8001F800
0BE003E000
02FA6F8000
006FF90000
ENDCHAR
STARTCHAR ntilde
ENCODING 241
SWIDTH 576 0
DWIDTH 21 0
BBX 19 24 1 0
BITMAP
000BE00600
002FFD5D00
0075BFFC00
00900BE000
0000000000
0000000000
16E02FE000
BFE1FFFC00
1BEB56FE00
07F8007F00
07E0003F00
07E0002F40
07E0002F40
07E0002F40
07E0002F40
07E0002F40
07E0002F40
07E0002F40
07E0002F40
07E0002F40
07E0002F40
07E0002F40
6FF901BFE4
FFFF47FFFC
ENDCHAR
STARTCHAR ograve
ENCODING 242
SWIDTH 514 0
DWIDTH 19 0
BBX 17 25 1 0
BITMAP
0069000000
007F400000
001F800000
0007D00000
0001E00000
0000B00000
0000000000
002BF90000
01F96FD000
0BD003F400
1F8001FC00
3F0000BD00
7F00007F00
BE00007F00
BE00003F40
BE00003F40
BE00003F40
BE00003F00
BE00007F00
7F00007E00
3F4000BD00
1F8000F800
0BE002F000
02FE6FC000
006BF90000
ENDCHAR
STARTCHAR oacute
ENCODING 243
SWIDTH 514 0
DWIDTH 19 0
BBX 17 25 1 0
BITMAP
00002A0000
00007F0000
0000FD0000
0001F40000
0003D00000
0007400000
0000000000
002BF90000
01F96FD000
0BD003F400
1F8001FC00
3F0000BD00
7F00007F00
BE00007F00
BE00003F40
BE00003F40
BE00003F40
BE00003F00
BE00007F00
7F00007E00
3F4000BD00
1F8000F800
0BE002F000
02FE6FC000
006BF90000
ENDCHAR
STARTCHAR ocircumflex
ENCODING 244
SWIDTH 514 0
DWIDTH 19 0
BBX 17 25 1 0
BITMAP
0001900000
000BF40000
001FBC0000
003D2E0000
00B40B4000
01D001C000
0000000000
002BF90000
01F96FD000
0BD003F400
1F8001FC00
3F0000BD00
7F00007F00
BE00007F00
BE00003F40
BE00003F40
BE00003F40
BE00003F00
BE00007F00
7F00007E00
3F4000BD00
1F8000F800
0BE002F000
02FE6FC000
006BF90000
ENDCHAR
STARTCHAR otilde
ENCODING 245
SWIDTH 514 0
DWIDTH 19 0
BBX 17 24 1 0
BITMAP
007E402400
01FFE5B000
0296FFD000
03006F4000
0000000000
0000000000
002BF90000
01F96FD000
0BD003F400
1F8001FC00
3F0000BD00
7F00007F00
BE00007F00
BE00003F40
BE00003F40
BE00003F40
BE00003F00
BE00007F00
7F00007E00
3F4000BD00
1F8000F800
0BE002F000
02FE6FC000
006BF90000
ENDCHAR
STARTCHAR odieresis
ENCODING 246
SWIDTH 514 0
DWIDTH 19 0
BBX 17 25 1 0
BITMAP
02E002E000
07F40BF400
07F40BF400
02E002E000
0000000000
0000000000
0000000000
002BF90000
01F96FD000
0BD003F400
1F8001FC00
3F0000BD00
7F00007F00
BE00007F00
BE00003F40
BE00003F40
BE00003F40
BE00003F00
BE00007F00
7F00007E00
3F4000BD00
1F8000F800
0BE002F000
02FE6FC000
006BF90000
ENDCHAR
STARTCHAR divide
ENCODING 247
SWIDTH 720 0
DWIDTH 26 0
BBX 22 20 2 0
BITMAP
00001F400000
00003FC00000
00003FC00000
00001F400000
000000000000
000000000000
000000000000
000000000000
000000000000
BFFFFFFFFFE0
BFFFFFFFFFE0
BFFFFFFFFFE0
000000000000
000000000000
000000000000
000000000000
00001F400000
00003FC00000
00003FC00000
00001F400000
ENDCHAR
STARTCHAR oslash
ENCODING 248
SWIDTH 514 0
DWIDTH 19 0
BBX 17 18 1 0
BITMAP
002BF92800
01F96FF400
0BD007F000
1F8003F800
3F400BFD00
7F001D7E00
BE00747F00
BE00E03F40
BE02C03F40
BE0B003F40
BE1D003F40
BE38003F00
7FA0007E00
3FC000BD00
1F8000F800
1FE002F400
3AFE6FC000
706FF90000
ENDCHAR
STARTCHAR ugrave
ENCODING 249
SWIDTH 570 0
DWIDTH 21 0
BBX 19 25 1 0
BITMAP
001A400000
002F800000
000BD00000
0002E00000
0000F00000
0000380000
0000000000
ABD006AF00
BFD00AFF00
0FD0007F00
0BD0003F00
0BD0003F00
0BD0003F00
0BD0003F00
0BD0003F00
0BD0003F00
0BD0003F00
0BD0003F00
0BD0003F00
0BD0003F00
0BE0003F00
07F001FF00
03FD5B7F40
01FFFD3FF4
006F903E90
ENDCHAR
STARTCHAR uacute
ENCODING 250
SWIDTH 570 0
DWIDTH 21 0
BBX 19 25 1 0
BITMAP
00001A4000
00003F8000
00007E0000
0000F80000
0001E00000
0002800000
0000000000
ABD006AF00
BFD00AFF00
0FD0007F00
0BD0003F00
0BD0003F00
0BD0003F00
0BD0003F00
0BD0003F00
0BD0003F00
0BD0003F00
0BD0003F00
0BD0003F00
0BD0003F00
0BE0003F00
07F001FF00
03FD5B7F40
01FFFD3FF4
006F903E90
ENDCHAR
STARTCHAR ucircumflex
ENCODING 251
SWIDTH 570 0
DWIDTH 21 0
BBX 19 25 1 0
BITMAP
0001A00000
0003F80000
000BFE0000
001E0F4000
003803C000
00A000A000
0000000000
ABD006AF00
BFD00AFF00
0FD0007F00
0BD0003F00
0BD0003F00
0BD0003F00
0BD0003F00
0BD0003F00
0BD0003F00
0BD0003F00
0BD0003F00
0BD0003F00
0BD0003F00
0BE0003F00
07F001FF00
03FD5B7F40
01FFFD3FF4
006F903E90
ENDCHAR
STARTCHAR udieresis
ENCODING 252
SWIDTH 570 0
DWIDTH 21 0
BBX 19 25 1 0
BITMAP
01F401F400
03FC03F800
03FC03F800
01F401F400
0000000000
0000000000
0000000000
ABD006AF00
BFD00AFF00
0FD0007F00
0BD0003F00
0BD0003F00
0BD0003F00
0BD0003F00
0BD0003F00
0BD0003F00
0BD0003F00
0BD0003F00
0BD0003F00
0BD0003F00
0BE0003F00
07F001FF00
03FD5B7F40
01FFFD3FF4
006F903E90
ENDCHAR
STARTCHAR yacute
ENCODING 253
SWIDTH 483 0
DWIDTH 17 0
BBX 19 34 -1 -9
BITMAP
000002A000
000007F000
00000FD000
00001F4000
00003D0000
0000740000
0000000000
7FFF407FF8
6FF9001FE4
07F4000780
03F8000B40
01FC000F00
00FD001E00
00BF002C00
003F403800
002F807400
001FD0B000
000BE0E000
0007F1D000
0003F6C000
0001FB8000
0000FF4000
0000BE0000
00003D0000
00003C0000
0000780000
0000B40000
0000F00000
0002D00000
0507C00000
2FEF400000
2FFE000000
1FF8000000
0540000000
ENDCHAR
STARTCHAR thorn
ENCODING 254
SWIDTH 524 0
DWIDTH 19 0
BBX 18 35 0 -8
BITMAP
0050000000
1BF0000000
BFF0000000
07F0000000
03F0000000
03F0000000
03F0000000
03F0000000
03F0000000
03F02FE000
03F1FFFD00
03F3FFFF00
03FE00BF80
03F4002FC0
03F0001FD0
03F0000FD0
03F0000BE0
03F0000BE0
03F0000BE0
03F0000BD0
03F0000BD0
03F0000FC0
03F0001F40
03F4002F00
03FD00BD00
03FF96F400
03F6FE4000
03F0000000
03F0000000
03F0000000
03F0000000
07F0000000
07F4000000
6FFE400000
BFFFD00000
ENDCHAR
STARTCHAR ydieresis
ENCODING 255
SWIDTH 483 0
DWIDTH 17 0
BBX 19 34 -1 -9
BITMAP
002E002E00
007F40BF40
007F40BF40
002E002E00
0000000000
0000000000
0000000000
7FFF407FF8
6FF9001FE4
07F4000780
03F8000B40
01FC000F00
00FD001E00
00BF002C00
003F403800
002F807400
001FD0B000
000BE0E000
0007F1D000
0003F6C000
0001FB8000
0000FF4000
0000BE0000
00003D0000
00003C0000
0000780000
0000B40000
0000F00000
0002D00000
0507C00000
2FEF400000
2FFE000000
1FF8000000
0540000000
ENDCHAR
STARTCHAR Amacron
ENCODING 256
SWIDTH 718 0
DWIDTH 26 0
BBX 26 29 0 0
BITMAP
0002FFFFF00000
00005555500000
00000000000000
00000000000000
00000000000000
000001E0000000
000002F0000000
000003F8000000
00000BFC000000
00000FFD000000
00001EBF000000
00002C7F400000
0000783F800000
0000B42FD00000
0000F00FE00000
0001E00BF00000
0003C007F80000
00078003FC0000
000B4002FD0000
001F0001FF0000
002FFFFFFF4000
003D5555BF8000
007800003FC000
00F400001FE000
01E000000FF000
02D000000BF800
07D000000BFD00
6FF500006FFF90
FFFE0000FFFFE0
ENDCHAR
STARTCHAR amacron
ENCODING 257
SWIDTH 480 0
DWIDTH 17 0
BBX 16 23 1 0
BITMAP
0FFFFF80
0FFFFF80
00000000
00000000
00000000
00AFE400
07E6FE00
1F403F40
2F401F80
3F001F80
1E001F80
00000F80
00006F80
001BEF80
01F90F80
0BD00F80
2F400F80
7E000F80
BE000F80
BE001FC0
7F006FD6
2FE68BFD
0BF907E4
ENDCHAR
STARTCHAR Abreve
ENCODING 258
SWIDTH 718 0
DWIDTH 26 0
BBX 26 32 0 0
BITMAP
00014000100000
00018000700000
0001D000E00000
0000F957D00000
00007FFF800000
00000BF9000000
00000000000000
00000000000000
000001E0000000
000002F0000000
000003F8000000
00000BFC000000
00000FFD000000
00001EBF000000
00002C7F400000
0000783F800000
0000B42FD00000
0000F00FE00000
0001E00BF00000
0003C007F80000
00078003FC0000
000B4002FD0000
001F0001FF0000
002FFFFFFF4000
003D5555BF8000
007800003FC000
00F400001FE000
01E000000FF000
02D000000BF800
07D000000BFD00
6FF500006FFF90
FFFE0000FFFFE0
ENDCHAR
STARTCHAR abreve
ENCODING 259
SWIDTH 480 0
DWIDTH 17 0
BBX 16 26 1 0
BITMAP
04000140
0D000340
0B000700
07D56E00
02FFFD00
006FE000
00000000
00000000
00AFE400
07E6FE00
1F403F40
2F401F80
3F001F80
1E001F80
00000F80
00006F80
001BEF80
01F90F80
0BD00F80
2F400F80
7E000F80
BE000F80
BE001FC0
7F006FD6
2FE68BFD
0BF907E4
ENDCHAR
STARTCHAR Aogonek
ENCODING 260
SWIDTH 719 0
DWIDTH 26 0
BBX 26 32 0 -8
BITMAP
000001E0000000
000002F0000000
000003F8000000
000007FC000000
00000FFD000000
00001EBF000000
00002D7F400000
0000783F800000
0000B41FD00000
0000F00FE00000
0001E00BF00000
0003D007F80000
00078003FC0000
000B4002FD0000
000F0001FF0000
002FFFFFFF4000
003D5555BF8000
007800003FD000
00F400002FE000
01F000000FF000
02D000000BF800
07D000000BFD00
6FF500000BFF90
FFFE00007FFFE0
00000007D00000
0000001F000000
0000003D000000
0000007C000000
0000007C000000
0000007D010000
0000003F5A0000
0000001BE40000
ENDCHAR
STARTCHAR aogonek
ENCODING 261
SWIDTH 480 0
DWIDTH 17 0
BBX 16 26 1 -8
BITMAP
00AFE400
07E6FE00
1F403F40
2F401F80
3F401F80
2F001F80
00000F80
00001F80
0006FF80
01BE5F80
0BD00F80
2F400F80
7E000F80
BE000F80
BE000FC0
7F002FC1
2FE68BEA
0BF906FC
000002E0
00000B40
00002E00
00003D00
00007C00
00007D01
00003F5A
00001BE4
ENDCHAR
STARTCHAR Cacute
ENCODING 262
SWIDTH 670 0
DWIDTH 24 0
BBX 22 31 1 0
BITMAP
0000007F4000
000001FE0000
000003F40000
00000B800000
00001D000000
000000000000
000000000000
00006FFE42C0
000BFA5BFFC0
007F8000BFC0
01FD00002FC0
03F400000BC0
0BE0000007C0
0FD0000003C0
2FC0000002C0
2FC0000001C0
3F8000000000
3F8000000000
7F8000000000
7F8000000000
3F8000000000
3F8000000000
2FC000000000
2FD000000000
1FE000000000
0BF400000000
07FC000001D0
01FF40000B80
007FF955BE00
001BFFFFF400
0001AFFA4000
ENDCHAR
STARTCHAR cacute
ENCODING 263
SWIDTH 446 0
DWIDTH 16 0
BBX 14 25 1 0
BITMAP
00006900
0001FD00
0002F400
0003D000
000B8000
000E0000
00000000
002BF900
02F9BF80
0B801FD0
1F000BE0
3E0007E0
7D000140
7C000000
BC000000
BC000000
BC000000
BD000000
BE000000
7F000010
3F800070
2FE406D0
0FFFFF80
02FFFE00
006FE400
ENDCHAR
STARTCHAR Ccircumflex
ENCODING 264
SWIDTH 670 0
DWIDTH 24 0
BBX 22 31 1 0
BITMAP
000003F40000
00000FFC0000
00002F6F0000
0000B80B8000
0001D001D000
000000000000
000000000000
00006FFE42C0
000BFA5BFFC0
007F8000BFC0
01FD00002FC0
03F400000BC0
0BE0000007C0
0FD0000003C0
2FC0000002C0
2FC0000001C0
3F8000000000
3F8000000000
7F8000000000
7F8000000000
3F8000000000
3F8000000000
2FC000000000
2FD000000000
1FE000000000
0BF400000000
07FC000001D0
01FF40000B80
007FF955BE00
001BFFFFF400
0001AFFA4000
ENDCHAR
STARTCHAR ccircumflex
ENCODING 265
SWIDTH 446 0
DWIDTH 16 0
BBX 14 25 1 0
BITMAP
00064000
001FE000
003EF400
00B87C00
01E01E00
03800740
00000000
002BF900
02F9BF80
0B801FD0
1F000BE0
3E0007E0
7D000140
7C000000
BC000000
BC000000
BC000000
BD000000
BE000000
7F000010
3F800070
2FE406D0
0FFFFF80
02FFFE00
006FE400
ENDCHAR
STARTCHAR Cdotaccent
ENCODING 266
SWIDTH 670 0
DWIDTH 24 0
BBX 22 30 1 0
BITMAP
000002E00000
000007F80000
000007F80000
000002E00000
000000000000
000000000000
00006FFE42C0
000BFA5BFFC0
007F8000BFC0
01FD00002FC0
03F400000BC0
0BE0000007C0
0FD0000003C0
2FC0000002C0
2FC0000001C0
3F8000000000
3F8000000000
7F8000000000
7F8000000000
3F8000000000
3F8000000000
2FC000000000
2FD000000000
1FE000000000
0BF400000000
07FC000001D0
01FF40000B80
007FF955BE00
001BFFFFF400
0001AFFA4000
ENDCHAR
STARTCHAR cdotaccent
ENCODING 267
SWIDTH 446 0
DWIDTH 16 0
BBX 14 25 1 0
BITMAP
000B8000
001FE000
001FE000
000B8000
00000000
00000000
00000000
002BF900
02F9BF80
0B801FD0
1F000BE0
3E0007E0
7D000140
7C000000
BC000000
BC000000
BC000000
BD000000
BE000000
7F000010
3F800070
2FE406D0
0FFFFF80
02FFFE00
006FE400
ENDCHAR
STARTCHAR Ccaron
ENCODING 268
SWIDTH 670 0
DWIDTH 24 0
BBX 22 31 1 0
BITMAP
0001D001D000
0000B80B8000
00002F6E0000
00000FFC0000
000003F40000
000000000000
000000000000
00006FFE42C0
000BFA5BFFC0
007F8000BFC0
01FD00002FC0
03F400000BC0
0BE0000007C0
0FD0000003C0
2FC0000002C0
2FC0000001C0
3F8000000000
3F8000000000
7F8000000000
7F8000000000
3F8000000000
3F8000000000
2FC000000000
2FD000000000
1FE000000000
0BF400000000
07FC000001D0
01FF40000B80
007FF955BE00
001BFFFFF400
0001AFFA4000
ENDCHAR
STARTCHAR ccaron
ENCODING 269
SWIDTH 446 0
DWIDTH 16 0
BBX 14 25 1 0
BITMAP
02000140
02C00B00
00F42D00
007DB800
002FF000
000FD000
00000000
002BF900
02F9BF80
0B801FD0
1F000BE0
3E0007E0
7D000140
7C000000
BC000000
BC000000
BC000000
BD000000
BE000000
7F000010
3F800070
2FE406D0
0FFFFF80
02FFFE00
006FE400
ENDCHAR
STARTCHAR Dcaron
ENCODING 270
SWIDTH 730 0
DWIDTH 26 0
BBX 24 31 1 0
BITMAP
000B40074000
0002E02D0000
0000F9F80000
00007FE00000
00001FC00000
000000000000
000000000000
BFFFFFE90000
17FEAAFFE000
01FC001BFD00
01FC0000BF80
01FC00002FD0
01FC00000FF0
01FC000007F8
01FC000003FC
01FC000002FC
01FC000002FD
01FC000001FD
01FC000001FD
01FC000001FD
01FC000001FD
01FC000001FD
01FC000002FC
01FC000002FC
01FC000003F4
01FC00000BF0
01FC00001FD0
01FC00007F80
01FC0006FD00
17FE56BFE000
BFFFFFE90000
ENDCHAR
STARTCHAR dcaron
ENCODING 271
SWIDTH 626 0
DWIDTH 23 0
BBX 21 27 1 0
BITMAP
000000140000
000006FC1F80
00002FFC1F80
000001FC1F40
000000FC1F40
000000FC1F00
000000FC1D00
000000FC2C00
000000FC0400
001BF9FC0000
01FA6FFC0000
07D003FC0000
0F4001FC0000
2F0000FC0000
3E0000FC0000
7D0000FC0000
BD0000FC0000
BD0000FC0000
BD0000FC0000
BD0000FC0000
BE0000FC0000
7F0000FC0000
7F8000FC0000
2FE007FC0000
1FFFFEFD0000
07FFF4FFE000
01BF80F94000
ENDCHAR
STARTCHAR Dcroat
ENCODING 272
SWIDTH 733 0
DWIDTH 26 0
BBX 24 24 1 0
BITMAP
BFFFFFE90000
17FEAAFFE000
01FC001BFD00
01FC0000BF40
01FC00002FD0
01FC00000FF0
01FC00000BF8
01FC000007FC
01FC000003FC
01FC000002FD
01FD000002FD
BFFFFFD002FD
55FD554001FD
01FC000002FD
01FC000002FD
01FC000002FC
01FC000003FC
01FC000007F8
01FC00000BF0
01FC00001FD0
01FC00007F80
01FC0006FD00
17FE56BFE000
BFFFFFE90000
ENDCHAR
STARTCHAR dcroat
ENCODING 273
SWIDTH 540 0
DWIDTH 19 0
BBX 18 27 1 0
BITMAP
0000001400
000006FC00
00002FFC00
000001FC00
000001FC00
0007FFFFD0
000155FD40
000000FC00
000000FC00
001BF9FC00
01F96FFC00
07D003FC00
0F4001FC00
2F0000FC00
3E0000FC00
7D0000FC00
BD0000FC00
BD0000FC00
BD0000FC00
BD0000FC00
BE0000FC00
7F0000FC00
7F8000FC00
2FE007FC00
1FFFFEFD00
07FFF4FFE0
01BF80F940
ENDCHAR
STARTCHAR Emacron
ENCODING 274
SWIDTH 626 0
DWIDTH 23 0
BBX 21 29 1 0
BITMAP
002FFFFE0000
001555550000
000000000000
000000000000
000000000000
BFFFFFFFFD00
07FEAAABFD00
01FC00007D00
01FC00001D00
01FC00000D00
01FC00000900
01FC00000000
01FC00028000
01FC00028000
01FC00038000
01FD005B8000
01FFFFFF8000
01FD555F8000
01FC00038000
01FC00028000
01FC00028000
01FC00000000
01FC00000140
01FC00000340
01FC00000740
01FC00000F00
01FC00006F00
07FEAAABFE00
BFFFFFFFFE00
ENDCHAR
STARTCHAR emacron
ENCODING 275
SWIDTH 464 0
DWIDTH 17 0
BBX 15 23 1 0
BITMAP
0BFFFFC0
0BFFFFC0
00000000
00000000
00000000
006FE400
02E9BE00
0B801F80
1F000BD0
3E0007F0
7D0003F0
BD0003F4
BFFFFFF4
BD555550
BD000000
BD000000
BE000000
7F400000
3FC00034
1FF401E0
0BFFFFC0
02FFFF40
006FE800
ENDCHAR
STARTCHAR Ebreve
ENCODING 276
SWIDTH 626 0
DWIDTH 23 0
BBX 21 32 1 0
BITMAP
001400010000
0028000A0000
002C001D0000
000F95BC0000
0007FFF40000
0001BF900000
000000000000
000000000000
BFFFFFFFFD00
07FEAAABFD00
01FC00007D00
01FC00001D00
01FC00000D00
01FC00000900
01FC00000000
01FC00028000
01FC00028000
01FC00038000
01FD005B8000
01FFFFFF8000
01FD555F8000
01FC00038000
01FC00028000
01FC00028000
01FC00000000
01FC00000140
01FC00000340
01FC00000740
01FC00000F00
01FC00006F00
07FEAAABFE00
BFFFFFFFFE00
ENDCHAR
STARTCHAR ebreve
ENCODING 277
SWIDTH 464 0
DWIDTH 17 0
BBX 15 26 1 0
BITMAP
05000040
06000180
07400380
03E55F40
01FFFE00
006FE400
00000000
00000000
006FE400
02E9BE00
0B801F80
1F000BD0
3E0007F0
7D0003F0
BD0003F4
BFFFFFF4
BD555550
BD000000
BD000000
BE000000
7F400000
3FC00034
1FF401E0
0BFFFFC0
02FFFF40
006FE800
ENDCHAR
STARTCHAR Edotaccent
ENCODING 278
SWIDTH 626 0
DWIDTH 23 0
BBX 21 30 1 0
BITMAP
00002E000000
00007F400000
00007F400000
00002E000000
000000000000
000000000000
BFFFFFFFFD00
07FEAAABFD00
01FC00007D00
01FC00001D00
01FC00000D00
01FC00000900
01FC00000000
01FC00028000
01FC00028000
01FC00038000
01FD005B8000
01FFFFFF8000
01FD555F8000
01FC00038000
01FC00028000
01FC00028000
01FC00000000
01FC00000140
01FC00000340
01FC00000740
01FC00000F00
01FC00006F00
07FEAAABFE00
BFFFFFFFFE00
ENDCHAR
STARTCHAR edotaccent
ENCODING 279
SWIDTH 464 0
DWIDTH 17 0
BBX 15 25 1 0
BITMAP
000B8000
001FE000
001FE000
000B8000
00000000
00000000
00000000
006FE400
02E9BE00
0B801F80
1F000BD0
3E0007F0
7D0003F0
BD0003F4
BFFFFFF4
BD555550
BD000000
BD000000
BE000000
7F400000
3FC00034
1FF401E0
0BFFFFC0
02FFFF40
006FE800
ENDCHAR
STARTCHAR Eogonek
ENCODING 280
SWIDTH 625 0
DWIDTH 23 0
BBX 21 32 1 -8
BITMAP
BFFFFFFFFD00
03FD555AFD00
01FC00003D00
01FC00001D00
01FC00000D00
01FC00000900
01FC00000000
01FC00024000
01FC00024000
01FC00034000
01FC005F4000
01FFFFFF4000
01FD556F4000
01FC00034000
01FC00024000
01FC00024000
01FC00000000
01FC00000240
01FC00000340
01FC00000B00
01FC00000F00
01FC00002F00
02FD555AFE00
BFFFFFFFFE00
00000001D000
0000000B4000
0000001E0000
0000003D0000
0000007C0000
0000007D0100
0000003F5A00
0000000BE400
ENDCHAR
STARTCHAR eogonek
ENCODING 281
SWIDTH 464 0
DWIDTH 17 0
BBX 15 26 1 -8
BITMAP
006FE400
02E9BE00
0B801F80
1F000BD0
3E0007F0
7D0003F0
BD0003F4
BFFFFFF4
BD555550
BD000000
BD000000
BE000000
7F400000
3FC00034
1FF401F0
0BFFFFD0
02FFFF40
006FFD00
0001E000
00038000
000F4000
001E0000
002E0000
002F0040
001F9B40
0007F800
ENDCHAR
STARTCHAR Ecaron
ENCODING 282
SWIDTH 626 0
DWIDTH 23 0
BBX 21 31 1 0
BITMAP
001D001D0000
000B80B80000
0002E6E00000
0000FFC00000
00007F400000
000000000000
000000000000
BFFFFFFFFD00
07FEAAABFD00
01FC00007D00
01FC00001D00
01FC00000D00
01FC00000900
01FC00000000
01FC00028000
01FC00028000
01FC00038000
01FD005B8000
01FFFFFF8000
01FD555F8000
01FC00038000
01FC00028000
01FC00028000
01FC00000000
01FC00000140
01FC00000340
01FC00000740
01FC00000F00
01FC00006F00
07FEAAABFE00
BFFFFFFFFE00
ENDCHAR
STARTCHAR ecaron
ENCODING 283
SWIDTH 464 0
DWIDTH 17 0
BBX 15 25 1 0
BITMAP
02000140
02C00B00
00F42D00
007DB800
002FF000
000BD000
00000000
006FE400
02E9BE00
0B801F80
1F000BD0
3E0007F0
7D0003F0
BD0003F4
BFFFFFF4
BD555550
BD000000
BD000000
BE000000
7F400000
3FC00034
1FF401E0
0BFFFFC0
02FFFF40
006FE800
ENDCHAR
STARTCHAR Gcircumflex
ENCODING 284
SWIDTH 720 0
DWIDTH 26 0
BBX 24 31 1 0
BITMAP
000007F40000
00000FFC0000
00002E6E0000
0000B80B8000
0001D001D000
000000000000
000000000000
00006FFE41C0
000BFA5BFFC0
007F8000BFC0
01FD00001FC0
03F400000BC0
0BF0000007C0
0FD0000003C0
2FC0000002C0
2FC0000001C0
3F8000000000
3F8000000000
7F8000000000
7F800007FFFE
3F8000017FF5
3F8000001FD0
3FC000000FD0
2FC000000FD0
1FD000000FD0
0FF000000FD0
07F800000FD0
02FD00000FD0
00BF80007FD0
001BFA5BFE00
0001AFFE9000
ENDCHAR
STARTCHAR gcircumflex
ENCODING 285
SWIDTH 484 0
DWIDTH 17 0
BBX 17 34 0 -9
BITMAP
0001900000
0007F80000
000FBD0000
002E1F0000
0078078000
00E001D000
0000000000
001BFFFFC0
01FD6FE540
03F007F000
0BD003F800
0FC002F800
0FC001FC00
0FC001FC00
0FC001F800
0BD002F400
03E003F000
00B91BD000
01FFFE0000
03C1500000
0B80000000
1F80000000
1FFFEA9000
0BFFFFFE00
02FFFFFF40
0340006F80
0B00000780
2E00000380
3E00000740
7F00000B00
3F80006D00
2FFEABF400
07FFFE4000
0055500000
ENDCHAR
STARTCHAR Gbreve
ENCODING 286
SWIDTH 720 0
DWIDTH 26 0
BBX 24 32 1 0
BITMAP
000140001000
00028000A000
0001C001D000
0000F957C000
00007FFF4000
00001BF90000
000000000000
000000000000
00006FFE41C0
000BFA5BFFC0
007F8000BFC0
01FD00001FC0
03F400000BC0
0BF0000007C0
0FD0000003C0
2FC0000002C0
2FC0000001C0
3F8000000000
3F8000000000
7F8000000000
7F800007FFFE
3F8000017FF5
3F8000001FD0
3FC000000FD0
2FC000000FD0
1FD000000FD0
0FF000000FD0
07F800000FD0
02FD00000FD0
00BF80007FD0
001BFA5BFE00
0001AFFE9000
ENDCHAR
STARTCHAR gbreve
ENCODING 287
SWIDTH 484 0
DWIDTH 17 0
BBX 17 35 0 -9
BITMAP
0140001000
0180006000
01D000E000
00F957D000
007FFF8000
001BF90000
0000000000
0000000000
001BFFFFC0
01FD6FE540
03F007F000
0BD003F800
0FC002F800
0FC001FC00
0FC001FC00
0FC001F800
0BD002F400
03E003F000
00B91BD000
01FFFE0000
03C1500000
0B80000000
1F80000000
1FFFEA9000
0BFFFFFE00
02FFFFFF40
0340006F80
0B00000780
2E00000380
3E00000740
7F00000B00
3F80006D00
2FFEABF400
07FFFE4000
0055500000
ENDCHAR
STARTCHAR Gdotaccent
ENCODING 288
SWIDTH 720 0
DWIDTH 26 0
BBX 24 30 1 0
BITMAP
000002E00000
000007F40000
000007F40000
000002E00000
000000000000
000000000000
00006FFE41C0
000BFA5BFFC0
007F8000BFC0
01FD00001FC0
03F400000BC0
0BF0000007C0
0FD0000003C0
2FC0000002C0
2FC0000001C0
3F8000000000
3F8000000000
7F8000000000
7F800007FFFE
3F8000017FF5
3F8000001FD0
3FC000000FD0
2FC000000FD0
1FD000000FD0
0FF000000FD0
07F800000FD0
02FD00000FD0
00BF80007FD0
001BFA5BFE00
0001AFFE9000
ENDCHAR
STARTCHAR gdotaccent
ENCODING 289
SWIDTH 484 0
DWIDTH 17 0
BBX 17 34 0 -9
BITMAP
0002E00000
0007F80000
0007F80000
0002E00000
0000000000
0000000000
0000000000
001BFFFFC0
01FD6FE540
03F007F000
0BD003F800
0FC002F800
0FC001FC00
0FC001FC00
0FC001F800
0BD002F400
03E003F000
00B91BD000
01FFFE0000
03C1500000
0B80000000
1F80000000
1FFFEA9000
0BFFFFFE00
02FFFFFF40
0340006F80
0B00000780
2E00000380
3E00000740
7F00000B00
3F80006D00
2FFEABF400
07FFFE4000
0055500000
ENDCHAR
STARTCHAR Gcommaaccent
ENCODING 290
SWIDTH 720 0
DWIDTH 26 0
BBX 24 34 1 -10
BITMAP
00006FFE41C0
000BFA5BFFC0
007F8000BFC0
01FD00001FC0
03F400000BC0
0BF0000007C0
0FD0000003C0
2FC0000002C0
2FC0000001C0
3F8000000000
3F8000000000
7F8000000000
7F800007FFFE
3F8000017FF5
3F8000001FD0
3FC000000FD0
2FC000000FD0
1FD000000FD0
0FF000000FD0
07F800000FD0
02FD00000FD0
00BF80007FD0
001BFA5BFE00
0001AFFE9000
000000000000
000000000000
00000BD00000
00001FF00000
00001FF40000
00000BF40000
000000B40000
000000B00000
000002D00000
00000E000000
ENDCHAR
STARTCHAR gcommaaccent
ENCODING 291
SWIDTH 484 0
DWIDTH 17 0
BBX 17 36 0 -9
BITMAP
0000780000
0002D00000
0007400000
000B000000
000BF40000
000BFC0000
0007F80000
0002F40000
0000000000
001BFFFFC0
01FD6FE540
03F007F000
0BD003F800
0FC002F800
0FC001FC00
0FC001FC00
0FC001F800
0BD002F400
03E003F000
00B91BD000
01FFFE0000
03C1500000
0B80000000
1F80000000
1FFFEA9000
0BFFFFFE00
02FFFFFF40
0340006F80
0B00000780
2E00000380
3E00000740
7F00000B00
3F80006D00
2FFEABF400
07FFFE4000
0055500000
ENDCHAR
STARTCHAR Hcircumflex
ENCODING 292
SWIDTH 777 0
DWIDTH 28 0
BBX 26 31 1 0
BITMAP
000002F8000000
000007FE000000
00001F5F400000
00003D07D00000
0000A000B00000
00000000000000
00000000000000
BFFFF802FFFFE0
5BFF94016FFE50
02FD000007F800
01FD000007F400
01FC000003F400
01FC000003F400
01FC000003F400
01FC000003F400
01FC000003F400
01FC000003F400
01FD000007F400
01FFFFFFFFF400
01FD555557F400
01FC000003F400
01FC000003F400
01FC000003F400
01FC000003F400
01FC000003F400
01FC000003F400
01FC000003F400
01FD000007F400
02FD000007F400
5BFF94016FFE50
BFFFF802FFFFE0
ENDCHAR
STARTCHAR hcircumflex
ENCODING 293
SWIDTH 577 0
DWIDTH 21 0
BBX 20 32 0 0
BITMAP
0000FD0000
0002FF4000
000BDBC000
001E01E000
0078007800
0000000000
05B8000000
7FF8000000
02F8000000
01F8000000
01F8000000
01F8000000
01F8000000
01F8000000
01F81BF800
01F8BFFF00
01FAD57F80
01FE001FC0
01F8000FC0
01F8000BD0
01F8000BD0
01F8000BD0
01F8000BD0
01F8000BD0
01F8000BD0
01F8000BD0
01F8000BD0
01F8000BD0
01F8000BD0
02F8000BE0
1BFE406FF9
3FFFD1FFFF
ENDCHAR
STARTCHAR Hbar
ENCODING 294
SWIDTH 788 0
DWIDTH 28 0
BBX 26 24 1 0
BITMAP
BFFFF801FFFFF0
5BFF94016FFE90
01FE000007F800
00FD000003F400
00FD000003F400
00FD000003F400
BFFFFFFFFFFFF0
15FD555557F950
00FD000003F400
00FD000003F400
00FD000003F400
00FFFFFFFFF400
00FD555557F400
00FD000003F400
00FD000003F400
00FD000003F400
00FD000003F400
00FD000003F400
00FD000003F400
00FD000003F400
00FD000003F400
01FE000007F800
5BFF94016FFE50
BFFFF801FFFFF0
ENDCHAR
STARTCHAR hbar
ENCODING 295
SWIDTH 579 0
DWIDTH 21 0
BBX 19 26 1 0
BITMAP
16E0000000
FFE0000000
0BE0000000
07E0000000
07E0000000
FFFFFD0000
5BE5540000
07E0000000
07E06FE000
07E2FFFC00
07EB95FE00
07F8007F00
07E0003F40
07E0002F40
07E0002F40
07E0002F40
07E0002F40
07E0002F40
07E0002F40
07E0002F40
07E0002F40
07E0002F40
07E0002F40
07F0002F80
6FF901BFE4
FFFF47FFFC
ENDCHAR
STARTCHAR Itilde
ENCODING 296
SWIDTH 357 0
DWIDTH 13 0
BBX 12 31 1 0
BITMAP
1F9009
7FF95C
A5BFF8
C01BD0
000000
000000
000000
BFFFF8
5BFF94
02FD00
01FC00
01FC00
01FC00
01FC00
01FC00
01FC00
01FC00
01FC00
01FC00
01FC00
01FC00
01FC00
01FC00
01FC00
01FC00
01FC00
01FC00
01FC00
02FD00
5BFF94
BFFFF8
ENDCHAR
STARTCHAR itilde
ENCODING 297
SWIDTH 285 0
DWIDTH 10 0
BBX 11 24 -1 0
BITMAP
0BD01C
2FF828
35BFF4
601FD0
000000
000000
016E00
0BFE00
00BE00
007E00
007E00
007E00
007E00
007E00
007E00
007E00
007E00
007E00
007E00
007E00
007E00
007E00
06FF90
0FFFF4
ENDCHAR
STARTCHAR Imacron
ENCODING 298
SWIDTH 357 0
DWIDTH 13 0
BBX 11 29 1 0
BITMAP
FFFFF8
555554
000000
000000
000000
BFFFF8
5BFF94
02FD00
01FC00
01FC00
01FC00
01FC00
01FC00
01FC00
01FC00
01FC00
01FC00
01FC00
01FC00
01FC00
01FC00
01FC00
01FC00
01FC00
01FC00
01FC00
02FD00
5BFF94
BFFFF8
ENDCHAR
STARTCHAR imacron
ENCODING 299
SWIDTH 285 0
DWIDTH 10 0
BBX 10 23 0 0
BITMAP
FFFFD0
FFFFD0
000000
000000
000000
05B800
2FF800
02F800
01F800
01F800
01F800
01F800
01F800
01F800
01F800
01F800
01F800
01F800
01F800
01F800
01F800
1BFE40
3FFFD0
ENDCHAR
STARTCHAR Ibreve
ENCODING 300
SWIDTH 357 0
DWIDTH 13 0
BBX 11 32 1 0
BITMAP
400014
A00028
B00074
7D56F0
2FFFD0
06FE40
000000
000000
BFFFF8
5BFF94
02FD00
01FC00
01FC00
01FC00
01FC00
01FC00
01FC00
01FC00
01FC00
01FC00
01FC00
01FC00
01FC00
01FC00
01FC00
01FC00
01FC00
01FC00
01FC00
02FD00
5BFF94
BFFFF8
ENDCHAR
STARTCHAR ibreve
ENCODING 301
SWIDTH 285 0
DWIDTH 10 0
BBX 11 26 -1 0
BITMAP
700030
340070
3800A0
2E02D0
0FFF80
02FE00
000000
000000
016E00
0BFE00
00BE00
007E00
007E00
007E00
007E00
007E00
007E00
007E00
007E00
007E00
007E00
007E00
007E00
007E00
06FF90
0FFFF4
ENDCHAR
STARTCHAR Iogonek
ENCODING 302
SWIDTH 357 0
DWIDTH 13 0
BBX 11 32 1 -8
BITMAP
BFFFF8
5BFF94
02FD00
01FC00
01FC00
01FC00
01FC00
01FC00
01FC00
01FC00
01FC00
01FC00
01FC00
01FC00
01FC00
01FC00
01FC00
01FC00
01FC00
01FC00
01FC00
02FD00
5BFF94
BFFFF8
003800
00E000
03C000
0B8000
0F8000
0B8010
07E6D0
01FE00
ENDCHAR
STARTCHAR iogonek
ENCODING 303
SWIDTH 285 0
DWIDTH 10 0
BBX 9 34 1 -8
BITMAP
07E000
0BF000
0BF000
07E000
000000
000000
000000
000000
16E000
BFE000
0BE000
07E000
07E000
07E000
07E000
07E000
07E000
07E000
07E000
07E000
07E000
07E000
07E000
07E000
6FF900
FFFF40
02D000
0B4000
2D0000
3C0000
7C0000
7D0100
3F5A00
1BE400
ENDCHAR
STARTCHAR Idotaccent
ENCODING 304
SWIDTH 357 0
DWIDTH 13 0
BBX 11 30 1 0
BITMAP
00B800
01FD00
01FD00
00B800
000000
000000
BFFFF8
5BFF94
02FD00
01FC00
01FC00
01FC00
01FC00
01FC00
01FC00
01FC00
01FC00
01FC00
01FC00
01FC00
01FC00
01FC00
01FC00
01FC00
01FC00
01FC00
01FC00
02FD00
5BFF94
BFFFF8
ENDCHAR
STARTCHAR dotlessi
ENCODING 305
SWIDTH 285 0
DWIDTH 10 0
BBX 9 18 1 0
BITMAP
16E000
BFE000
0BE000
07E000
07E000
07E000
07E000
07E000
07E000
07E000
07E000
07E000
07E000
07E000
07E000
07E000
6FF900
FFFF40
ENDCHAR
STARTCHAR IJ
ENCODING 306
SWIDTH 753 0
DWIDTH 27 0
BBX 26 24 1 0
BITMAP
BFFFF802FFFFD0
5BFF94016FFE40
02FD00000BF400
01FC000007F000
01FC000007F000
01FC000007F000
01FC000007F000
01FC000007F000
01FC000007F000
01FC000007F000
01FC000007F000
01FC000007F000
01FC000007F000
01FC000007F000
01FC000007F000
01FC000007F000
01FC000007F000
01FC000007F000
01FC000007F000
01FC006407F000
01FC00FC07E000
02FD00FE0BD000
5BFF94BFAF8000
BFFFF81BF90000
ENDCHAR
STARTCHAR ij
ENCODING 307
SWIDTH 548 0
DWIDTH 20 0
BBX 17 33 1 -9
BITMAP
07E0006E00
0BF000BF40
0BF000BF40
07E0002E00
0000000000
0000000000
16E0016F00
BFE00BFF00
0BE000BF00
07E0007F00
07E0003F00
07E0003F00
07E0003F00
07E0003F00
07E0003F00
07E0003F00
07E0003F00
07E0003F00
07E0003F00
07E0003F00
07E0003F00
07E0003F00
6FF9003F00
FFFF403F00
0000003E00
0000003E00
0000003E00
0000007E00
0006407D00
000FD07800
000FF5F400
0007FFD000
0000550000
ENDCHAR
STARTCHAR Jcircumflex
ENCODING 308
SWIDTH 396 0
DWIDTH 14 0
BBX 14 31 0 0
BITMAP
0003F400
000FFC00
002F6E00
00B80B80
01D001D0
00000000
00000000
02FFFFE0
016FFE50
0007F800
0007F400
0003F400
0003F400
0003F400
0003F400
0003F400
0003F400
0003F400
0003F400
0003F400
0003F400
0003F400
0003F400
0003F400
0003F400
0003F400
6403F000
FD07F000
FF07E000
BF9F8000
1BF90000
ENDCHAR
STARTCHAR jcircumflex
ENCODING 309
SWIDTH 263 0
DWIDTH 9 0
BBX 14 34 -4 -9
BITMAP
00019000
0007F800
000FBD00
002E1F00
00780780
00D001D0
00000000
0006B800
003FF800
0002F800
0001F800
0001F800
0001F800
0001F800
0001F800
0001F800
0001F800
0001F800
0001F800
0001F800
0001F800
0001F800
0001F800
0001F800
0001F800
0001F800
0001F800
0001F400
0001F400
2802F000
7F02E000
7F97C000
2FFE0000
05540000
ENDCHAR
STARTCHAR Kcommaaccent
ENCODING 310
SWIDTH 702 0
DWIDTH 25 0
BBX 24 34 1 -10
BITMAP
BFFFF81FFFF8
5BFF9407FFA4
02FD0001FD00
01FC0002F400
01FC0007D000
01FC001F0000
01FC00780000
01FC01E00000
01FC07800000
01FC1E000000
01FC78000000
01FEF4000000
01FEFD000000
01FCBF400000
01FC2FE00000
01FC0BF80000
01FC02FE0000
01FC00BF8000
01FC002FE000
01FC000BF800
01FC0002FE00
02FD0001FF80
5BFF9406FFF9
BFFFF81FFFFF
000000000000
000000000000
00000B900000
00001FE00000
00001FF00000
00000BF00000
000000B00000
000000E00000
000002C00000
00001E000000
ENDCHAR
STARTCHAR kcommaaccent
ENCODING 311
SWIDTH 542 0
DWIDTH 20 0
BBX 19 36 1 -10
BITMAP
16E0000000
FFE0000000
0BE0000000
07E0000000
07E0000000
07E0000000
07E0000000
07E0000000
07E02FFFC0
07E01BFE40
07E003E000
07E00B8000
07E02D0000
07E0B40000
07E2D00000
07EB800000
07FFD00000
07EBF40000
07E2FD0000
07E0BF0000
07E03F8000
07E00FE000
07E007F800
0BE001FE00
6FF906FF94
FFFF4BFFF4
0000000000
0000000000
0002F40000
0007FC0000
0007FD0000
0002FD0000
00002C0000
0000380000
0000B00000
0003800000
ENDCHAR
STARTCHAR kgreenlandic
ENCODING 312
SWIDTH 542 0
DWIDTH 20 0
BBX 19 18 1 0
BITMAP
16E01FFFD0
FFE006FE80
0BE002F400
07E007C000
07E01E0000
07E0780000
07E1E00000
07E7800000
07FFD00000
07EBF00000
07E3FC0000
07E0FE0000
07E03F8000
07E01FE000
07E007F800
07F001FE00
6FF906FFE4
FFFF47FFF4
ENDCHAR
STARTCHAR Lacute
ENCODING 313
SWIDTH 585 0
DWIDTH 21 0
BBX 20 31 1 0
BITMAP
0007F80000
000FE00000
002F800000
007D000000
01E0000000
0000000000
0000000000
7FFFF80000
5BFF940000
02FE000000
01FD000000
01FC000000
01FC000000
01FC000000
01FC000000
01FC000000
01FC000000
01FC000000
01FC000000
01FC000000
01FC000000
01FC000000
01FC000000
01FC000000
01FC000009
01FC00001D
01FC00002C
01FC00003C
01FD0000F8
06FF956BF8
7FFFFFFFF4
ENDCHAR
STARTCHAR lacute
ENCODING 314
SWIDTH 283 0
DWIDTH 10 0
BBX 9 32 1 0
BITMAP
00BF40
01FE00
03F400
0B8000
2D0000
000000
16E000
FFE000
0BE000
07E000
07E000
07E000
07E000
07E000
07E000
07E000
07E000
07E000
07E000
07E000
07E000
07E000
07E000
07E000
07E000
07E000
07E000
07E000
07E000
0BE000
6FF900
FFFF40
ENDCHAR
STARTCHAR Lcommaaccent
ENCODING 315
SWIDTH 585 0
DWIDTH 21 0
BBX 20 34 1 -10
BITMAP
7FFFF80000
5BFF940000
02FE000000
01FD000000
01FC000000
01FC000000
01FC000000
01FC000000
01FC000000
01FC000000
01FC000000
01FC000000
01FC000000
01FC000000
01FC000000
01FC000000
01FC000000
01FC000009
01FC00001D
01FC00002C
01FC00003C
01FD0000F8
06FF956BF8
7FFFFFFFF4
0000000000
0000000000
0001B80000
0002FE0000
0002FF0000
0001FF0000
00000E0000
00001D0000
0000780000
0001D00000
ENDCHAR
STARTCHAR lcommaaccent
ENCODING 316
SWIDTH 283 0
DWIDTH 10 0
BBX 9 36 1 -10
BITMAP
16E000
FFE000
0BE000
07E000
07E000
07E000
07E000
07E000
07E000
07E000
07E000
07E000
07E000
07E000
07E000
07E000
07E000
07E000
07E000
07E000
07E000
07E000
07E000
0BE000
6FF900
FFFF40
000000
000000
07D000
0FF000
1FF400
0BF400
007400
00B000
02D000
0E4000
ENDCHAR
STARTCHAR Lcaron
ENCODING 317
SWIDTH 585 0
DWIDTH 21 0
BBX 20 24 1 0
BITMAP
7FFFF80BD0
5BFF940BD0
02FE000BC0
01FD000F80
01FC000F40
01FC000F00
01FC000D00
01FC000400
01FC000000
01FC000000
01FC000000
01FC000000
01FC000000
01FC000000
01FC000000
01FC000000
01FC000000
01FC000009
01FC00001D
01FC00002C
01FC00003C
01FD0000F8
06FF956BF8
7FFFFFFFF4
ENDCHAR
STARTCHAR lcaron
ENCODING 318
SWIDTH 366 0
DWIDTH 13 0
BBX 12 26 1 0
BITMAP
16E0BD
FFE0BD
0BE0BC
07E0BC
07E0B8
07E0B0
07E0E0
07E040
07E000
07E000
07E000
07E000
07E000
07E000
07E000
07E000
07E000
07E000
07E000
07E000
07E000
07E000
07E000
0BE000
6FF900
FFFF40
ENDCHAR
STARTCHAR Ldot
ENCODING 319
SWIDTH 605 0
DWIDTH 22 0
BBX 20 24 1 0
BITMAP
7FFFF80000
5BFF940000
02FE000000
01FD000000
01FC000000
01FC000000
01FC000000
01FC000000
01FC0002E0
01FC000BF4
01FC000BF4
01FC0002E0
01FC000000
01FC000000
01FC000000
01FC000000
01FC000000
01FC000009
01FC00001D
01FC00002C
01FC00003C
01FD0000F8
06FF956BF8
7FFFFFFFF4
ENDCHAR
STARTCHAR ldot
ENCODING 320
SWIDTH 357 0
DWIDTH 13 0
BBX 13 26 1 0
BITMAP
16E00000
FFE00000
0BE00000
07E00000
07E00000
07E00000
07E00000
07E00000
07E00000
07E00000
07E02E00
07E07F40
07E07F40
07E02E00
07E00000
07E00000
07E00000
07E00000
07E00000
07E00000
07E00000
07E00000
07E00000
0BE00000
6FF90000
FFFF4000
ENDCHAR
STARTCHAR Lslash
ENCODING 321
SWIDTH 590 0
DWIDTH 21 0
BBX 20 24 1 0
BITMAP
7FFFFC0000
1BFFA40000
01FE000000
00FD000000
00FD000000
00FD000000
00FD000000
00FD019000
00FD0B8000
00FD7D0000
00FFE00000
00FE400000
01FD000000
1BFD000000
B9FD000000
50FD000000
00FD000000
00FD00000A
00FD00000D
00FD00001D
00FD00003C
01FD0000BC
02FF956BF8
7FFFFFFFF8
ENDCHAR
STARTCHAR lslash
ENCODING 322
SWIDTH 290 0
DWIDTH 10 0
BBX 10 26 0 0
BITMAP
05B800
2FF800
02F800
01F800
01F800
01F800
01F800
01F800
01F850
01FAE0
01FF40
01FD00
02F800
1FF800
7DF800
61F800
01F800
01F800
01F800
01F800
01F800
01F800
01F800
01FC00
1BFE50
2FFFE0
ENDCHAR
STARTCHAR Nacute
ENCODING 323
SWIDTH 742 0
DWIDTH 27 0
BBX 25 31 1 0
BITMAP
0000007F800000
000001FE000000
000003F4000000
00000B80000000
00001E00000000
00000000000000
00000000000000
FFF80000BFFF80
6FFD00006FFE40
07FF000003F000
02FF800002E000
02FFE00001E000
02DFF40001D000
02D7FC0001D000
02D2FE0001D000
02D0FF8001D000
02D03FD001D000
02D01FF401D000
02D00BFC01D000
02D002FE01D000
02D000FF41D000
02D0007FD1D000
02D0001FF1D000
02D0000BF9D000
02D00002FED000
02D00000FFD000
02D000007FD000
02D000001FD000
03E000000BD000
6FF9400003D000
FFFF400000D000
ENDCHAR
STARTCHAR nacute
ENCODING 324
SWIDTH 576 0
DWIDTH 21 0
BBX 19 25 1 0
BITMAP
0000069000
00000FD000
00002F8000
00003E0000
0000780000
0000E00000
0000000000
16E02FE000
BFE1FFFC00
1BEB56FE00
07F8007F00
07E0003F00
07E0002F40
07E0002F40
07E0002F40
07E0002F40
07E0002F40
07E0002F40
07E0002F40
07E0002F40
07E0002F40
07E0002F40
07E0002F40
6FF901BFE4
FFFF47FFFC
ENDCHAR
STARTCHAR Ncommaaccent
ENCODING 325
SWIDTH 742 0
DWIDTH 27 0
BBX 25 34 1 -10
BITMAP
FFF80000BFFF80
6FFD00006FFE40
07FF000003F000
02FF800002E000
02FFE00001E000
02DFF40001D000
02D7FC0001D000
02D2FE0001D000
02D0FF8001D000
02D03FD001D000
02D01FF401D000
02D00BFC01D000
02D002FE01D000
02D000FF41D000
02D0007FD1D000
02D0001FF1D000
02D0000BF9D000
02D00002FED000
02D00000FFD000
02D000007FD000
02D000001FD000
03E000000BD000
6FF9400003D000
FFFF400000D000
00000000000000
00000000000000
00000BD0000000
00001FF0000000
00001FF4000000
00000BF4000000
000000B4000000
000000B0000000
000002D0000000
00000E00000000
ENDCHAR
STARTCHAR ncommaaccent
ENCODING 326
SWIDTH 576 0
DWIDTH 21 0
BBX 19 28 1 -10
BITMAP
16E02FE000
BFE1FFFC00
1BEB56FE00
07F8007F00
07E0003F00
07E0002F40
07E0002F40
07E0002F40
07E0002F40
07E0002F40
07E0002F40
07E0002F40
07E0002F40
07E0002F40
07E0002F40
07E0002F40
6FF901BFE4
FFFF47FFFC
0000000000
0000000000
0001F40000
0003FD0000
0003FD0000
0002FE0000
00001D0000
00002C0000
0000B40000
0002900000
ENDCHAR
STARTCHAR Ncaron
ENCODING 327
SWIDTH 742 0
DWIDTH 27 0
BBX 25 31 1 0
BITMAP
0001E001E00000
00007807800000
00002F6F000000
00000BFD000000
000003F4000000
00000000000000
00000000000000
FFF80000BFFF80
6FFD00006FFE40
07FF000003F000
02FF800002E000
02FFE00001E000
02DFF40001D000
02D7FC0001D000
02D2FE0001D000
02D0FF8001D000
02D03FD001D000
02D01FF401D000
02D00BFC01D000
02D002FE01D000
02D000FF41D000
02D0007FD1D000
02D0001FF1D000
02D0000BF9D000
02D00002FED000
02D00000FFD000
02D000007FD000
02D000001FD000
03E000000BD000
6FF9400003D000
FFFF400000D000
ENDCHAR
STARTCHAR ncaron
ENCODING 328
SWIDTH 576 0
DWIDTH 21 0
BBX 19 25 1 0
BITMAP
0014001400
002D00B400
000B42D000
0003DB8000
0001FF0000
0000BD0000
0000000000
16E02FE000
BFE1FFFC00
1BEB56FE00
07F8007F00
07E0003F00
07E0002F40
07E0002F40
07E0002F40
07E0002F40
07E0002F40
07E0002F40
07E0002F40
07E0002F40
07E0002F40
07E0002F40
07E0002F40
6FF901BFE4
FFFF47FFFC
ENDCHAR
STARTCHAR napostrophe
ENCODING 329
SWIDTH 576 0
DWIDTH 21 0
BBX 26 26 -6 0
BITMAP
2F400000000000
7FD00000000000
7FD00000000000
2FE00000000000
01D00000000000
02C00000000000
07800000000000
1E000000000000
24005B80BF8000
0002FF87FFF000
00006FAD5BF800
00001FE001FC00
00001F8000FC00
00001F8000BD00
00001F8000BD00
00001F8000BD00
00001F8000BD00
00001F8000BD00
00001F8000BD00
00001F8000BD00
00001F8000BD00
00001F8000BD00
00001F8000BD00
00001F8000BD00
0001BFE406FF90
0003FFFD1FFFF0
ENDCHAR
STARTCHAR Eng
ENCODING 330
SWIDTH 742 0
DWIDTH 27 0
BBX 25 33 1 -9
BITMAP
FFF80000BFFF80
6FFD00006FFE40
07FF000003F000
02FF800002E000
02FFE00001E000
02EFF40001D000
02D7FC0001D000
02D2FE0001D000
02D0FF8001D000
02D07FD001D000
02D01FF001D000
02D00BF801D000
02D003FD01D000
02D001FF41D000
02D0007FC1D000
02D0002FE1D000
02D0000FF5D000
02D00007FED000
02D00001FFD000
02D00000BFD000
02D000003FD000
03E000001FD000
6FF9400007D000
FFFF400002D000
0000000001D000
0000000001D000
0000000001D000
0000000002D000
000000A002C000
000002FC078000
000002FE5F0000
000000FFF90000
00000015500000
ENDCHAR
STARTCHAR eng
ENCODING 331
SWIDTH 559 0
DWIDTH 20 0
BBX 17 27 1 -9
BITMAP
16E02FE000
BFE1FFFC00
1BEB56FE00
07F8007F00
07E0003F00
07E0002F40
07E0002F40
07E0002F40
07E0002F40
07E0002F40
07E0002F40
07E0002F40
07E0002F40
07E0002F40
07E0002F40
07E0002F40
6FF9002F40
FFFF402F40
0000002F40
0000002F40
0000002F00
0000002F00
0002403E00
000BE03D00
000BF4B800
0003FFE000
0000550000
ENDCHAR
STARTCHAR Omacron
ENCODING 332
SWIDTH 738 0
DWIDTH 27 0
BBX 23 29 2 0
BITMAP
000FFFFF8000
000555554000
000000000000
000000000000
000000000000
0001BFE90000
002FE5AFD000
01FD0006F800
07F40000BF00
0FD000003F80
2FC000001FD0
3F4000000FE0
7F0000000BF0
BF00000007F4
FE00000007F8
FE00000003F8
FE00000003F8
FE00000003F8
FE00000003F8
FE00000007F8
BF00000007F4
BF4000000BF0
7F4000000BE0
2FC000001FD0
0FD000002F80
07F400007E00
01FD0002F800
002FE5AFD000
0001BFE90000
ENDCHAR
STARTCHAR omacron
ENCODING 333
SWIDTH 514 0
DWIDTH 19 0
BBX 17 23 1 0
BITMAP
02FFFFE000
02FFFFE000
0000000000
0000000000
0000000000
002BF90000
01F96FD000
0BD003F400
1F8001FC00
3F0000BD00
7F00007F00
BE00007F00
BE00003F40
BE00003F40
BE00003F40
BE00003F00
BE00007F00
7F00007E00
3F4000BD00
1F8000F800
0BE002F000
02FE6FC000
006BF90000
ENDCHAR
STARTCHAR Obreve
ENCODING 334
SWIDTH 738 0
DWIDTH 27 0
BBX 23 32 2 0
BITMAP
000800014000
000D00034000
000B00074000
0007D56E0000
0002FFFD0000
00006FE00000
000000000000
000000000000
0001BFE90000
002FE5AFD000
01FD0006F800
07F40000BF00
0FD000003F80
2FC000001FD0
3F4000000FE0
7F0000000BF0
BF00000007F4
FE00000007F8
FE00000003F8
FE00000003F8
FE00000003F8
FE00000003F8
FE00000007F8
BF00000007F4
BF4000000BF0
7F4000000BE0
2FC000001FD0
0FD000002F80
07F400007E00
01FD0002F800
002FE5AFD000
0001BFE90000
ENDCHAR
STARTCHAR obreve
ENCODING 335
SWIDTH 514 0
DWIDTH 19 0
BBX 17 26 1 0
BITMAP
0100005000
0240009000
02C001D000
01F557C000
00BFFF4000
001BF90000
0000000000
0000000000
002BF90000
01F96FD000
0BD003F400
1F8001FC00
3F0000BD00
7F00007F00
BE00007F00
BE00003F40
BE00003F40
BE00003F40
BE00003F00
BE00007F00
7F00007E00
3F4000BD00
1F8000F800
0BE002F000
02FE6FC000
006BF90000
ENDCHAR
STARTCHAR Ohungarumlaut
ENCODING 336
SWIDTH 738 0
DWIDTH 27 0
BBX 23 31 2 0
BITMAP
00000BF2FC00
00001FC7F400
00003E0BC000
0000B81E0000
0000E0380000
000000000000
000000000000
0001BFE90000
002FE5AFD000
01FD0006F800
07F40000BF00
0FD000003F80
2FC000001FD0
3F4000000FE0
7F0000000BF0
BF00000007F4
FE00000007F8
FE00000003F8
FE00000003F8
FE00000003F8
FE00000003F8
FE00000007F8
BF00000007F4
BF4000000BF0
7F4000000BE0
2FC000001FD0
0FD000002F80
07F400007E00
01FD0002F800
002FE5AFD000
0001BFE90000
ENDCHAR
STARTCHAR ohungarumlaut
ENCODING 337
SWIDTH 514 0
DWIDTH 19 0
BBX 17 25 1 0
BITMAP
0003F8FD00
0007F1F800
000BD3F000
000F47D000
001E0B4000
00380E0000
0000000000
002BF90000
01F96FD000
0BD003F400
1F8001FC00
3F0000BD00
7F00007F00
BE00007F00
BE00003F40
BE00003F40
BE00003F40
BE00003F00
BE00007F00
7F00007E00
3F4000BD00
1F8000F800
0BE002F000
02FE6FC000
006BF90000
ENDCHAR
STARTCHAR OE
ENCODING 338
SWIDTH 945 0
DWIDTH 34 0
BBX 32 24 1 0
BITMAP
00006FFFFFFFFFF8
000BF96FFEAAABF8
007F4003FC000078
01FD0001FC000028
03F80001FC00001C
0BF00001FC000000
0FD00001FC000700
2FD00001FC000700
2FC00001FC000B00
3F800001FC006F00
3F800001FFFFFF00
7F800001FD556F00
7F800001FC000B00
3F800001FC000700
3F800001FC000700
3FC00001FC000000
2FD00001FC000001
1FD00001FC000007
0BF00001FC00000A
07F40001FC00000E
01FD0001FC00002D
007F4003FC0000BD
001BF96FFEAAAFFD
0001AFFFFFFFFFFC
ENDCHAR
STARTCHAR oe
ENCODING 339
SWIDTH 807 0
DWIDTH 29 0
BBX 27 18 1 0
BITMAP
006FF8001BF800
01F96F40B9BF40
0BD007E3D00FD0
1F8001FB8007E0
3F0000FF0003F4
7F0000BF0002F4
BE00007E0002F8
BE00007FFFFFF8
BE00007F555554
BE00007F000000
BE00007F000000
BE00007F400000
7F0000BF800004
3F4000BFD00028
1F8001FFF901B0
0BE003E3FFFFD0
02FA6F40BFFF80
006FE8001BF900
ENDCHAR
STARTCHAR Racute
ENCODING 340
SWIDTH 659 0
DWIDTH 24 0
BBX 23 31 1 0
BITMAP
00000BF00000
00002FD00000
00007E000000
0000F4000000
0002D0000000
000000000000
000000000000
7FFFFFA40000
07FE9AFF8000
01FC002FE000
01FC000BF400
01FC0003F800
01FC0003F800
01FC0003F800
01FC0007F400
01FC000BF000
01FC002FD000
01FD16FE0000
01FFFFD00000
01FD6FD00000
01FC0BF40000
01FC03FC0000
01FC01FE0000
01FC00BF4000
01FC003FC000
01FC001FE000
01FC000BF400
01FD0007FC00
02FD0002FF00
5BFF9400FFE4
7FFFF8007FFC
ENDCHAR
STARTCHAR racute
ENCODING 341
SWIDTH 380 0
DWIDTH 14 0
BBX 13 25 1 0
BITMAP
0006A000
000BE000
001F8000
002E0000
003C0000
00B00000
00000000
06E06E00
BFE1FF40
5BE7FF40
07ED1E00
07F80000
07F00000
07E00000
07E00000
07E00000
07E00000
07E00000
07E00000
07E00000
07E00000
07E00000
07F00000
6FFA4000
FFFFC000
ENDCHAR
STARTCHAR Rcommaaccent
ENCODING 342
SWIDTH 659 0
DWIDTH 24 0
BBX 23 34 1 -10
BITMAP
7FFFFFA40000
07FE9AFF8000
01FC002FE000
01FC000BF400
01FC0003F800
01FC0003F800
01FC0003F800
01FC0007F400
01FC000BF000
01FC002FD000
01FD16FE0000
01FFFFD00000
01FD6FD00000
01FC0BF40000
01FC03FC0000
01FC01FE0000
01FC00BF4000
01FC003FC000
01FC001FE000
01FC000BF400
01FD0007FC00
02FD0002FF00
5BFF9400FFE4
7FFFF8007FFC
000000000000
000000000000
00002F400000
00007FC00000
00007FD00000
00002FD00000
000002D00000
000002C00000
00000B400000
000038000000
ENDCHAR
STARTCHAR rcommaaccent
ENCODING 343
SWIDTH 380 0
DWIDTH 14 0
BBX 13 28 1 -10
BITMAP
06E06E00
BFE1FF40
5BE7FF40
07ED1E00
07F80000
07F00000
07E00000
07E00000
07E00000
07E00000
07E00000
07E00000
07E00000
07E00000
07E00000
07F00000
6FFA4000
FFFFC000
00000000
00000000
02E40000
07F80000
0BFC0000
03FC0000
002C0000
00380000
01E00000
07800000
ENDCHAR
STARTCHAR Rcaron
ENCODING 344
SWIDTH 659 0
DWIDTH 24 0
BBX 23 31 1 0
BITMAP
002D002D0000
000B40B40000
0003E7E00000
0001FF800000
00007F000000
000000000000
000000000000
7FFFFFA40000
07FE9AFF8000
01FC002FE000
01FC000BF400
01FC0003F800
01FC0003F800
01FC0003F800
01FC0007F400
01FC000BF000
01FC002FD000
01FD16FE0000
01FFFFD00000
01FD6FD00000
01FC0BF40000
01FC03FC0000
01FC01FE0000
01FC00BF4000
01FC003FC000
01FC001FE000
01FC000BF400
01FD0007FC00
02FD0002FF00
5BFF9400FFE4
7FFFF8007FFC
ENDCHAR
STARTCHAR rcaron
ENCODING 345
SWIDTH 380 0
DWIDTH 14 0
BBX 13 25 1 0
BITMAP
14001400
1D007400
0B41E000
03E7C000
01FF4000
007E0000
00000000
06E06E00
BFE1FF40
5BE7FF40
07ED1E00
07F80000
07F00000
07E00000
07E00000
07E00000
07E00000
07E00000
07E00000
07E00000
07E00000
07E00000
07F00000
6FFA4000
FFFFC000
ENDCHAR
STARTCHAR Sacute
ENCODING 346
SWIDTH 504 0
DWIDTH 18 0
BBX 16 31 1 0
BITMAP
0000FF00
0002F900
000BE000
001F4000
00380000
00000000
00000000
006FF928
07F96FF8
1F8002F8
2F0000F8
3F000078
7F000038
3F400028
3FD00018
2FF40000
0BFE4000
02FFE000
00BFFE00
000BFFD0
0001FFF4
00002FFC
000007FE
A00001FE
A00000BF
B00000BF
B80000BE
BD0000BD
BF4001F8
7FE96FE0
716FFA40
ENDCHAR
STARTCHAR sacute
ENCODING 347
SWIDTH 394 0
DWIDTH 14 0
BBX 13 25 1 0
BITMAP
0002A000
000BE000
000FC000
002F0000
003D0000
00740000
00000000
02FE8C00
1F9AFC00
3D007C00
7C002C00
BD001D00
7E000D00
7FD00000
2FF90000
07FF8000
01BFF400
001BFD00
0001FF00
90007F00
A0003F40
B4003F00
BC007E00
BF96F800
66FF9000
ENDCHAR
STARTCHAR Scircumflex
ENCODING 348
SWIDTH 504 0
DWIDTH 18 0
BBX 16 31 1 0
BITMAP
000BE000
001FF800
007D7D00
00F41F00
038002C0
00000000
00000000
006FF928
07F96FF8
1F8002F8
2F0000F8
3F000078
7F000038
3F400028
3FD00018
2FF40000
0BFE4000
02FFE000
00BFFE00
000BFFD0
0001FFF4
00002FFC
000007FE
A00001FE
A00000BF
B00000BF
B80000BE
BD0000BD
BF4001F8
7FE96FE0
716FFA40
ENDCHAR
STARTCHAR scircumflex
ENCODING 349
SWIDTH 394 0
DWIDTH 14 0
BBX 13 25 1 0
BITMAP
00190000
00BF0000
01FB8000
03D2E000
0B40B400
1D002C00
00000000
02FE8C00
1F9AFC00
3D007C00
7C002C00
BD001D00
7E000D00
7FD00000
2FF90000
07FF8000
01BFF400
001BFD00
0001FF00
90007F00
A0003F40
B4003F00
BC007E00
BF96F800
66FF9000
ENDCHAR
STARTCHAR uni015E
ENCODING 350
SWIDTH 504 0
DWIDTH 18 0
BBX 16 33 1 -9
BITMAP
006FF928
07F96FF8
1F8002F8
2F0000F8
3F000078
7F000038
3F400028
3FD00018
2FF40000
0BFE4000
02FFE000
00BFFE00
000BFFD0
0001FFF4
00002FFC
000007FE
A00001FE
A00000BF
B00000BF
B80000BE
BD0000BD
BF4001F8
7FE96FE0
716FFA40
00020000
00060000
000BF400
00057C00
00002D00
00002D00
00247C00
002FF400
00014000
ENDCHAR
STARTCHAR uni015F
ENCODING 351
SWIDTH 394 0
DWIDTH 14 0
BBX 13 27 1 -9
BITMAP
02FE8C00
1F9AFC00
3D007C00
7C002C00
BD001D00
7E000D00
7FD00000
2FF90000
07FF8000
01BFF400
001BFD00
0001FF00
90007F00
A0003F40
B4003F00
BC007E00
BF96F800
66FF9000
00200000
00600000
00BF4000
0017D000
0002D000
0002D000
0247C000
02FF4000
00140000
ENDCHAR
STARTCHAR Scaron
ENCODING 352
SWIDTH 504 0
DWIDTH 18 0
BBX 16 31 1 0
BITMAP
02C002C0
00F40B40
007E7D00
001FF800
000BE000
00000000
00000000
006FF928
07F96FF8
1F8002F8
2F0000F8
3F000078
7F000038
3F400028
3FD00018
2FF40000
0BFE4000
02FFE000
00BFFE00
000BFFD0
0001FFF4
00002FFC
000007FE
A00001FE
A00000BF
B00000BF
B80000BE
BD0000BD
BF4001F8
7FE96FE0
716FFA40
ENDCHAR
STARTCHAR scaron
ENCODING 353
SWIDTH 394 0
DWIDTH 14 0
BBX 13 25 1 0
BITMAP
14001400
1E007800
0B81E000
02E7C000
00FF4000
007E0000
00000000
02FE8C00
1F9AFC00
3D007C00
7C002C00
BD001D00
7E000D00
7FD00000
2FF90000
07FF8000
01BFF400
001BFD00
0001FF00
90007F00
A0003F40
B4003F00
BC007E00
BF96F800
66FF9000
ENDCHAR
STARTCHAR uni0162
ENCODING 354
SWIDTH 603 0
DWIDTH 22 0
BBX 21 33 0 -9
BITMAP
3FFFFFFFFFC0
3F957F95AFC0
7C002F8007C0
74002F8002C0
70002F8001C0
70002F8001C0
10002F800040
00002F800000
00002F800000
00002F800000
00002F800000
00002F800000
00002F800000
00002F800000
00002F800000
00002F800000
00002F800000
00002F800000
00002F800000
00003F800000
00003F800000
00007FC00000
0006FFE90000
001FFFFF0000
000008000000
000018000000
00002FD00000
000005F40000
000000B40000
000000B40000
000091F00000
0000BFD00000
000005000000
ENDCHAR
STARTCHAR uni0163
ENCODING 355
SWIDTH 315 0
DWIDTH 11 0
BBX 10 32 1 -9
BITMAP
009000
01D000
03D000
07D000
1FD000
7FFFD0
5BE540
0BD000
0BD000
0BD000
0BD000
0BD000
0BD000
0BD000
0BD000
0BD000
0BD000
0BD000
0BD000
0BD010
07F5A0
03FFC0
01BE00
006000
009000
00FF40
005BC0
0003D0
0003D0
0647C0
02FE00
001000
ENDCHAR
STARTCHAR Tcaron
ENCODING 356
SWIDTH 603 0
DWIDTH 22 0
BBX 21 31 0 0
BITMAP
000E000A0000
0007D07C0000
0001F6F40000
0000BFD00000
00002F800000
000000000000
000000000000
3FFFFFFFFFC0
3F957F95AFC0
7C002F8007C0
74002F8002C0
70002F8001C0
70002F8001C0
10002F800040
00002F800000
00002F800000
00002F800000
00002F800000
00002F800000
00002F800000
00002F800000
00002F800000
00002F800000
00002F800000
00002F800000
00002F800000
00003F800000
00003F800000
00007FC00000
0006FFE90000
001FFFFF0000
ENDCHAR
STARTCHAR tcaron
ENCODING 357
SWIDTH 353 0
DWIDTH 13 0
BBX 12 26 1 0
BITMAP
0000BD
0000BD
0000BC
0090B8
01D0F4
03D0F0
07D0D0
1FD040
7FFFD0
5BE540
0BD000
0BD000
0BD000
0BD000
0BD000
0BD000
0BD000
0BD000
0BD000
0BD000
0BD000
0BD000
0BD010
07F5A0
03FFC0
01BE00
ENDCHAR
STARTCHAR Tbar
ENCODING 358
SWIDTH 603 0
DWIDTH 22 0
BBX 21 24 0 0
BITMAP
3FFFFFFFFFC0
3F957F95AFC0
7C002F8007C0
74002F8002C0
70002F8001C0
70002F8001C0
50002F800080
00002F800000
00002F800000
00002F800000
00003F800000
007FFFFFC000
00157F954000
00002F800000
00002F800000
00002F800000
00002F800000
00002F800000
00002F800000
00003F800000
00003F800000
00007FC00000
0006FFE90000
001FFFFF0000
ENDCHAR
STARTCHAR tbar
ENCODING 359
SWIDTH 328 0
DWIDTH 12 0
BBX 10 23 1 0
BITMAP
009000
01D000
02D000
07D000
1FD000
7FFFD0
5BE550
0BD000
0BD000
0BD000
0BD000
BFFFD0
1BE540
0BD000
0BD000
0BD000
0BD000
0BD000
0BD000
0BE010
07F5B0
03FFD0
01BE00
ENDCHAR
STARTCHAR Utilde
ENCODING 360
SWIDTH 752 0
DWIDTH 27 0
BBX 27 31 0 0
BITMAP
000007E4024000
00001FFE5B0000
0000396FFD0000
00006006F40000
00000000000000
00000000000000
00000000000000
7FFFFC001FFFF4
1BFFE40006FF94
00FF000000BD00
00FE0000007D00
00BE0000003C00
00BE0000003C00
00BE0000003C00
00BE0000003C00
00BE0000003C00
00BE0000003C00
00BE0000003C00
00BE0000003C00
00BE0000003C00
00BE0000003C00
00BE0000003C00
00BE0000003C00
00BE0000003C00
00BF0000007800
007F400000B400
003F800000F000
002FE00002E000
000BFE556F8000
0002FFFFFE0000
00001BFF900000
ENDCHAR
STARTCHAR utilde
ENCODING 361
SWIDTH 570 0
DWIDTH 21 0
BBX 19 24 1 0
BITMAP
002F801800
00BFF97400
01D5FFF000
02402F8000
0000000000
0000000000
ABD006AF00
BFD00AFF00
0FD0007F00
0BD0003F00
0BD0003F00
0BD0003F00
0BD0003F00
0BD0003F00
0BD0003F00
0BD0003F00
0BD0003F00
0BD0003F00
0BD0003F00
0BE0003F00
07F001FF00
03FD5B7F40
01FFFD3FF4
006F903E90
ENDCHAR
STARTCHAR Umacron
ENCODING 362
SWIDTH 752 0
DWIDTH 27 0
BBX 27 29 0 0
BITMAP
00003FFFFE0000
00001555550000
00000000000000
00000000000000
00000000000000
7FFFFC001FFFF4
1BFFE40006FF94
00FF000000BD00
00FE0000007D00
00BE0000003C00
00BE0000003C00
00BE0000003C00
00BE0000003C00
00BE0000003C00
00BE0000003C00
00BE0000003C00
00BE0000003C00
00BE0000003C00
00BE0000003C00
00BE0000003C00
00BE0000003C00
00BE0000003C00
00BF0000007800
007F400000B400
003F800000F000
002FE00002E000
000BFE556F8000
0002FFFFFE0000
00001BFF900000
ENDCHAR
STARTCHAR umacron
ENCODING 363
SWIDTH 570 0
DWIDTH 21 0
BBX 19 23 1 0
BITMAP
01FFFFF000
01FFFFF000
0000000000
0000000000
0000000000
ABD006AF00
BFD00AFF00
0FD0007F00
0BD0003F00
0BD0003F00
0BD0003F00
0BD0003F00
0BD0003F00
0BD0003F00
0BD0003F00
0BD0003F00
0BD0003F00
0BD0003F00
0BE0003F00
07F001FF00
03FD5B7F40
01FFFD3FF4
006F903E90
ENDCHAR
STARTCHAR Ubreve
ENCODING 364
SWIDTH 752 0
DWIDTH 27 0
BBX 27 32 0 0
BITMAP
00001000050000
000034000A0000
00002C001D0000
00001F55BC0000
00000BFFF40000
000001BF900000
00000000000000
00000000000000
7FFFFC001FFFF4
1BFFE40006FF94
00FF000000BD00
00FE0000007D00
00BE0000003C00
00BE0000003C00
00BE0000003C00
00BE0000003C00
00BE0000003C00
00BE0000003C00
00BE0000003C00
00BE0000003C00
00BE0000003C00
00BE0000003C00
00BE0000003C00
00BE0000003C00
00BE0000003C00
00BF0000007800
007F400000B400
003F800000F000
002FE00002E000
000BFE556F8000
0002FFFFFE0000
00001BFF900000
ENDCHAR
STARTCHAR ubreve
ENCODING 365
SWIDTH 570 0
DWIDTH 21 0
BBX 19 26 1 0
BITMAP
0140001000
01C0007000
00E000A000
00B956D000
003FFF8000
000BF90000
0000000000
0000000000
ABD006AF00
BFD00AFF00
0FD0007F00
0BD0003F00
0BD0003F00
0BD0003F00
0BD0003F00
0BD0003F00
0BD0003F00
0BD0003F00
0BD0003F00
0BD0003F00
0BD0003F00
0BE0003F00
07F001FF00
03FD5B7F40
01FFFD3FF4
006F903E90
ENDCHAR
STARTCHAR Uring
ENCODING 366
SWIDTH 752 0
DWIDTH 27 0
BBX 27 33 0 0
BITMAP
000000BF400000
000002D6D00000
00000740B00000
00000740B00000
00000740B00000
000003D1E00000
000001BF800000
00000004000000
00000000000000
7FFFFC001FFFF4
1BFFE40006FF94
00FF000000BD00
00FE0000007D00
00BE0000003C00
00BE0000003C00
00BE0000003C00
00BE0000003C00
00BE0000003C00
00BE0000003C00
00BE0000003C00
00BE0000003C00
00BE0000003C00
00BE0000003C00
00BE0000003C00
00BE0000003C00
00BE0000003C00
00BF0000007800
007F400000B400
003F800000F000
002FE00002E000
000BFE556F8000
0002FFFFFE0000
00001BFF900000
ENDCHAR
STARTCHAR uring
ENCODING 367
SWIDTH 570 0
DWIDTH 21 0
BBX 19 27 1 0
BITMAP
0007F80000
001E5F0000
002C074000
0028038000
002C074000
001E5B0000
0007FD0000
0000500000
0000000000
ABD006AF00
BFD00AFF00
0FD0007F00
0BD0003F00
0BD0003F00
0BD0003F00
0BD0003F00
0BD0003F00
0BD0003F00
0BD0003F00
0BD0003F00
0BD0003F00
0BD0003F00
0BE0003F00
07F001FF00
03FD5B7F40
01FFFD3FF4
006F903E90
ENDCHAR
STARTCHAR Uhungarumlaut
ENCODING 368
SWIDTH 752 0
DWIDTH 27 0
BBX 27 31 0 0
BITMAP
0000002FCBF000
0000007F4FD000
000000F82F4000
000001E0780000
00000380E00000
00000000000000
00000000000000
7FFFFC001FFFF4
1BFFE40006FF94
00FF000000BD00
00FE0000007D00
00BE0000003C00
00BE0000003C00
00BE0000003C00
00BE0000003C00
00BE0000003C00
00BE0000003C00
00BE0000003C00
00BE0000003C00
00BE0000003C00
00BE0000003C00
00BE0000003C00
00BE0000003C00
00BE0000003C00
00BF0000007800
007F400000B400
003F800000F000
002FE00002E000
000BFE556F8000
0002FFFFFE0000
00001BFF900000
ENDCHAR
STARTCHAR uhungarumlaut
ENCODING 369
SWIDTH 570 0
DWIDTH 21 0
BBX 19 25 1 0
BITMAP
0001FCBF00
0002F8FD00
0003E1F400
000BC2E000
000F038000
001D0B0000
0000000000
ABD006AF00
BFD00AFF00
0FD0007F00
0BD0003F00
0BD0003F00
0BD0003F00
0BD0003F00
0BD0003F00
0BD0003F00
0BD0003F00
0BD0003F00
0BD0003F00
0BD0003F00
0BE0003F00
07F001FF00
03FD5B7F40
01FFFD3FF4
006F903E90
ENDCHAR
STARTCHAR Uogonek
ENCODING 370
SWIDTH 753 0
DWIDTH 27 0
BBX 27 32 0 -8
BITMAP
7FFFFC001FFFF4
1BFFE40006FF94
00FF000000BE00
00FE0000007D00
00BE0000003C00
00BE0000003C00
00BE0000003C00
00BE0000003C00
00BE0000003C00
00BE0000003C00
00BE0000003C00
00BE0000003C00
00BE0000003C00
00BE0000003C00
00BE0000003C00
00BE0000003C00
00BE0000003C00
00BF0000007C00
007F400000B800
003F800000F400
002FE00002F000
000BFE556FD000
0002FFFFFF8000
00001BFFFD0000
00000007D00000
0000001E000000
0000007C000000
000000B8000000
000000F4000000
000000F8010000
000000BE6D0000
0000002FE00000
ENDCHAR
STARTCHAR uogonek
ENCODING 371
SWIDTH 570 0
DWIDTH 21 0
BBX 19 26 1 -8
BITMAP
ABD006AF00
BFD00AFF00
0FD0007F00
0BD0003F00
0BD0003F00
0BD0003F00
0BD0003F00
0BD0003F00
0BD0003F00
0BD0003F00
0BD0003F00
0BD0003F00
0BD0003F00
0BE0003F00
07F001FF00
03FD5B7F40
01FFFD3FF4
006F903E50
000000B000
000002D000
00000B8000
00000F4000
00001F0000
00001F4040
00000FD680
000002F900
ENDCHAR
STARTCHAR Wcircumflex
ENCODING 372
SWIDTH 944 0
DWIDTH 34 0
BBX 35 31 -1 0
BITMAP
00000000FD00000000
00000003FF00000000
0000000BDB80000000
0000002E02E0000000
000000740074000000
000000000000000000
000000000000000000
7FFFF07FFFF401FFFC
2FFF901BFF9001BFE4
02FE0002FE00001F80
01FE0000FE00000F00
00BF0000BF00001E00
007F40007F40002D00
003F80003F80003C00
002FD0002FC0007800
000FE0002FE000B400
000BF0003FF000F000
0007F400B7F401E000
0003F800E3F802D000
0002FD01D1FC03C000
0000FE02C0FD078000
0000BF0380BF0B4000
00007F47407F4F0000
00003F8F003F9E0000
00002FDE002FED0000
00000FFC000FFC0000
00000BF8000BF40000
000007F40007F00000
000003F00003E00000
000002E00002D00000
000000D00001C00000
ENDCHAR
STARTCHAR wcircumflex
ENCODING 373
SWIDTH 749 0
DWIDTH 27 0
BBX 29 25 -1 0
BITMAP
0000001900000000
0000007F40000000
000000FBC0000000
000002D2E0000000
00000B4074000000
00001D001D000000
0000000000000000
BFFF07FFF00BFF40
6FF901FFD006FE40
07F4007F4000B400
02F8002F8000F000
01FC001FC001E000
00FD000FD002C000
00BE001FE0038000
007F003BF0074000
003F4076F40B0000
001F80B1F80E0000
000FD0D0FC1D0000
000BE1C0BD2C0000
0007F2807E340000
0003F7403F700000
0002FF002FE00000
0000FD001FD00000
0000BC000FC00000
000078000B800000
ENDCHAR
STARTCHAR Ycircumflex
ENCODING 374
SWIDTH 647 0
DWIDTH 23 0
BBX 25 31 -1 0
BITMAP
000001FC000000
000007FE000000
00000F9F800000
00002D02D00000
0000B400B40000
00000000000000
00000000000000
7FFFF8007FFF40
1BFF94001BFA40
02FF000003E000
00BF8000078000
003FC0000F0000
001FE0002D0000
000BF400380000
0003FC00B00000
0001FE01E00000
0000BF43C00000
00003F8B400000
00001FEE000000
00000BFC000000
000007F8000000
000003F4000000
000003F4000000
000003F4000000
000003F4000000
000003F4000000
000003F4000000
000003F8000000
000007F8000000
00016FFE900000
0002FFFFF00000
ENDCHAR
STARTCHAR ycircumflex
ENCODING 375
SWIDTH 483 0
DWIDTH 17 0
BBX 19 34 -1 -9
BITMAP
0000190000
0000BF4000
0001FBC000
0003D2E000
000B40B400
001D001C00
0000000000
7FFF407FF8
6FF9001FE4
07F4000780
03F8000B40
01FC000F00
00FD001E00
00BF002C00
003F403800
002F807400
001FD0B000
000BE0E000
0007F1D000
0003F6C000
0001FB8000
0000FF4000
0000BE0000
00003D0000
00003C0000
0000780000
0000B40000
0000F00000
0002D00000
0507C00000
2FEF400000
2FFE000000
1FF8000000
0540000000
ENDCHAR
STARTCHAR Ydieresis
ENCODING 376
SWIDTH 647 0
DWIDTH 23 0
BBX 25 30 -1 0
BITMAP
0000B801B40000
0002FD02FC0000
0002FD02FC0000
0000B801F40000
00000000000000
00000000000000
7FFFF8007FFF40
1BFF94001BFA40
02FF000003E000
00BF8000078000
003FC0000F0000
001FE0002D0000
000BF400380000
0003FC00B00000
0001FE01E00000
0000BF43C00000
00003F8B400000
00001FEE000000
00000BFC000000
000007F8000000
000003F4000000
000003F4000000
000003F4000000
000003F4000000
000003F4000000
000003F4000000
000003F8000000
000007F8000000
00016FFE900000
0002FFFFF00000
ENDCHAR
STARTCHAR Zacute
ENCODING 377
SWIDTH 594 0
DWIDTH 21 0
BBX 20 31 1 0
BITMAP
00000BF400
00002FD000
00007E0000
0000F80000
0002D00000
0000000000
0000000000
1FFFFFFFFC
2FE9555BF8
2F00000FF0
2C00002FD0
2800007F80
240000FF00
000002FD00
000007F800
00000FF000
00002FD000
00007F8000
0000FF0000
0002FD0000
0007F80000
001FF00000
002FD00000
007F800000
01FF000009
02FD00000D
0BF800001C
1FF000003C
3FD00000B8
BFD5555BF8
FFFFFFFFF4
ENDCHAR
STARTCHAR zacute
ENCODING 378
SWIDTH 458 0
DWIDTH 16 0
BBX 15 25 1 0
BITMAP
00006900
0001FD00
0002F400
0003D000
000B8000
000E0000
00000000
3FFFFFF0
7E555FE0
78001FC0
74003F40
7000BE00
1001FD00
0003F800
000BF000
001FD000
003F8000
00BF0000
01FD0000
03F80034
0BF00074
1FD000B0
3F8001F0
BFAAAFF0
FFFFFFF0
ENDCHAR
STARTCHAR Zdotaccent
ENCODING 379
SWIDTH 594 0
DWIDTH 21 0
BBX 20 30 1 0
BITMAP
00002E0000
0000BF4000
0000BF4000
00002E0000
0000000000
0000000000
1FFFFFFFFC
2FE9555BF8
2F00000FF0
2C00002FD0
2800007F80
240000FF00
000002FD00
000007F800
00000FF000
00002FD000
00007F8000
0000FF0000
0002FD0000
0007F80000
001FF00000
002FD00000
007F800000
01FF000009
02FD00000D
0BF800001C
1FF000003C
3FD00000B8
BFD5555BF8
FFFFFFFFF4
ENDCHAR
STARTCHAR zdotaccent
ENCODING 380
SWIDTH 458 0
DWIDTH 16 0
BBX 15 25 1 0
BITMAP
000B8000
001FE000
001FE000
000B8000
00000000
00000000
00000000
3FFFFFF0
7E555FE0
78001FC0
74003F40
7000BE00
1001FD00
0003F800
000BF000
001FD000
003F8000
00BF0000
01FD0000
03F80034
0BF00074
1FD000B0
3F8001F0
BFAAAFF0
FFFFFFF0
ENDCHAR
STARTCHAR Zcaron
ENCODING 381
SWIDTH 594 0
DWIDTH 21 0
BBX 20 31 1 0
BITMAP
002D001D00
000B40B400
0003E7E000
0001FF8000
00007F0000
0000000000
0000000000
1FFFFFFFFC
2FE9555BF8
2F00000FF0
2C00002FD0
2800007F80
240000FF00
000002FD00
000007F800
00000FF000
00002FD000
00007F8000
0000FF0000
0002FD0000
0007F80000
001FF00000
002FD00000
007F800000
01FF000009
02FD00000D
0BF800001C
1FF000003C
3FD00000B8
BFD5555BF8
FFFFFFFFF4
ENDCHAR
STARTCHAR zcaron
ENCODING 382
SWIDTH 458 0
DWIDTH 16 0
BBX 15 25 1 0
BITMAP
01000140
02C00B00
00F02D00
007DB800
002FF000
000FD000
00000000
3FFFFFF0
7E555FE0
78001FC0
74003F40
7000BE00
1001FD00
0003F800
000BF000
001FD000
003F8000
00BF0000
01FD0000
03F80034
0BF00074
1FD000B0
3F8001F0
BFAAAFF0
FFFFFFF0
ENDCHAR
STARTCHAR longs
ENCODING 383
SWIDTH 285 0
DWIDTH 10 0
BBX 14 26 0 0
BITMAP
0006FF40
002E6FD0
007C0BE0
00B80280
00F80000
01F80000
01F80000
01F80000
3FF80000
16F80000
01F80000
01F80000
01F80000
01F80000
01F80000
01F80000
01F80000
01F80000
01F80000
01F80000
01F80000
01F80000
01F80000
02FC0000
1BFF9000
7FFFF400
ENDCHAR
STARTCHAR uni0180
ENCODING 384
SWIDTH 522 0
DWIDTH 19 0
BBX 18 27 0 0
BITMAP
0050000000
6FF0000000
6BF0000000
07F0000000
07F0000000
BFFFFFC000
57F5554000
03F0000000
03F0000000
03F02FE000
03F1FFFD00
03F7FFFF00
03FE00BF80
03F4003FC0
03F0001FD0
03F0000FD0
03F0000FD0
03F0000BE0
03F0000BD0
03F0000BD0
03F0000FC0
03F0000F80
03F0001F40
03F0003E00
03F400BC00
03FF9BE000
006BFE4000
ENDCHAR
STARTCHAR uni0188
ENCODING 392
SWIDTH 446 0
DWIDTH 16 0
BBX 19 24 1 0
BITMAP
0000002F90
000000E7F0
00000281F4
0000034050
0000034000
0000074000
002BFB4000
02F9BF8000
0B801FD000
1F000BE000
3E0007E000
7D00014000
7C00000000
BC00000000
BC00000000
BC00000000
BD00000000
BE00000000
7F00001000
3F80007000
2FE406D000
0FFFFF8000
02FFFE0000
006FE40000
ENDCHAR
STARTCHAR uni0190
ENCODING 400
SWIDTH 518 0
DWIDTH 19 0
BBX 17 24 1 0
BITMAP
006BFE9000
06FA5BF800
1FD002FE00
3F8000FF00
3F40007F00
3F40001400
3F40000000
2F80000000
0BD0000000
01B9400000
001FFF0000
01FE550000
0BE0000000
1F80000000
3F40000000
7F00000000
7F00000000
BF00000000
7F40000000
7F80000380
3FD0001E00
1FF955B800
07FFFFE000
006FFA0000
ENDCHAR
STARTCHAR uni0192
ENCODING 402
SWIDTH 301 0
DWIDTH 11 0
BBX 18 36 -4 -9
BITMAP
000006FE40
00001E6FD0
00007C0FD0
0000B807D0
0000F80000
0001F80000
0001F80000
0001F80000
0001F80000
007FFFFC00
0016F95400
0001F80000
0001F80000
0001F80000
0001F80000
0001F80000
0001F80000
0001F80000
0001F80000
0001F80000
0001F80000
0001F80000
0001F80000
0001F80000
0001F80000
0001F80000
0001F80000
0001F80000
0001F40000
0001F40000
0001F40000
2802F00000
7E02E00000
3F83D00000
1FFF400000
0154000000
ENDCHAR
STARTCHAR uni0195
ENCODING 405
SWIDTH 798 0
DWIDTH 29 0
BBX 26 27 1 0
BITMAP
01500000000000
AFE00000000000
AFE00000000000
0BE00000000000
07E00000000000
07E00000000000
07E00000000000
07E00000000000
07E00000000000
07E06F90002E00
07E2FFF8002F80
07EB56FD001FD0
07F800BE000BE0
07E0007F0003E0
07E0003F0001F0
07E0003F0000F0
07E0003F0000B0
07E0003F0000B0
07E0003F0000B0
07E0003F0000A0
07E0003F0000A0
07E0003F0000D0
07E0003F4001C0
07E0002F400380
0BE0001FD56F00
6FF9000BFFFC00
FFFF4001BF9000
ENDCHAR
STARTCHAR uni0199
ENCODING 409
SWIDTH 538 0
DWIDTH 19 0
BBX 19 26 1 0
BITMAP
001BFE4000
00797FD000
01E00FE000
02E0029000
03D0000000
07D0000000
07D0000000
0BD0000000
0BD02FFFC0
0BD01BFE40
0BD007E000
0BD00F4000
0BD03D0000
0BD0B40000
0BD2C00000
0BEB400000
0BFFD00000
0BDBF00000
0BD2FC0000
0BD0FE0000
0BD07F8000
0BD01FE000
0BD007F400
0BE002FD00
6FF906FF90
FFFF0BFFF4
ENDCHAR
STARTCHAR uni019A
ENCODING 410
SWIDTH 287 0
DWIDTH 10 0
BBX 9 26 1 0
BITMAP
16E000
FFE000
0BE000
07E000
07E000
07E000
07E000
07E000
07E000
07E000
07E000
07E000
FFFF40
5BE500
07E000
07E000
07E000
07E000
07E000
07E000
07E000
07E000
07E000
07E000
6FF940
FFFF40
ENDCHAR
STARTCHAR uni019B
ENCODING 411
SWIDTH 495 0
DWIDTH 18 0
BBX 19 26 -1 0
BITMAP
02F9000000
0BFF401000
0BFFC0B400
0691EBD000
0000FD0000
0007F80000
007E2C0000
00601D0000
00000E0000
00001F0000
00002F4000
00007F8000
0000BEC000
0001FCD000
0002F4A000
0007F07400
000BE03800
001FC02C00
002F801D00
007F000E00
00BE000B00
01FC000740
02F8000380
07F40003D0
2FFD001BF4
7FFF403FFC
ENDCHAR
STARTCHAR uni019E
ENCODING 414
SWIDTH 559 0
DWIDTH 20 0
BBX 19 26 1 -8
BITMAP
16E02FE000
BFE1FFFC00
1BEB56FE00
07F8007F00
07E0003F00
07E0002F40
07E0002F40
07E0002F40
07E0002F40
07E0002F40
07E0002F40
07E0002F40
07E0002F40
07E0002F40
07E0002F40
07E0002F40
6FF9002F40
FFFF402F40
0000002F40
0000002F40
0000002F40
0000002F40
0000002F40
0000002F80
0000002FE4
0000002FFC
ENDCHAR
STARTCHAR Ohorn
ENCODING 416
SWIDTH 737 0
DWIDTH 27 0
BBX 25 30 1 0
BITMAP
00000000002E00
00000000003F40
00000000002F80
00000000001F80
00000000000F40
00000000006E00
00006FFFFFF800
000BF96BFD4000
007F4001BF4000
01FD00002FC000
03F400000FE000
0BE0000007F400
0FD0000003FC00
2FC0000002FD00
2FC0000001FD00
3F80000001FE00
3F80000000FE00
7F80000000FE00
7F80000000FE00
3F80000000FE00
3F80000001FD00
3FC0000001FD00
2FC0000002FC00
1FD0000003F800
0BF0000007F000
07F400000BD000
01FD00002F8000
007F4000BE0000
001BF96BF40000
00016FFA400000
ENDCHAR
STARTCHAR ohorn
ENCODING 417
SWIDTH 516 0
DWIDTH 19 0
BBX 18 24 1 0
BITMAP
0000000500
0000000FC0
0000000FD0
00000007D0
00000003C0
0000000780
002BFFFF00
01F96FE400
0BD003F000
1F8001F800
3F0000BD00
7F00007E00
BE00007F00
BE00003F00
BE00003F40
BE00003F40
BE00003F40
BE00007F00
7F00007E00
3F4000BD00
1F8000F800
0BE002F400
02FE6FC000
006BF90000
ENDCHAR
STARTCHAR uni01A5
ENCODING 421
SWIDTH 522 0
DWIDTH 19 0
BBX 18 34 0 -8
BITMAP
0007FF8000
002D6FE000
00B40BF000
01F002E000
02F0000000
03F0000000
03F0000000
03F0000000
03F02FE000
03F1FFFC00
03F7FFFF00
03FE00BF80
03F4002FC0
03F0001FD0
03F0000FD0
03F0000FD0
03F0000BE0
03F0000BD0
03F0000BD0
03F0000FC0
03F0000FC0
03F0001F40
03F4002E00
03FD00BC00
03FF96F400
03F6FE4000
03F0000000
03F0000000
03F0000000
03F0000000
07F0000000
07F4000000
6FFE400000
BFFFD00000
ENDCHAR
STARTCHAR uni01AA
ENCODING 426
SWIDTH 298 0
DWIDTH 11 0
BBX 18 36 -3 -9
BITMAP
06FE000000
1E5B800000
2803D00000
3002F00000
7001F00000
7001F40000
3401F40000
2E46F80000
0BFFF80000
0051F80000
0001F80000
0001F80000
0001F80000
0001F80000
0001F80000
0001F80000
0001F80000
0001F80000
0001F80000
0001F80000
0001F80000
0001F80000
0001F80000
0001F80000
0001F80000
0001F80000
0001F80000
0001F80000
0001F80000
0001F80000
0000F80000
0000F80280
00007C0BD0
00003D1FD0
00001FFF80
0000015400
ENDCHAR
STARTCHAR uni01AB
ENCODING 427
SWIDTH 321 0
DWIDTH 12 0
BBX 11 32 1 -9
BITMAP
009000
01D000
03D000
07D000
1FD000
7FFFD0
5BE540
0BD000
0BD000
0BD000
0BD000
0BD000
0BD000
0BD000
0BD000
0BD000
0BD000
0BD000
0BD000
0BD010
07F5B4
03FFF4
01BE74
000074
000074
000074
000070
010070
07C0A0
07E1D0
02FF80
005400
ENDCHAR
STARTCHAR uni01AD
ENCODING 429
SWIDTH 315 0
DWIDTH 11 0
BBX 14 27 1 0
BITMAP
001BFE40
00797FD0
01E01FE0
02D007D0
07D00000
07D00000
0BD00000
0BD00000
1FD00000
7FFFD000
5BE54000
0BD00000
0BD00000
0BD00000
0BD00000
0BD00000
0BD00000
0BD00000
0BD00000
0BD00000
0BD00000
0BD00000
0BD00000
0BD01000
07F5A000
03FFC000
01BE0000
ENDCHAR
STARTCHAR Uhorn
ENCODING 431
SWIDTH 762 0
DWIDTH 27 0
BBX 30 31 0 0
BITMAP
0000000000000B80
0000000000000FD0
0000000000000FE0
0000000000000BE0
00000000000003D0
0000000000000380
0000000000000600
7FFFFC001FFFE400
1BFFE40006FE0000
00FF000000BD0000
00FE0000007C0000
00BE0000003C0000
00BE0000003C0000
00BE0000003C0000
00BE0000003C0000
00BE0000003C0000
00BE0000003C0000
00BE0000003C0000
00BE0000003C0000
00BE0000003C0000
00BE0000003C0000
00BE0000003C0000
00BE0000003C0000
00BE0000003C0000
00BF000000780000
007F400000B40000
003F800000F00000
002FE00002D00000
000BFD556F800000
0002FFFFFE000000
00001BFF90000000
ENDCHAR
STARTCHAR uhorn
ENCODING 432
SWIDTH 574 0
DWIDTH 21 0
BBX 21 24 0 0
BITMAP
000000000500
000000001F80
000000001FC0
000000000BC0
000000000780
000000000B40
16B4016BFE00
7FF403FFD000
07F4002FC000
02F4000FC000
02F4000FC000
02F4000FC000
02F4000FC000
02F4000FC000
02F4000FC000
02F4000FC000
02F4000FC000
02F4000FC000
02F4000FC000
02F8000FC000
01FC007FC000
00FF56EFD000
007FFF4FFD00
001BE40FA400
ENDCHAR
STARTCHAR uni01B5
ENCODING 437
SWIDTH 594 0
DWIDTH 21 0
BBX 20 24 1 0
BITMAP
1FFFFFFFFD
2FE9555BF8
2F00000FF0
2D00002FD0
2800007F80
280000FF00
100002FD00
000007F800
00000BF000
00001FD000
00007FC000
03FFFFFF80
0156FE5500
0007F80000
000FF00000
002FD00000
007F800000
00FF000005
02FD00000D
07F800001C
0FF000003C
2FD00000B8
BFD5555BF8
FFFFFFFFF4
ENDCHAR
STARTCHAR uni01BA
ENCODING 442
SWIDTH 430 0
DWIDTH 15 0
BBX 13 27 1 -9
BITMAP
FFFFFF80
FE55BF00
F001FD00
E003F400
D00BE000
402F8000
007E0000
00FC0000
02F94000
07FFF800
0016FF00
00003F80
00001FC0
00001FC0
00001FC0
00002F80
00007F40
0006FD00
006F9000
0BE40000
2D000000
74000500
70003F00
7000BF00
3D02FD00
1FFFF400
01554000
ENDCHAR
STARTCHAR uni01BB
ENCODING 443
SWIDTH 508 0
DWIDTH 18 0
BBX 16 26 1 0
BITMAP
006FE400
02FFFF40
0B957FD0
1D000FF0
340007F4
600003F8
100002F8
000002F8
000002F8
000003F4
000003F0
000007E0
00000BC0
3FFFFFFF
1555BD55
0000F400
0002E000
000B8000
001E0000
007C0001
01F40006
03D0000E
0F40002D
2FFFFFFD
BFFFFFFC
BFFFFFF8
ENDCHAR
STARTCHAR uni01BE
ENCODING 446
SWIDTH 406 0
DWIDTH 15 0
BBX 13 23 1 0
BITMAP
00600000
00E00000
02E00000
07E00000
1FE00000
7FFFF000
5BE55000
07E00000
07E00000
07F94000
001BE000
0002FC00
0000BE00
00003F00
00002F40
00002F80
00002F80
90002F40
A0002F40
B4003F00
BC007D00
BF96F800
A2FF9000
ENDCHAR
STARTCHAR uni01C0
ENCODING 448
SWIDTH 250 0
DWIDTH 9 0
BBX 3 26 3 0
BITMAP
FC
FC
FC
FC
FC
FC
FC
FC
FC
FC
FC
FC
FC
FC
FC
FC
FC
FC
FC
FC
FC
FC
FC
FC
FC
FC
ENDCHAR
STARTCHAR uni01C1
ENCODING 449
SWIDTH 423 0
DWIDTH 15 0
BBX 10 26 3 0
BITMAP
FC0BD0
FC0BD0
FC0BD0
FC0BD0
FC0BD0
FC0BD0
FC0BD0
FC0BD0
FC0BD0
FC0BD0
FC0BD0
FC0BD0
FC0BD0
FC0BD0
FC0BD0
FC0BD0
FC0BD0
FC0BD0
FC0BD0
FC0BD0
FC0BD0
FC0BD0
FC0BD0
FC0BD0
FC0BD0
FC0BD0
ENDCHAR
STARTCHAR uni01C2
ENCODING 450
SWIDTH 422 0
DWIDTH 15 0
BBX 13 26 1 0
BITMAP
003F0000
003F0000
003F0000
003F0000
003F0000
003F0000
003F0000
003F0000
BFFFFF80
557F5540
003F0000
003F0000
003F0000
003F0000
BFFFFF80
157F5540
003F0000
003F0000
003F0000
003F0000
003F0000
003F0000
003F0000
003F0000
003F0000
003F0000
ENDCHAR
STARTCHAR uni01C3
ENCODING 451
SWIDTH 245 0
DWIDTH 9 0
BBX 5 27 2 0
BITMAP
1500
3F00
7F00
7F40
7F00
7F00
3F00
3F00
3F00
3E00
3E00
2E00
2E00
2E00
2D00
2D00
1D00
1D00
1D00
1C00
0800
0000
0000
2E00
BF40
BF40
2E00
ENDCHAR
STARTCHAR uni01DE
ENCODING 478
SWIDTH 718 0
DWIDTH 26 0
BBX 26 33 0 0
BITMAP
0002FFFFF00000
00005555500000
00000000000000
0001E402E00000
0003F807F80000
0003F807F80000
0002E402E00000
00000000000000
00000000000000
000001E0000000
000002F0000000
000003F8000000
00000BFC000000
00000FFD000000
00001EBF000000
00002C7F400000
0000783F800000
0000B42FD00000
0000F00FE00000
0001E00BF00000
0003C007F80000
00078003FC0000
000B4002FD0000
001F0001FF0000
002FFFFFFF4000
003D5555BF8000
007800003FC000
00F400001FE000
01E000000FF000
02D000000BF800
07D000000BFD00
6FF500006FFF90
FFFE0000FFFFE0
ENDCHAR
STARTCHAR uni01DF
ENCODING 479
SWIDTH 480 0
DWIDTH 17 0
BBX 16 29 1 0
BITMAP
0FFFFF80
0FFFFF80
00000000
00000000
0B800B80
2FD02FD0
2FD02FD0
0B800B80
00000000
00000000
00000000
00AFE400
07E6FE00
1F403F40
2F401F80
3F001F80
1E001F80
00000F80
00006F80
001BEF80
01F90F80
0BD00F80
2F400F80
7E000F80
BE000F80
BE001FC0
7F006FD6
2FE68BFD
0BF907E4
ENDCHAR
STARTCHAR uni01F0
ENCODING 496
SWIDTH 263 0
DWIDTH 9 0
BBX 14 34 -4 -9
BITMAP
00400050
00B002C0
003C0B40
001F6E00
000BFC00
0003F400
00000000
0006B800
003FF800
0002F800
0001F800
0001F800
0001F800
0001F800
0001F800
0001F800
0001F800
0001F800
0001F800
0001F800
0001F800
0001F800
0001F800
0001F800
0001F800
0001F800
0001F800
0001F400
0001F400
2802F000
7F02E000
7F97C000
2FFE0000
05540000
ENDCHAR
STARTCHAR Aringacute
ENCODING 506
SWIDTH 718 0
DWIDTH 26 0
BBX 26 38 0 0
BITMAP
0000007F800000
000000FE000000
000002F4000000
00000BD0000000
00001E00000000
00000000000000
000007F8000000
00001E5E000000
00002C07400000
00003807400000
00003807400000
00002E1F000000
00000BFD000000
00000050000000
000001E0000000
000002F0000000
000003F8000000
00000BFC000000
00000FFD000000
00001EBF000000
00002C7F400000
0000783F800000
0000B42FD00000
0000F00FE00000
0001E00BF00000
0003C007F80000
00078003FC0000
000B4002FD0000
001F0001FF0000
002FFFFFFF4000
003D5555BF8000
007800003FC000
00F400001FE000
01E000000FF000
02D000000BF800
07D000000BFD00
6FF500006FFF90
FFFE0000FFFFE0
ENDCHAR
STARTCHAR aringacute
ENCODING 507
SWIDTH 480 0
DWIDTH 17 0
BBX 16 32 1 0
BITMAP
0002FD00
0007F400
001F8000
003E0000
00B40000
002FD000
00B5B400
01D03800
01D02C00
01D02C00
00F47800
007FE000
00050000
00000000
00AFE400
07E6FE00
1F403F40
2F401F80
3F001F80
1E001F80
00000F80
00006F80
001BEF80
01F90F80
0BD00F80
2F400F80
7E000F80
BE000F80
BE001FC0
7F006FD6
2FE68BFD
0BF907E4
ENDCHAR
STARTCHAR AEacute
ENCODING 508
SWIDTH 894 0
DWIDTH 32 0
BBX 32 31 -1 0
BITMAP
00000000002FC000
0000000000BF4000
0000000001F80000
0000000003D00000
000000000B400000
0000000000000000
0000000000000000
000002FFFFFFFFF8
0000007FFEAAABFC
0000002DFD0000BC
00000038FD00002C
000000B0FD00001C
000000E0FD00001C
000002C0FD000000
00000780FD000000
00000B00FD000300
00001E00FD000700
00003C00FD000700
00007801FD006F00
0000FFFFFFFFFF00
0002E555FD556F00
0003C000FD000700
000B4000FD000300
001F0000FD000000
002D0000FD000007
00780000FD00000B
00F00000FD00000E
02E00001FD00002E
07E00001FD00007D
6FF9005BFEAAABFD
BFFF00BFFFFFFFFD
ENDCHAR
STARTCHAR aeacute
ENCODING 509
SWIDTH 709 0
DWIDTH 26 0
BBX 24 25 1 0
BITMAP
000001A40000
000007F40000
00000BD00000
00001F400000
00002D000000
000038000000
000000000000
01BFE01BF900
0BE6FC796F80
2F407FE00BE0
3F002FC003F4
3F002F8001F8
2E002F8001FC
00002F8001FC
00006FFFFFFD
001BFF955554
01F92F800000
0B801F800000
2F001FC00000
7E001FD00004
BE000FE0001C
BE002FF90078
7F95E2FFFFF0
2FFF80BFFF80
0BF9001BF900
ENDCHAR
STARTCHAR Oslashacute
ENCODING 510
SWIDTH 737 0
DWIDTH 27 0
BBX 24 31 1 0
BITMAP
000000BF0000
000002FD0000
000007E00000
00000F400000
00002D000000
000000000000
000000000000
00006FFA40D0
000BF96BF6C0
007F4001FF40
01FD00003F80
03F400007FE0
0BE00000E7F4
0FD00002C3F8
2FC0000B42FC
2FC0001D01FD
3F80007801FE
3F8000E000FE
7F8002C000FE
7F800B4000FE
3F801D0000FE
3F80380001FD
2FC0A00001FD
2FC2C00002FC
1FD7400003F8
0BFD000007F0
07F800000BE0
01FD00002F80
02FF4000BE00
0B5BF96BF400
0D01AFFA4000
ENDCHAR
STARTCHAR oslashacute
ENCODING 511
SWIDTH 514 0
DWIDTH 19 0
BBX 17 25 1 0
BITMAP
0000690000
0001FD0000
0002F40000
0003D00000
000B800000
000E000000
0000000000
002BF92800
01F96FF400
0BD007F000
1F8003F800
3F400BFD00
7F001D7E00
BE00747F00
BE00E03F40
BE02C03F40
BE0B003F40
BE1D003F40
BE38003F00
7FA0007E00
3FC000BD00
1F8000F800
1FE002F400
3AFE6FC000
706FF90000
ENDCHAR
STARTCHAR uni0218
ENCODING 536
SWIDTH 504 0
DWIDTH 18 0
BBX 16 34 1 -10
BITMAP
006FF928
07F96FF8
1F8002F8
2F0000F8
3F000078
7F000038
3F400028
3FD00018
2FF40000
0BFE4000
02FFE000
00BFFE00
000BFFD0
0001FFF4
00002FFC
000007FE
A00001FE
A00000BF
B00000BF
B80000BE
BD0000BD
BF4001F8
7FE96FE0
716FFA40
00000000
00000000
000BD000
001FF000
001FF400
000BF400
0000B000
0000E000
0002C000
000E0000
ENDCHAR
STARTCHAR uni0219
ENCODING 537
SWIDTH 394 0
DWIDTH 14 0
BBX 13 28 1 -10
BITMAP
02FE8C00
1F9AFC00
3D007C00
7C002C00
BD001D00
7E000D00
7FD00000
2FF90000
07FF8000
01BFF400
001BFD00
0001FF00
90007F00
A0003F40
B4003F00
BC007E00
BF96F800
66FF9000
00000000
00000000
00BD0000
01FF0000
01FF4000
00BF4000
000B4000
000B0000
002D0000
00E00000
ENDCHAR
STARTCHAR uni021A
ENCODING 538
SWIDTH 603 0
DWIDTH 22 0
BBX 21 34 0 -10
BITMAP
3FFFFFFFFFC0
3F957F95AFC0
7C002F8007C0
74002F8002C0
70002F8001C0
70002F8001C0
10002F800040
00002F800000
00002F800000
00002F800000
00002F800000
00002F800000
00002F800000
00002F800000
00002F800000
00002F800000
00002F800000
00002F800000
00002F800000
00003F800000
00003F800000
00007FC00000
0006FFE90000
001FFFFF0000
000000000000
000000000000
00002F400000
00007FC00000
00007FD00000
00002FD00000
000002C00000
000003800000
00000B000000
000038000000
ENDCHAR
STARTCHAR uni021B
ENCODING 539
SWIDTH 315 0
DWIDTH 11 0
BBX 10 33 1 -10
BITMAP
009000
01D000
03D000
07D000
1FD000
7FFFD0
5BE540
0BD000
0BD000
0BD000
0BD000
0BD000
0BD000
0BD000
0BD000
0BD000
0BD000
0BD000
0BD000
0BD010
07F5A0
03FFC0
01BE00
000000
000000
00B900
01FE00
02FF00
00BF00
000B00
000E00
003800
01E000
ENDCHAR
STARTCHAR uni0221
ENCODING 545
SWIDTH 674 0
DWIDTH 24 0
BBX 24 32 1 -5
BITMAP
000000140000
00001BFC0000
00001AFC0000
000000FC0000
000000FC0000
000000FC0000
000000FC0000
000000FC0000
000000FC0000
001BF9FC0000
01FA6FFC0000
07D003FC0000
0F4001FC0000
2F0000FC0000
3E0000FC0000
7D0000FC0000
BD0000FC0000
BD0000FC0000
BD0000FC0000
BD0000FC0000
BE0000FC0000
7F0000FC07F8
7F8000FC1E6D
2FE006FC740D
1FFFFEBDD01C
07FFF47FDAF4
01BF801BFE80
0000000A0000
0000001D0000
000000380000
000000700000
000000E00000
ENDCHAR
STARTCHAR uni0228
ENCODING 552
SWIDTH 626 0
DWIDTH 23 0
BBX 21 33 1 -9
BITMAP
BFFFFFFFFD00
07FEAAABFD00
01FC00007D00
01FC00001D00
01FC00000D00
01FC00000900
01FC00000000
01FC00028000
01FC00028000
01FC00038000
01FD005B8000
01FFFFFF8000
01FD555F8000
01FC00038000
01FC00028000
01FC00028000
01FC00000000
01FC00000140
01FC00000340
01FC00000740
01FC00000F00
01FC00006F00
07FEAAABFE00
BFFFFFFFFE00
000014000000
000024000000
00003F800000
000016E00000
000000F00000
000000F00000
000156E00000
0000BF800000
000014000000
ENDCHAR
STARTCHAR uni0229
ENCODING 553
SWIDTH 464 0
DWIDTH 17 0
BBX 15 27 1 -9
BITMAP
006FE400
02E9BE00
0B801F80
1F000BD0
3E0007F0
7D0003F0
BD0003F4
BFFFFFF4
BD555550
BD000000
BD000000
BE000000
7F400000
3FC00034
1FF401E0
0BFFFFC0
02FFFF40
006FE800
00050000
00090000
000FE000
0005B800
00003C00
00003C00
0064B800
002FE000
00050000
ENDCHAR
STARTCHAR uni0234
ENCODING 564
SWIDTH 399 0
DWIDTH 14 0
BBX 15 32 0 -5
BITMAP
00500000
6FF00000
6BF00000
07F00000
03F00000
03F00000
03F00000
03F00000
03F00000
03F00000
03F00000
03F00000
03F00000
03F00000
03F00000
03F00000
03F00000
03F00000
03F00000
03F00000
03F01BE0
03F079B4
03F0E034
03F28034
03F700B0
01FF5BD0
006FF900
00280000
00700000
00E00000
01C00000
03400000
ENDCHAR
STARTCHAR uni0235
ENCODING 565
SWIDTH 702 0
DWIDTH 25 0
BBX 25 23 1 -5
BITMAP
16E06FD0000000
BFE1FFF8000000
0BEB46FD000000
07F800BE000000
07F0007E000000
07E0003F000000
07E0003F000000
07E0003F000000
07E0003F000000
07E0003F000000
07E0003F000000
07E0003F000000
07E0003F01BE00
07E0003F079740
07E0003F0D0240
07E0003F240740
6FF9001FB6BD00
FFFF4007FFA000
00000002800000
00000007400000
0000000A000000
0000001C000000
00000028000000
ENDCHAR
STARTCHAR uni0236
ENCODING 566
SWIDTH 406 0
DWIDTH 15 0
BBX 14 28 1 -5
BITMAP
00900000
01D00000
03D00000
07D00000
1FD00000
7FFFE000
5BE55000
0BD00000
0BD00000
0BD00000
0BD00000
0BD00000
0BD00000
0BD00000
0BD00000
0BD00000
0BD00000
0BD02F80
0BD0F5E0
0BD28060
07EA00E0
03FE6B80
00BFE900
00700000
00E00000
01C00000
03400000
07000000
ENDCHAR
STARTCHAR uni0237
ENCODING 567
SWIDTH 263 0
DWIDTH 9 0
BBX 11 27 -4 -9
BITMAP
0006B8
003FF8
0002F8
0001F8
0001F8
0001F8
0001F8
0001F8
0001F8
0001F8
0001F8
0001F8
0001F8
0001F8
0001F8
0001F8
0001F8
0001F8
0001F8
0001F8
0001F4
0001F4
2802F0
7F02E0
7F97C0
2FFE00
055400
ENDCHAR
STARTCHAR uni0250
ENCODING 592
SWIDTH 475 0
DWIDTH 17 0
BBX 16 18 0 0
BITMAP
1BD06FE0
7FE29BFC
97F900FD
02F400BE
02F4007E
02F400BD
02F400FC
02F403F4
02F46F40
02FBE400
02F90000
02F40000
02F400B8
02F400FC
01F800FC
00FC01F4
007F9BE0
001BFE40
ENDCHAR
STARTCHAR uni0251
ENCODING 593
SWIDTH 542 0
DWIDTH 20 0
BBX 18 18 1 0
BITMAP
001BF93C00
01F96FFC00
07D003FC00
0F4001FC00
2F0000FC00
3E0000FC00
7D0000FC00
BD0000FC00
BD0000FC00
BD0000FC00
BD0000FC00
BE0000FC00
7F0000FC00
7F8000FC00
2FE007FC00
1FFFFEFD00
07FFF4FFD0
01BF80F940
ENDCHAR
STARTCHAR uni0252
ENCODING 594
SWIDTH 544 0
DWIDTH 20 0
BBX 18 18 1 0
BITMAP
1AD06FE000
FFD2FFFC00
0BEFFFFE00
07F901FF40
07E0003F80
07E0001FC0
07E0000FD0
07E0000FD0
07E0000BD0
07E0000BD0
07E0000BC0
07E0000FC0
07E0000F80
07E0001F40
07F0003E00
07F800B800
07FE9BE000
070BFE4000
ENDCHAR
STARTCHAR uni0253
ENCODING 595
SWIDTH 518 0
DWIDTH 19 0
BBX 16 27 2 0
BITMAP
00BFE400
03D7FE00
0B00FF00
1F003E00
2E000400
3E000000
3E000000
7E000000
7E000000
7E02FE00
7E1FFFC0
7E7FFFE0
7FE01BF4
7F4003F8
7E0002FC
7E0001FD
7E0000FD
7E0000FD
7E0000FD
7E0000FD
7E0000FC
7E0001F8
7E0002F4
7E0003E0
7F400B80
7FE5BE00
06FFE400
ENDCHAR
STARTCHAR uni0254
ENCODING 596
SWIDTH 454 0
DWIDTH 16 0
BBX 14 18 1 0
BITMAP
01BFA000
07FFFD00
1FFFFF40
3900BF80
A0002FD0
80000FE0
000007F0
000003F0
000003F0
000003F0
000002F0
000003E0
140003D0
7E0007C0
BF000B80
7F802E00
1FE6F800
06FF9000
ENDCHAR
STARTCHAR uni0255
ENCODING 597
SWIDTH 447 0
DWIDTH 16 0
BBX 14 22 1 -4
BITMAP
002BF900
02F9BF80
0B801FD0
1F000BE0
3E0007E0
7D000140
7C000000
BC000000
BC000000
BC000000
BD000000
BE00BF80
7F03E5E0
3F8B00B0
1FEC00A0
0BFD06E0
02FFFF80
00EFF900
02C00000
03400000
07000000
0A000000
ENDCHAR
STARTCHAR uni0256
ENCODING 598
SWIDTH 528 0
DWIDTH 19 0
BBX 22 36 1 -9
BITMAP
000000140000
000006FC0000
00002FFC0000
000001FC0000
000000FC0000
000000FC0000
000000FC0000
000000FC0000
000000FC0000
001BF9FC0000
01F96FFC0000
07D003FC0000
0F4001FC0000
2F0000FC0000
3E0000FC0000
7D0000FC0000
BD0000FC0000
BD0000FC0000
BD0000FC0000
BD0000FC0000
BE0000FC0000
7F0000FC0000
7F8000FC0000
2FE007FC0000
1FFFFEFC0000
07FFF4FC0000
01BF80FC0000
000000FC0000
000000FC0000
000000BC0000
000000BC0000
0000007C0190
0000003C07E0
0000002E0FE0
0000000BFFC0
000000005500
ENDCHAR
STARTCHAR uni0257
ENCODING 599
SWIDTH 542 0
DWIDTH 20 0
BBX 23 27 1 0
BITMAP
00000002FF80
0000000F5FF0
0000002D07F4
0000003C01F0
000000BC0050
000000BC0000
000000FC0000
000000FC0000
000000FC0000
001BF9FC0000
01F96FFC0000
07D003FC0000
0F4001FC0000
2F0000FC0000
3E0000FC0000
7D0000FC0000
BD0000FC0000
BD0000FC0000
BD0000FC0000
BD0000FC0000
BE0000FC0000
7F0000FC0000
7F8000FC0000
2FE007FC0000
1FFFFEFD0000
07FFF4FFE000
01BF80FA4000
ENDCHAR
STARTCHAR uni0258
ENCODING 600
SWIDTH 466 0
DWIDTH 17 0
BBX 15 18 1 0
BITMAP
006FE400
02F9BE00
0BD00B80
1F4007D0
3F0002E0
7E0002F0
BE0001F4
BFFFFFF4
555556F8
000001F8
000002F4
000003F4
400007F0
A0001FE0
3D007FC0
1FFFFF40
07FFFD00
00BFA000
ENDCHAR
STARTCHAR uni0259
ENCODING 601
SWIDTH 464 0
DWIDTH 17 0
BBX 15 18 1 0
BITMAP
00BFA000
07FFFD00
1FFFFF40
3D00BFC0
A0001FE0
40000BF0
000003F4
000002F4
000002F4
000002F4
BFFFFFF4
BE5556F4
7E0002F0
3F0002E0
2F4007C0
0FC00B40
07F9BD00
00AFE000
ENDCHAR
STARTCHAR uni025A
ENCODING 602
SWIDTH 642 0
DWIDTH 23 0
BBX 22 18 1 0
BITMAP
01BFA0000000
07FFFD000000
1FFFFF400000
3900BFD0A010
A0001FEBE030
40000BF4F5A0
000003F47FC0
000002F40500
000002F40000
000002F40000
BFFFFFF40000
BE5556F40000
7E0002F00000
3F0002E00000
2F4007C00000
0FC00B400000
07F9BD000000
00AFE0000000
ENDCHAR
STARTCHAR uni025B
ENCODING 603
SWIDTH 399 0
DWIDTH 14 0
BBX 13 18 1 0
BITMAP
01BFE400
0FE6FE00
3F003F40
7E002F40
7E000900
7E000000
2F000000
07D40000
00BFD000
0BE54000
2F000000
7E000000
BD000000
BD000000
BE000180
7F901B00
1FFFFD00
02BF9000
ENDCHAR
STARTCHAR uni025C
ENCODING 604
SWIDTH 398 0
DWIDTH 14 0
BBX 12 18 1 0
BITMAP
1AFE80
7F9AF4
FE00BD
FC007E
64007E
00007E
0000BC
0016E0
03FF40
015BE4
0000FD
00007E
00003F
00003F
40007F
D000BD
7E5BF8
06FE80
ENDCHAR
STARTCHAR uni025D
ENCODING 605
SWIDTH 575 0
DWIDTH 21 0
BBX 20 18 1 0
BITMAP
1BFF900000
7F9AF80000
FD00BD0000
F8007E1D00
10007FFD05
00007E1E5D
0000B40BF8
0016400140
03FFE00000
015BFC0000
0000FE0000
00007F0000
00003F0000
00003F0000
40007E0000
D000BD0000
7E5BF40000
06FE800000
ENDCHAR
STARTCHAR uni025E
ENCODING 606
SWIDTH 500 0
DWIDTH 18 0
BBX 16 18 1 0
BITMAP
001BFE40
01FE5BE0
07E001FC
1F8000BD
2F0000BD
7E0000BD
BD0000F8
BD0017E0
BD03FF00
BD015BE0
BD0001F8
7D0000BD
7E00007E
2F00007E
1F8000BE
07E001FC
01FE6FF4
001BFE40
ENDCHAR
STARTCHAR uni025F
ENCODING 607
SWIDTH 272 0
DWIDTH 10 0
BBX 14 27 -4 -9
BITMAP
0005B800
003FF800
0002F800
0001F800
0001F800
0001F800
0001F800
0001F800
003FFFD0
0015F940
0001F800
0001F800
0001F800
0001F800
0001F800
0001F800
0001F800
0001F800
0001F800
0001F800
0001F800
0001F400
1901F000
7F02E000
3F97C000
2FFF4000
01540000
ENDCHAR
STARTCHAR uni0260
ENCODING 608
SWIDTH 541 0
DWIDTH 19 0
BBX 23 36 1 -9
BITMAP
00000001BFE0
0000000B5BF8
0000002D02FC
0000003C00FC
000000BC0010
000000BC0000
000000FC0000
000000FC0000
000000FC0000
001BF9FC0000
01F96FFC0000
07D007FC0000
0F4001FC0000
2F0000FC0000
3E0000FC0000
7D0000FC0000
BD0000FC0000
BD0000FC0000
BD0000FC0000
BD0000FC0000
BE0000FC0000
BF0000FC0000
7F8000FC0000
3FE007FC0000
1FFFFEFC0000
07FFF4FC0000
01BF80FC0000
000000F80000
000000F80000
000001F80000
040001F40000
3E0002F00000
3F8007D00000
2FE01F800000
0BFFFD000000
005540000000
ENDCHAR
STARTCHAR uni0261
ENCODING 609
SWIDTH 521 0
DWIDTH 19 0
BBX 15 27 1 -9
BITMAP
001BF92C
01F96FFC
07D007FC
0F4001FC
2F0000FC
3E0000FC
7D0000FC
BD0000FC
BD0000FC
BD0000FC
BD0000FC
BE0000FC
BF0000FC
7F8000FC
3FE007FC
1FFFFEFC
07FFF4FC
01BF80FC
000000F8
000000F8
000001F8
040001F4
3E0002F0
3F8007D0
2FE01F80
0BFFFD00
00555000
ENDCHAR
STARTCHAR uni0262
ENCODING 610
SWIDTH 535 0
DWIDTH 19 0
BBX 18 18 1 0
BITMAP
001AFE4A00
01FE5AFE00
07E0007E00
1F80001E00
3F40000A00
7F00000600
BE00000000
BE00000000
BE00000000
BE0007FFE0
BE0001BF50
BE00007E00
7F00003E00
3F40003E00
1FC0003E00
0BE0007E00
02FE5AF900
001BFE9000
ENDCHAR
STARTCHAR uni0263
ENCODING 611
SWIDTH 479 0
DWIDTH 17 0
BBX 19 26 -1 -8
BITMAP
BFFF007FFC
6FF9005FE4
07F4000780
03F4000B40
01FC000F00
00FD001E00
00BE002C00
007F003800
003F407400
001F80F000
000FD1D000
000BE2C000
0007F38000
0003FB4000
0001FE0000
0000FD0000
0000BE0000
0000FF0000
0001EF4000
00029F8000
00034FC000
000707D000
000B07D000
000B07D000
00079F8000
0002FE0000
ENDCHAR
STARTCHAR uni0264
ENCODING 612
SWIDTH 466 0
DWIDTH 17 0
BBX 17 18 0 0
BITMAP
1BF806F800
7E6FBE7F00
BC07E01F40
F803F41F40
640ABC0A00
001C7E0000
00382F0000
00701F8000
00A00FC000
00D00FC000
01C00BD000
01C00BD000
02C00BD000
01C00BD000
01D00BC000
00E01F8000
0079BE0000
001BF40000
ENDCHAR
STARTCHAR uni0265
ENCODING 613
SWIDTH 553 0
DWIDTH 20 0
BBX 20 26 0 -8
BITMAP
06B4001BC0
7FF401FFC0
07F4001FC0
02F4000FC0
02F4000FC0
02F4000FC0
02F4000FC0
02F4000FC0
02F4000FC0
02F4000FC0
02F4000FC0
02F4000FC0
02F4000FC0
02F8000FC0
01FC007FC0
00FF56EFC0
007FFF4FC0
001BE40FC0
0000000FC0
0000000FC0
0000000FC0
0000000FC0
0000000FC0
0000000FD0
0000000FF9
0000000FFF
ENDCHAR
STARTCHAR uni0266
ENCODING 614
SWIDTH 577 0
DWIDTH 21 0
BBX 19 26 1 0
BITMAP
000BFE4000
00797FE000
00F00FE000
02E002D000
03E0000000
07E0000000
07E0000000
07E0000000
07E06FE000
07E2FFFC00
07EB55FE00
07F8007F00
07E0003F00
07E0002F40
07E0002F40
07E0002F40
07E0002F40
07E0002F40
07E0002F40
07E0002F40
07E0002F40
07E0002F40
07E0002F40
0BE0002F80
6FF901BFE4
FFFF47FFFC
ENDCHAR
STARTCHAR uni0267
ENCODING 615
SWIDTH 562 0
DWIDTH 20 0
BBX 17 36 1 -9
BITMAP
000BFE4000
00797FD000
00F00FE000
02E007E000
03E0004000
07E0000000
07E0000000
07E0000000
07E0000000
07E06FE000
07E2FFFC00
07EB55FE00
07F8007F00
07E0003F00
07E0002F40
07E0002F40
07E0002F40
07E0002F40
07E0002F40
07E0002F40
07E0002F40
07E0002F40
07E0002F40
07E0002F40
0BE0002F40
6FF9002F40
FFFF402F40
0000002F40
0000002F40
0000002F40
0000002F00
0002802E00
000BE03D00
000BF8B800
0002FFE000
0000550000
ENDCHAR
STARTCHAR uni0268
ENCODING 616
SWIDTH 295 0
DWIDTH 11 0
BBX 9 26 1 0
BITMAP
02E000
0BF400
0BF400
02E000
000000
000000
000000
000000
06F000
BFF000
1BF000
07F000
03F000
03F000
03F000
07F000
BFFF80
57F500
03F000
03F000
03F000
03F000
03F000
07F000
6FF940
BFFF40
ENDCHAR
STARTCHAR uni0269
ENCODING 617
SWIDTH 286 0
DWIDTH 10 0
BBX 11 18 0 0
BITMAP
06B400
7FF400
07F400
02F400
02F400
02F400
02F400
02F400
02F400
02F400
02F400
02F400
02F400
02F400
02F404
02FD68
00FFF0
006F80
ENDCHAR
STARTCHAR uni026A
ENCODING 618
SWIDTH 287 0
DWIDTH 10 0
BBX 9 18 1 0
BITMAP
FFFF40
6FF900
07E000
07E000
07E000
07E000
07E000
07E000
07E000
07E000
07E000
07E000
07E000
07E000
07E000
07E000
6FF900
FFFF40
ENDCHAR
STARTCHAR uni026B
ENCODING 619
SWIDTH 290 0
DWIDTH 10 0
BBX 11 26 0 0
BITMAP
05B800
3FF800
02F800
01F800
01F800
01F800
01F800
01F800
01F800
01F800
01F814
1FF874
7FFFF0
D1FF90
41F800
01F800
01F800
01F800
01F800
01F800
01F800
01F800
01F800
01F800
1BFE50
3FFFD0
ENDCHAR
STARTCHAR uni026C
ENCODING 620
SWIDTH 318 0
DWIDTH 11 0
BBX 13 26 -1 0
BITMAP
005B8000
03FF8000
002F8000
001F8000
001F8000
001F8000
001F8000
001F8000
06FF8000
1FAF8000
3D1F8000
3C1F8000
7C1F8040
3D1F8740
2F5FAD00
0FFFF400
01BF8000
001F8000
001F8000
001F8000
001F8000
001F8000
001F8000
001FC000
01BFE500
02FFFD00
ENDCHAR
STARTCHAR uni026D
ENCODING 621
SWIDTH 248 0
DWIDTH 9 0
BBX 13 36 0 -9
BITMAP
00500000
1BF00000
BFF00000
07F00000
03F00000
03F00000
03F00000
03F00000
03F00000
03F00000
03F00000
03F00000
03F00000
03F00000
03F00000
03F00000
03F00000
03F00000
03F00000
03F00000
03F00000
03F00000
03F00000
03F00000
03F00000
03F00000
03F00000
03F00000
03F00000
03F00000
02F00000
02F00500
01F41F80
00B97F80
002FFF00
00015400
ENDCHAR
STARTCHAR uni026E
ENCODING 622
SWIDTH 590 0
DWIDTH 21 0
BBX 20 36 1 -9
BITMAP
0050000000
6BE0000000
FFE0000000
0BE0000000
07E0000000
07E0000000
07E0000000
07E0000000
07E0000000
07FFFFFFFC
07E55557F8
07E0000BF0
07E0001FD0
07E0003F80
07E000BF00
07E001FD00
07E003F800
07E00BF000
07E01FD000
07E03F8000
07E07FE400
07E005BF80
07E0001FE0
07E00003F8
0BE00001FC
6FF90000FD
FFFF4000BE
00000000BE
00000000BE
00000000BD
00050000FC
002F0001F8
003F8007E0
002FD06F80
000BFFF900
0000554000
ENDCHAR
STARTCHAR uni026F
ENCODING 623
SWIDTH 846 0
DWIDTH 30 0
BBX 30 18 0 0
BITMAP
06B4006B4005BC00
7FF403FF402FFC00
07F4002F4001FC00
02F4002F4000FC00
02F4002F4000FC00
02F4002F4000FC00
02F4002F4000FC00
02F4002F4000FC00
02F4002F4000FC00
02F4002F4000FC00
02F4002F4000FC00
02F4002F4000FC00
02F4002F8000FC00
02F4002F8001FC00
01F800BFC007FC00
00FE47DFE46DFD00
00BFFE07FFE0FFD0
001BE401BE40F900
ENDCHAR
STARTCHAR uni0270
ENCODING 624
SWIDTH 826 0
DWIDTH 30 0
BBX 30 26 0 -8
BITMAP
06B4006B4005BC00
7FF403FF402FFC00
07F4002F4001FC00
02F4002F4000FC00
02F4002F4000FC00
02F4002F4000FC00
02F4002F4000FC00
02F4002F4000FC00
02F4002F4000FC00
02F4002F4000FC00
02F4002F4000FC00
02F4002F4000FC00
02F4002F8000FC00
02F4002F8001FC00
01F800BFC007FC00
00FE57DFE56DFC00
00BFFE07FFE4FC00
001BE401BE40FC00
000000000000FC00
000000000000FC00
000000000000FC00
000000000000FC00
000000000000FC00
000000000000FC00
000000000000FE50
000000000000FFE0
ENDCHAR
STARTCHAR uni0271
ENCODING 625
SWIDTH 835 0
DWIDTH 30 0
BBX 27 27 1 -9
BITMAP
16E02FE002FE00
BFE1FFF81FFFC0
1BEB96FDB95FE0
07F8007FD007F0
07E0003F4003F0
07E0003F0002F4
07E0003F0002F4
07E0003F0002F4
07E0003F0002F4
07E0003F0002F4
07E0003F0002F4
07E0003F0002F4
07E0003F0002F4
07E0003F0002F4
07E0003F0002F4
0BF0007F4002F4
6FF906FFE402F4
FFFF4BFFF802F4
000000000002F4
000000000002F4
000000000002F0
000000000002F0
000000002403E0
00000000BE03D0
00000000BF4B80
000000003FFE00
00000000055000
ENDCHAR
STARTCHAR uni0272
ENCODING 626
SWIDTH 574 0
DWIDTH 21 0
BBX 24 27 -4 -9
BITMAP
0005B80BF800
003FF87FFE00
0002F6D07F80
0001FE001FC0
0001F8000FC0
0001F8000FD0
0001F8000BD0
0001F8000BD0
0001F8000BD0
0001F8000BD0
0001F8000BD0
0001F8000BD0
0001F8000BD0
0001F8000BD0
0001F8000BD0
0001F8000FD0
0001F8016FF9
0001F801FFFF
0001F8000000
0001F8000000
0001F4000000
0001F4000000
1802F0000000
7E02E0000000
7F97C0000000
2FFE00000000
055400000000
ENDCHAR
STARTCHAR uni0273
ENCODING 627
SWIDTH 563 0
DWIDTH 20 0
BBX 23 27 1 -9
BITMAP
16E02FE00000
FFE1FFFC0000
1BEB56FE0000
07F8007F0000
07E0003F0000
07E0002F4000
07E0002F4000
07E0002F4000
07E0002F4000
07E0002F4000
07E0002F4000
07E0002F4000
07E0002F4000
07E0002F4000
07E0002F4000
0BE0002F4000
6FF9002F4000
FFFF402F4000
0000002F4000
0000002F4000
0000002F4000
0000001F4000
0000000F4064
0000000B80FC
00000007D6FC
00000001FFF4
000000001540
ENDCHAR
STARTCHAR uni0274
ENCODING 628
SWIDTH 568 0
DWIDTH 20 0
BBX 20 18 0 0
BITMAP
7FF4003FFF
2FFC001BF9
03FE0002E0
02FF8001D0
02FFD001D0
029FF000D0
0287F800D0
0281FE00D0
0280BF40D0
02802FD0D0
02800FF0D0
028007F8D0
028001FED0
028000BFD0
02C0002FD0
03C0000FD0
1BE40007D0
7FFD0001D0
ENDCHAR
STARTCHAR uni0275
ENCODING 629
SWIDTH 514 0
DWIDTH 19 0
BBX 17 18 1 0
BITMAP
002BF90000
01F96FD000
0BD003F400
1F8001FC00
3F0000BD00
7F00007F00
BE00007F00
BE00007F40
BFFFFFFF40
BE55557F40
BE00003F00
BE00007F00
7F00007E00
3F4000BD00
1F8000F800
0BE002F000
02FE6FC000
006BF90000
ENDCHAR
STARTCHAR uni0276
ENCODING 630
SWIDTH 732 0
DWIDTH 26 0
BBX 24 18 1 0
BITMAP
001BFFFFFFFC
01FE5BF956BC
0BE002F4002D
1F8002F4000D
3F4002F4000D
7F0002F40000
BF0002F400C0
BE0002F406C0
BE0002FFFFC0
BE0002F956C0
BE0002F400C0
BF0002F400C0
7F0002F40001
3F4002F40007
1F8002F4000B
0BE002F4001E
02FE5BF956BE
002BFFFFFFFD
ENDCHAR
STARTCHAR uni0277
ENCODING 631
SWIDTH 672 0
DWIDTH 24 0
BBX 22 18 1 0
BITMAP
0001BFE90000
002FA5AF9000
01F80002F800
07E000007E00
1F8000002F40
2F4000000FC0
3F0006000BD0
7E002FC00BE0
BE003FC007E0
BE002FC007F0
BE002F8007F0
BE001F8007F0
BE000F400BE0
7F000F400BD0
2F400F401FC0
1FC029C02F40
07F5B0B9BD00
00BF801FE400
ENDCHAR
STARTCHAR uni0278
ENCODING 632
SWIDTH 658 0
DWIDTH 24 0
BBX 22 35 1 -8
BITMAP
000005000000
0001BF400000
0007FF400000
00003F400000
00002F400000
00002F400000
00002F400000
00002F400000
00002F400000
001BFFFA4000
01FEAFAFF400
07F42F42FD00
0FD02F40BF00
2F402F403F80
3F002F402FC0
7E002F401FD0
BE002F400FD0
BE002F400FD0
BE002F400FD0
BE002F400FD0
BE002F400FC0
7F002F401F80
3F402F402F40
1FC02F403E00
0BF02F40F800
02FE6F5BE000
001BFFFA4000
00002F400000
00002F400000
00002F400000
00002F400000
00002F400000
00002F400000
0001BFE40000
0007FFFC0000
ENDCHAR
STARTCHAR uni0279
ENCODING 633
SWIDTH 380 0
DWIDTH 14 0
BBX 13 18 0 0
BITMAP
01FFFF80
006FFD40
0007F000
0003F000
0003F000
0003F000
0003F000
0003F000
0003F000
0003F000
0003F000
0003F000
0003F000
000BF000
7D2BF000
BFF3F900
BFC3FF40
6E03E400
ENDCHAR
STARTCHAR uni027A
ENCODING 634
SWIDTH 374 0
DWIDTH 13 0
BBX 13 27 0 0
BITMAP
00005000
006FF000
006BF000
0003F000
0003F000
0003F000
0003F000
0003F000
0003F000
0003F000
0003F000
0003F000
0003F000
0003F000
0003F000
0003F000
0003F000
0003F000
0003F000
0003F000
0003F000
0007F000
000FF000
7D2BF000
BFF3F900
BFC3FF40
6E03E400
ENDCHAR
STARTCHAR uni027B
ENCODING 635
SWIDTH 375 0
DWIDTH 14 0
BBX 17 27 0 -9
BITMAP
01FFFF8000
006FFD4000
0007F40000
0003F00000
0003F00000
0003F00000
0003F00000
0003F00000
0003F00000
0003F00000
0003F00000
0003F00000
0003F00000
000BF00000
7D2BF00000
BFF3F00000
BFC3F00000
6E03F00000
0003F00000
0003F00000
0002F00000
0002F00000
0001F40640
0000F41FC0
00007D7F80
00001FFF40
0000015400
ENDCHAR
STARTCHAR uni027C
ENCODING 636
SWIDTH 378 0
DWIDTH 14 0
BBX 13 26 1 -8
BITMAP
06E07E00
BFE2FF40
5BE7FF40
07ED1E00
07F80000
07F00000
07E00000
07E00000
07E00000
07E00000
07E00000
07E00000
07E00000
07E00000
07E00000
07E00000
07E00000
07E00000
07E00000
07E00000
07E00000
07E00000
07E00000
0BF00000
6FF94000
FFFFC000
ENDCHAR
STARTCHAR uni027D
ENCODING 637
SWIDTH 373 0
DWIDTH 13 0
BBX 13 27 1 -9
BITMAP
16D0BD00
FFD2FF00
5FDBFF00
0BEC2E00
0BF40000
0BE00000
0BD00000
0BD00000
0BD00000
0BD00000
0BD00000
0BD00000
0BD00000
0BD00000
0BD00000
0BD00000
0BD00000
0BD00000
0BD00000
0BD00000
07D00000
07D00000
03E01900
02E03F40
00F5BF00
007FFE00
00055000
ENDCHAR
STARTCHAR uni027E
ENCODING 638
SWIDTH 371 0
DWIDTH 13 0
BBX 13 18 0 0
BITMAP
0006FE40
001E7FC0
007C1FC0
00B80640
00F80000
01F40000
01F40000
02F40000
02F40000
02F40000
02F40000
02F40000
02F40000
02F40000
02F40000
02F80000
1BFE5000
7FFFE000
ENDCHAR
STARTCHAR uni027F
ENCODING 639
SWIDTH 371 0
DWIDTH 13 0
BBX 13 18 0 0
BITMAP
2FE40000
BFAE0000
BD0B8000
2407C000
0003D000
0003E000
0003E000
0003F000
0003F000
0003F000
0003F000
0003F000
0003F000
0003F000
0003F000
0007F000
016FF940
01FFFF80
ENDCHAR
STARTCHAR uni0280
ENCODING 640
SWIDTH 494 0
DWIDTH 18 0
BBX 18 18 1 0
BITMAP
BFFFF90000
0BE56F8000
07E007E000
07E003F000
07E002F400
07E003F000
07E003F000
07E00BD000
07E16F4000
07FFF40000
07E6F40000
07E0FD0000
07E07F4000
07E02FC000
07E00FE000
07E007F800
6FF902FE40
FFFF00FFD0
ENDCHAR
STARTCHAR uni0281
ENCODING 641
SWIDTH 494 0
DWIDTH 18 0
BBX 18 18 1 0
BITMAP
FFFF00FFD0
6FF902FE40
07E007F800
07E00FE000
07E02FC000
07E07F4000
07E0FE0000
07E2F80000
07FFF40000
07E5BF4000
07E00BD000
07E003F000
07E003F000
07E002F400
07E003F000
07E007E000
0BE5AF8000
BFFFF90000
ENDCHAR
STARTCHAR uni0282
ENCODING 642
SWIDTH 395 0
DWIDTH 14 0
BBX 13 27 1 -9
BITMAP
02FE8C00
1F9AFC00
3D007C00
7C002C00
BD001D00
7E000D00
7FD00000
2FF90000
0BFF8000
01BFF400
001FFD00
0001FF00
A0007F00
B0003F40
B4003F00
BC007E00
BF96F800
B6BF9000
B0000000
70000000
70000000
70000000
74050000
341F0000
2C3F0000
0BFD0000
01540000
ENDCHAR
STARTCHAR uni0283
ENCODING 643
SWIDTH 253 0
DWIDTH 9 0
BBX 17 36 -4 -9
BITMAP
00000BFE00
00003DBF80
0000B42FC0
0000F00B80
0001F00000
0002F00000
0002F00000
0003F00000
0003F00000
0003F00000
0003F00000
0003F00000
0003F00000
0003F00000
0003F00000
0003F00000
0003F00000
0003F00000
0003F00000
0003F00000
0003F00000
0003F00000
0003F00000
0003F00000
0003F00000
0003F00000
0003F00000
0003F00000
0003F00000
0003F00000
0003E00000
6403E00000
BD03D00000
BF0B800000
2FFE000000
0554000000
ENDCHAR
STARTCHAR uni0284
ENCODING 644
SWIDTH 286 0
DWIDTH 10 0
BBX 17 35 -3 -9
BITMAP
00000BF900
00007DBF00
0000F42F40
0002F00900
0003E00000
0003E00000
0007E00000
0007E00000
0007E00000
0007E00000
0007E00000
0007E00000
0007E00000
0007E00000
0007E00000
0007E00000
0007E00000
0007E00000
0007E00000
0007E00000
0007E00000
0007E00000
0007E00000
0007E00000
005BE54000
01FFFF8000
0007E00000
0007E00000
0007D00000
0007D00000
0007C00000
B80B800000
FE0E000000
BFF8000000
0550000000
ENDCHAR
STARTCHAR uni0285
ENCODING 645
SWIDTH 361 0
DWIDTH 13 0
BBX 17 27 0 -9
BITMAP
1BF8000000
7F9F000000
BE07800000
7803D00000
0003E00000
0003E00000
0003F00000
0003F00000
0003F00000
0003F00000
0003F00000
0003F00000
0003F00000
0003F00000
0003F00000
0003F00000
0003F00000
0003F00000
0003F00000
0003F00000
0003F00000
0002F00000
0002F00640
0001F41F80
0000B83F80
00002FFF00
0000055400
ENDCHAR
STARTCHAR uni0286
ENCODING 646
SWIDTH 253 0
DWIDTH 9 0
BBX 16 36 -3 -9
BITMAP
00002FF8
0000F6FE
0002D0BF
0003C02E
000BC000
000BC000
000BC000
000FC000
000FC000
000FC000
000FC000
000FC000
000FC000
000FC000
000FC000
000FC000
000FC000
000FC000
000FC000
000FC000
000FC000
000FC000
000FC000
000FC000
000FC000
000FC000
000FC000
000FC000
1BFFC000
7D5FF400
E00FEE00
D00F8700
D01F4000
F02E0000
7FF80000
05500000
ENDCHAR
STARTCHAR uni0287
ENCODING 647
SWIDTH 315 0
DWIDTH 11 0
BBX 10 23 0 -5
BITMAP
07F400
2FFD00
75BE00
403F00
003F00
003F00
003F00
003F00
003F00
003F00
003F00
003F00
003F00
003F00
003F00
003F00
157F50
3FFFE0
003F80
003E00
003D00
003800
003400
ENDCHAR
STARTCHAR uni0288
ENCODING 648
SWIDTH 309 0
DWIDTH 11 0
BBX 13 32 1 -9
BITMAP
00900000
01D00000
02D00000
07D00000
1FD00000
7FFFE000
5BE55000
0BD00000
0BD00000
0BD00000
0BD00000
0BD00000
0BD00000
0BD00000
0BD00000
0BD00000
0BD00000
0BD00000
0BD00000
0BD00000
0BD00000
0BD00000
0BD00000
0BD00000
07D00000
07D00000
07E00000
03E01A00
02E03F40
00F5BF40
002FFE00
00055000
ENDCHAR
STARTCHAR uni0289
ENCODING 649
SWIDTH 580 0
DWIDTH 21 0
BBX 19 18 1 0
BITMAP
ABD006AF00
AFD006FF00
0BD0003F00
0BD0003F00
0BD0003F00
0BD0003F00
0BD0003F40
FFFFFFFFF8
5BE5557F54
0BD0003F00
0BD0003F00
0BD0003F00
07E0003F00
07E0003F00
07F401FF00
03FD5BAF40
01FFFD2FF8
006FE02E90
ENDCHAR
STARTCHAR uni028A
ENCODING 650
SWIDTH 548 0
DWIDTH 20 0
BBX 18 18 1 0
BITMAP
3FFC03FFC0
1AF402F940
00E000E000
01D000B400
07C0003C00
0F80002E00
1F40001F40
3F00001F80
7F00001FC0
7F00000FC0
7F00000FD0
7F00001FC0
7F00001FC0
3F40002F80
1F80003F00
0BE000BD00
01FE5BF400
001BFE4000
ENDCHAR
STARTCHAR uni028B
ENCODING 651
SWIDTH 530 0
DWIDTH 19 0
BBX 17 18 1 0
BITMAP
ABD001F400
AFD001FC00
0FD000FE00
0BD0007F00
0BD0002F00
0BD0000F40
0BD0000B40
0BD0000740
0BD0000740
0BD0000740
0BD0000700
0BD0000700
0BD0000A00
0BE0001D00
07F4003800
03FD56F000
01FFFF8000
002BF90000
ENDCHAR
STARTCHAR uni028C
ENCODING 652
SWIDTH 495 0
DWIDTH 18 0
BBX 19 18 -1 0
BITMAP
00007C0000
0000BD0000
0000FE0000
0001FF0000
0002AF4000
00075FC000
000B0FD000
000E0BE000
001D07F000
002C03F400
007801F800
00B400FD00
00F000BE00
01D0007F00
02C0003F40
07C0002FC0
2FE401BFE4
7FFC02FFFC
ENDCHAR
STARTCHAR uni028D
ENCODING 653
SWIDTH 764 0
DWIDTH 28 0
BBX 29 18 -1 0
BITMAP
0000780007800000
0000BC000FC00000
0000FD001FD00000
0001FE002FE00000
0003BF003BF00000
00076F8072F80000
000B1FC0A1FC0000
000E0FD1D0FD0000
001D07E2C0BE0000
002C03F3807F0000
003802FB002F4000
00B401FE001FC000
00F000FD000FD000
01E000BD000BE000
02D0007F0007F000
07C0003F4003F800
2FE401BFE41BFE40
7FFC03FFF83FFFC0
ENDCHAR
STARTCHAR uni028E
ENCODING 654
SWIDTH 492 0
DWIDTH 18 0
BBX 18 27 0 0
BITMAP
0000006F80
000002FFD0
000007FFD0
00000F5B80
00002D0000
00003C0000
0000740000
0000B00000
0001E00000
0002E00000
0003E00000
0007F40000
000BF80000
000EFC0000
001CBE0000
002C7F0000
00383F4000
00742FC000
00B00FD000
01E00BE000
02D007F400
03C002F800
078001FC00
0B4000FE00
0F0000BF00
7F9006FFD0
FFF00BFFF0
ENDCHAR
STARTCHAR uni028F
ENCODING 655
SWIDTH 454 0
DWIDTH 16 0
BBX 18 18 -1 0
BITMAP
BFFE00BFF0
6FF9006F90
0BF0000E00
02F4001C00
00FC003400
007E00A000
002F41D000
001FC28000
000BE70000
0003FD0000
0001FC0000
0000FC0000
0000FC0000
0000FC0000
0000FC0000
0001FC0000
0017FE5000
002FFFE000
ENDCHAR
STARTCHAR uni0290
ENCODING 656
SWIDTH 458 0
DWIDTH 16 0
BBX 20 27 1 -9
BITMAP
3FFFFFF000
7E555FE000
78001FD000
74003F8000
7000BE0000
1001FD0000
0003F80000
000BF00000
001FD00000
003F800000
00BF000000
01FD000000
03F8003400
0BF0007400
1FD000B000
3F8001F000
BF955BF000
FFFFFFF000
000000B000
000000B000
000000B000
000000B000
0000007004
000000741F
000000283F
0000000FFD
0000000150
ENDCHAR
STARTCHAR uni0291
ENCODING 657
SWIDTH 458 0
DWIDTH 16 0
BBX 15 24 1 -6
BITMAP
3FFFFFF0
7E555FE0
78001FD0
74003F80
7000BE00
1001FD00
0003F800
000BF000
001FD000
003F8000
00BF0000
01FD0000
03F80BF4
0BF0397C
1FD0E01C
3F82C02C
BF9795B4
FFFFFE90
001D0000
00380000
00700000
00E00000
01C00000
01800000
ENDCHAR
STARTCHAR uni0292
ENCODING 658
SWIDTH 443 0
DWIDTH 16 0
BBX 15 27 1 -9
BITMAP
7FFFFFE0
BE556FD0
B4002F80
B000BF00
A001FD00
4002F800
000BF000
001FD000
003F8000
00BF0000
01FD0000
02FF9000
0016FD00
00007F80
00001FD0
00000BF0
000007F0
000003F4
000003F4
000003F4
000003F4
640007E0
FC000BD0
FD001F80
BF01BD00
2FFFE000
05550000
ENDCHAR
STARTCHAR uni0293
ENCODING 659
SWIDTH 443 0
DWIDTH 16 0
BBX 15 32 1 -14
BITMAP
7FFFFFE0
BE556FD0
B4002F80
B000BF00
A001FD00
4002F800
000BF000
001FD000
002F8000
00BF0000
01FD0000
02FF9000
0016FD00
00007F80
00001FD0
00000BE0
000007F0
000003F4
000003F4
2F8003F4
B5F007F0
E03807E0
A01D0FD0
740B2F40
2F97FD00
06BFE000
0000E000
00007400
00002C00
00000D00
00000B00
00000100
ENDCHAR
STARTCHAR uni0294
ENCODING 660
SWIDTH 383 0
DWIDTH 14 0
BBX 13 26 1 0
BITMAP
06FF9000
2F96FC00
BD007E00
FC003F40
FC002F40
64002F80
00002F80
00002F80
00002F40
00003F40
00007E00
0000FC00
0003F400
006F8000
07F40000
07E00000
07E00000
07E00000
07E00000
07E00000
07E00000
07E00000
07E00000
0BF00000
6FF94000
FFFF8000
ENDCHAR
STARTCHAR uni0295
ENCODING 661
SWIDTH 383 0
DWIDTH 14 0
BBX 13 26 0 0
BITMAP
01BFE400
0BE5BE00
2F402F40
7E001F80
BD001F80
BD000A40
FD000000
BD000000
BD000000
7E000000
3F000000
1F800000
07E00000
01BD0000
0007E000
0002F400
0002F400
0002F400
0002F400
0002F400
0002F400
0002F400
0003F400
0003F400
006FFE40
00FFFFC0
ENDCHAR
STARTCHAR uni0296
ENCODING 662
SWIDTH 408 0
DWIDTH 15 0
BBX 13 27 1 0
BITMAP
00500000
6FF00000
6BF00000
03F00000
03F00000
03F00000
03F00000
03F00000
03F00000
03F00000
03F00000
03F00000
02B90000
001BD000
0002F800
0000BD00
00007F00
00003F40
00002F80
00002F80
00002F80
B8002F80
FC002F40
FC003F00
BD007D00
2F41F800
06FF9000
ENDCHAR
STARTCHAR uni0297
ENCODING 663
SWIDTH 437 0
DWIDTH 16 0
BBX 15 25 1 -7
BITMAP
001BF900
00B9BF80
03D01FD0
0B800FE0
1F0007E0
2E000190
3E000000
7D000000
7D000000
BC000000
BC000000
BC000000
BC000000
BC000000
BD000000
BD000000
7E000000
7E000000
3F000000
2F800024
1FD000A0
0BF807D0
07FFFF80
01FFFE00
001AA400
ENDCHAR
STARTCHAR uni0298
ENCODING 664
SWIDTH 736 0
DWIDTH 27 0
BBX 25 26 1 0
BITMAP
00006FFA400000
000BF96BF40000
007F4000BE0000
01F800002F8000
07F000000BE000
0FD0000003F400
1F80000001FC00
3F40000000FD00
7F00000000BE00
7E000000007F00
BE0007E0007F00
BE000FF4003F40
BE000FF4003F40
BE000FF4003F40
BE0006E0003F40
BE000000007F00
7F000000007F00
3F00000000BE00
2F40000000FD00
1F80000001FC00
0BD0000003F400
03F000000BE000
01F800002F8000
007F4000BE0000
000BF96BF40000
00006FFA400000
ENDCHAR
STARTCHAR uni0299
ENCODING 665
SWIDTH 485 0
DWIDTH 17 0
BBX 16 18 1 0
BITMAP
BFFFF900
0BE56FC0
07E007F0
07E003F4
07E003F4
07E003F4
07E007E0
07E05F80
07FFF900
07E56F90
07E007F4
07E001FC
07E001FC
07E000FD
07E001FC
07E002F8
1FE56FE0
FFFFFA40
ENDCHAR
STARTCHAR uni029A
ENCODING 666
SWIDTH 500 0
DWIDTH 18 0
BBX 16 18 1 0
BITMAP
01BFE400
0FE5BF40
3F400BD0
7E0002F4
7E0000F8
7E0000BD
2F00007E
07D4007E
00BFC07E
0BE5407E
2F40007E
7E00007D
BD0000BD
BD0000F8
BE0002F4
3F400BD0
1FF9BF40
01BFE400
ENDCHAR
STARTCHAR uni029B
ENCODING 667
SWIDTH 536 0
DWIDTH 19 0
BBX 22 24 1 0
BITMAP
000000006F80
00000002EBE0
0000000742E0
0000000B0040
0000000A0000
0000000A0000
001AFE4E0000
01FE5AFE0000
07E0007E0000
1FC0001E0000
2F40000A0000
7F0000060000
7E0000000000
BE0000000000
BE0000000000
BE0007FFE000
BE0001BF9000
BF00007E0000
7F00003E0000
3F40003E0000
1FC0003E0000
0BE0007E0000
02FE56F90000
001BFE900000
ENDCHAR
STARTCHAR uni029C
ENCODING 668
SWIDTH 599 0
DWIDTH 22 0
BBX 20 18 1 0
BITMAP
BFFF42FFFD
6FF9017FE5
07E0001FC0
07E0000FC0
07E0000FC0
07E0000FC0
07E0000FC0
07E0000FC0
07FFFFFFC0
07E5555FC0
07E0000FC0
07E0000FC0
07E0000FC0
07E0000FC0
07E0000FC0
07E0000FC0
6FF9016FE5
BFFF42FFFD
ENDCHAR
STARTCHAR uni029D
ENCODING 669
SWIDTH 263 0
DWIDTH 9 0
BBX 13 33 -3 -9
BITMAP
0007D000
000FF000
000FF000
0007D000
00000000
00000000
001AE000
00FFE000
000BE000
0007E000
0007E000
0007E000
0007E000
0007E000
0007E000
0007E000
0007E000
0007E000
0007E000
0007E000
0007E000
0007E000
0007E000
0007E000
0007E000
06FFE000
2E5BF800
7407EF40
B00BD280
B00BC000
741F4000
2FFD0000
01500000
ENDCHAR
STARTCHAR uni029E
ENCODING 670
SWIDTH 542 0
DWIDTH 20 0
BBX 19 26 0 -8
BITMAP
FFFF0BFFF4
6FFD06FF94
03FC007F00
01FE003F00
007F803F00
001FD03F00
000BF43F00
0002FD3F00
0000BF7F00
00002FFF00
00000F7F00
00002D3F00
0000B43F00
0002D03F00
000F403F00
007E003F00
1AFE403F00
2FFFD03F00
0000003F00
0000003F00
0000003F00
0000003F00
0000003F00
0000003F00
0000003FD4
0000003FF8
ENDCHAR
STARTCHAR uni029F
ENCODING 671
SWIDTH 440 0
DWIDTH 16 0
BBX 15 18 0 0
BITMAP
7FFFC000
1BFE4000
03F40000
02F40000
02F40000
02F40000
02F40000
02F40000
02F40000
02F40000
02F40000
02F40000
02F40004
02F4000C
02F4001C
02F4003C
07F956F8
7FFFFFF8
ENDCHAR
STARTCHAR uni02A0
ENCODING 672
SWIDTH 541 0
DWIDTH 19 0
BBX 23 34 1 -8
BITMAP
00000001FFE0
0000000B5BFC
0000002D02FC
0000007C00B8
000000BC0000
000000FC0000
000000FC0000
000000FC0000
001BF9FC0000
01F96FFC0000
07D007FC0000
0F4001FC0000
2F0000FC0000
3E0000FC0000
7D0000FC0000
BD0000FC0000
BD0000FC0000
BD0000FC0000
BD0000FC0000
BE0000FC0000
BF0000FC0000
7F8000FC0000
3FE007FC0000
1FFFFEFC0000
07FFF4FC0000
01BF80FC0000
000000FC0000
000000FC0000
000000FC0000
000000FC0000
000000FC0000
000001FC0000
00005BFE4000
00007FFFD000
ENDCHAR
STARTCHAR uni02A1
ENCODING 673
SWIDTH 393 0
DWIDTH 14 0
BBX 13 26 1 0
BITMAP
06FFE000
2F96FD00
7E007E00
BD002F40
BD001F80
68001F80
00001FC0
00001F80
00001F80
00002F40
00003F00
0000BD00
0002F400
001F9000
02F90000
07E00000
07E00000
07E00000
FFFFF000
57F55000
07E00000
07E00000
07E00000
07F00000
6FFA4000
FFFFC000
ENDCHAR
STARTCHAR uni02A2
ENCODING 674
SWIDTH 393 0
DWIDTH 14 0
BBX 13 26 0 0
BITMAP
01BFF400
07E5BE00
1F401F80
3F000FC0
7E000FC0
BE000B40
BD000000
BE000000
BE000000
7F000000
3F400000
1F800000
07E00000
01BD0000
001BE400
0002F400
0002F400
0002F400
02FFFFC0
0156F940
0002F400
0002F400
0002F400
0003F800
005BFE40
00BFFFC0
ENDCHAR
STARTCHAR uni02A3
ENCODING 675
SWIDTH 830 0
DWIDTH 30 0
BBX 28 27 1 0
BITMAP
00000014000000
000006FC000000
00002FFC000000
000001FC000000
000000FC000000
000000FC000000
000000FC000000
000000FC000000
000000FC000000
001BFAFFFFFFFE
01FA6FFD5556FD
07D002FC0003F8
0F4001FC000BF0
2F0000FC001FD0
3E0000FC003F80
7D0000FC00BF00
BD0000FC01FD00
BD0000FC03F800
BD0000FC0BF000
BD0000FC1FD000
BE0000FC3F8005
7F0000FCBF000A
7F8000FDFD000E
2FE007FFF8001E
1FFFFEFFF0007D
07FFF4FFEAAAFD
01BF80FFFFFFFD
ENDCHAR
STARTCHAR uni02A4
ENCODING 676
SWIDTH 838 0
DWIDTH 30 0
BBX 29 36 1 -9
BITMAP
0000001400000000
000006FC00000000
00002FFC00000000
000001FC00000000
000000FC00000000
000000FC00000000
000000FC00000000
000000FC00000000
000000FC00000000
001BFAFFFFFFFF00
01FA6FFD5556FE00
07D002FC0002FD00
0F4001FC0007F400
2F0000FC000FE000
3E0000FC002FC000
7D0000FC007F4000
BD0000FC00FE0000
BD0000FC02FC0000
BD0000FC07F40000
BD0000FC0FE00000
BE0000FC1FF90000
7F0000FC016FE000
7F8000FC0007F800
2FE007FC0001FD00
1FFFFEFD00007F00
07FFF4FFE0003F40
01BF80F940003F40
0000000000002F40
0000000000003F40
0000000000003F40
0000000100007F00
0000000FC000BD00
0000000FD001F800
0000000BF007E000
00000002FEBE0000
0000000055500000
ENDCHAR
STARTCHAR uni02A5
ENCODING 677
SWIDTH 829 0
DWIDTH 30 0
BBX 29 33 1 -6
BITMAP
0000001400000000
000006FC00000000
00002FFC00000000
000001FC00000000
000000FC00000000
000000FC00000000
000000FC00000000
000000FC00000000
000000FC00000000
001BFAFFFFFFFE00
01FA6FFD5556FD00
07D002FC0003F800
0F4001FC000BF400
2F0000FC001FD000
3E0000FC003F8000
7D0000FC00BF4000
BD0000FC01FD0000
BD0000FC03F80000
BD0000FC0BF40000
BD0000FC1FD00000
BE0000FC3F800000
7F0000FCBF41FD00
7F8000FDFD0B9B40
2FE006FFF82C0340
1FFFFEFFF4740740
07FFF4FFE5E56E00
01BF80FFFFFFA400
0000000003400000
000000000B000000
000000000D000000
0000000028000000
0000000034000000
0000000010000000
ENDCHAR
STARTCHAR uni02A6
ENCODING 678
SWIDTH 614 0
DWIDTH 22 0
BBX 20 23 1 0
BITMAP
0090000000
01D0000000
02D0000000
07D0000000
0FD0000000
2FFFFFFE9C
5BE57F9AFC
0BD07D007C
0BD0BC002C
0BD0BC001C
0BD07E000C
0BD03FD000
0BD01FF900
0BD007FF80
0BD000BFF4
0BD0000BFD
0BD00001FE
0BD000007F
0BE000003F
07F000007E
02F80001FD
00BFA56FE4
001AFFE940
ENDCHAR
STARTCHAR uni02A7
ENCODING 679
SWIDTH 513 0
DWIDTH 18 0
BBX 22 36 1 -9
BITMAP
00000007FE40
0000002E7FC0
000000781FD0
000000B807C0
00D000F40000
01D001F40000
03D001F40000
0BD002F40000
1FD002F40000
7FFFFFF40000
5BE556F40000
0BD002F40000
0BD002F40000
0BD002F40000
0BD002F40000
0BD002F40000
0BD002F40000
0BD002F40000
0BD002F40000
0BD002F40000
0BD002F40000
0BD002F40000
0BD002F40000
0BD012F40000
07F5A2F40000
03FFC2F40000
01BE02F40000
000002F40000
000002F40000
000002F40000
000002F00000
002802F00000
007E02E00000
007F47C00000
002FFF400000
000154000000
ENDCHAR
STARTCHAR uni02A8
ENCODING 680
SWIDTH 687 0
DWIDTH 25 0
BBX 23 23 1 0
BITMAP
009000000000
01D000000000
02D000000000
07D000000000
0FD000000000
3FFFD01BFE40
5BE540BA6FE0
0BD002D00BF4
0BD00B8003F4
0BD00F4001F4
0BD02F000000
0BD02E000000
0BD03E000000
0BD03E000000
0BD03E000000
0BD03F000000
0BD03F407FD0
0BD02F87E5B4
0BD01FEE0038
0BD00FF40038
07E00BF80074
03F9BEFF96D0
01BF901BFE40
ENDCHAR
STARTCHAR uni02A9
ENCODING 681
SWIDTH 866 0
DWIDTH 31 0
BBX 29 36 0 -9
BITMAP
0006FE4000000000
001E6FD000000000
003C0FE000000000
00B807D000000000
00F8004000000000
00F8000000000000
01F8000000000000
01F8000000000000
01F8000000000000
3FFFFFFFE02FE000
16F9555FE1FFFC00
01F80007EB55FE00
01F80007F8007F00
01F80007F0003F40
01F80007E0002F40
01F80007E0002F40
01F80007E0002F40
01F80007E0002F40
01F80007E0002F40
01F80007E0002F40
01F80007E0002F40
01F80007E0002F40
01F80007E0002F40
01F80007E0002F40
02FC0007F0002F40
1BFF906FF9402F40
7FFFF4BFFF402F40
0000000000002F40
0000000000002F40
0000000000002F40
0000000000002F00
0000000002802E00
000000000BE03D00
000000000BF8B800
0000000002FFE000
0000000000550000
ENDCHAR
STARTCHAR uni02AA
ENCODING 682
SWIDTH 595 0
DWIDTH 21 0
BBX 21 27 0 0
BITMAP
005000000000
6FF000000000
6BF000000000
07F000000000
03F000000000
03F000000000
03F000000000
03F000000000
03F000000000
03F001BF9A00
03F00BA6FE00
03F02E003E00
03F03D001E00
03F07D000E00
03F03F400A00
03F03FE00000
03F01FFD0000
03F007FF9000
03F000BFF800
03F0000BFE00
03F00001FF00
03F000003F40
03F000002F40
03F000002F40
01F80000BE00
007F956BF400
0006FFFA4000
ENDCHAR
STARTCHAR uni02AB
ENCODING 683
SWIDTH 580 0
DWIDTH 21 0
BBX 19 26 1 0
BITMAP
16E0000000
FFE0000000
0BE0000000
07E0000000
07E0000000
07E0000000
07E0000000
07E0000000
07FFFFFFF4
07E5555BF0
07E0001FD0
07E0002F80
07E0007F00
07E000FD00
07E002FC00
07E007F400
07E00BE000
07E01FC000
07E03F4000
07E0BE0000
07E1FD0034
07E2F80074
07E7F000B4
07EFD001F4
1FFFEAABF0
FFFFFFFFF0
ENDCHAR
STARTCHAR uni02AC
ENCODING 684
SWIDTH 599 0
DWIDTH 22 0
BBX 22 27 0 0
BITMAP
BFF0FFE07FD0
6FD07F801F40
0BC01F400D00
07D00F801C00
03E00FC02800
02F01BE03400
00F826F06000
00BC31F4D000
007DA0F9C000
003ED0BE8000
002F803F4000
000F402E0000
000500150000
000000000000
BFF0FFE07FD0
6FD07F801F40
0FC01F400D00
07D00F801C00
03E00FC02800
02F01BD03400
01F426E07000
00FC31F4A000
007D60F8C000
003E90BD8000
002FC07F4000
001F803F0000
000F402E0000
ENDCHAR
STARTCHAR uni02AD
ENCODING 685
SWIDTH 479 0
DWIDTH 17 0
BBX 13 24 2 0
BITMAP
7FFFFF80
7FFFFF80
7FFFFF80
78000780
78000780
78000780
78000780
78000780
78000780
78000780
64000680
00000000
00000000
7FFFFF80
7FFFFF80
7FFFFF80
78000780
78000780
78000780
78000780
78000780
78000780
78000780
78000780
ENDCHAR
STARTCHAR uni02AE
ENCODING 686
SWIDTH 595 0
DWIDTH 21 0
BBX 23 26 -1 -8
BITMAP
6FE000006E00
FE7C000BFE00
F81E0005FE00
600F40007E00
000F80007E00
000F80007E00
000FC0007E00
000FC0007E00
000FC0007E00
000FC0007E00
000FC0007E00
000FC0007E00
000FD0007E00
000BD000BE00
000BE001FE00
0007F95BBE00
0002FFF87E00
00007F907E00
000000007E00
000000007E00
000000007E00
000000007E00
000000007E00
000000007E00
000000007F90
000000007FF4
ENDCHAR
STARTCHAR uni02AF
ENCODING 687
SWIDTH 600 0
DWIDTH 22 0
BBX 27 27 -1 -9
BITMAP
6FE000006E0000
FE7C000BFE0000
F81E0005FE0000
600F40007E0000
000F80007E0000
000F80007E0000
000FC0007E0000
000FC0007E0000
000FC0007E0000
000FC0007E0000
000FC0007E0000
000FC0007E0000
000FD0007E0000
000BD000BE0000
000BE001FE0000
0007F95BBE0000
0002FFF87E0000
00007F907E0000
000000007E0000
000000007E0000
000000007E0000
000000003E0000
000000003E00A0
000000001F03F4
000000000F4BF4
0000000002FFE0
00000000005500
ENDCHAR
STARTCHAR uni02B0
ENCODING 688
SWIDTH 488 0
DWIDTH 18 0
BBX 16 20 1 9
BITMAP
6B800000
BF800000
0F800000
0F800000
0F800000
0F800000
0F82FD00
0F9FFF80
0FF41FC0
0F8007D0
0F8007E0
0F8003E0
0F8003E0
0F8003E0
0F8003E0
0F8003E0
0F8003E0
0F8003E0
1FD00BF4
FFF83FFE
ENDCHAR
STARTCHAR uni02B1
ENCODING 689
SWIDTH 488 0
DWIDTH 18 0
BBX 16 21 1 9
BITMAP
001BE800
01E5FE00
03C03F00
07800500
0B800000
0F800000
0F800000
0F82FD00
0F9FFF80
0FF41FC0
0F8007D0
0F8007E0
0F8003E0
0F8003E0
0F8003E0
0F8003E0
0F8003E0
0F8003E0
0F8003E0
1FD00BF4
FFF83FFE
ENDCHAR
STARTCHAR uni02B2
ENCODING 690
SWIDTH 222 0
DWIDTH 8 0
BBX 9 27 -3 2
BITMAP
000B80
001FC0
000B80
000000
000000
000000
00AF80
006F80
000F80
000F80
000F80
000F80
000F80
000F80
000F80
000F80
000F80
000F80
000F80
000F80
000F80
000F80
000F40
7C0F40
7E5E00
2FF800
014000
ENDCHAR
STARTCHAR uni02B3
ENCODING 691
SWIDTH 325 0
DWIDTH 12 0
BBX 11 14 1 9
BITMAP
AF86E0
6F9FF4
0FB5E0
0FD000
0F8000
0F8000
0F8000
0F8000
0F8000
0F8000
0F8000
0F8000
1FD000
FFFD00
ENDCHAR
STARTCHAR uni02B4
ENCODING 692
SWIDTH 325 0
DWIDTH 12 0
BBX 11 14 1 9
BITMAP
03FFF4
007F80
001F40
001F40
001F40
001F40
001F40
001F40
001F40
001F40
003F40
B8AF40
FF5F90
BD1FA0
ENDCHAR
STARTCHAR uni02B5
ENCODING 693
SWIDTH 325 0
DWIDTH 12 0
BBX 14 18 1 5
BITMAP
03FFF400
007F9000
001F4000
001F4000
001F4000
001F4000
001F4000
001F4000
001F4000
001F4000
003F4000
B9AF4000
FF5F4000
BD1F4000
000F4000
000F4040
000787D0
0001FF80
ENDCHAR
STARTCHAR uni02B6
ENCODING 694
SWIDTH 443 0
DWIDTH 16 0
BBX 15 14 1 9
BITMAP
FFFC0BF8
1FD01F90
0F803F00
0F80FD00
0F82F400
0F87D000
0FFF8000
0F85B800
0F803E00
0F802F40
0F802F40
0F802F40
0F81BE00
BFFFE400
ENDCHAR
STARTCHAR uni02B7
ENCODING 695
SWIDTH 653 0
DWIDTH 24 0
BBX 24 14 0 9
BITMAP
FFF4BFF80BFD
2FC01FE001F4
0F8007D001D0
0BD003E002C0
03E003F00380
02F007F80740
01F40DBC0A00
00FC1C7D0D00
00BD283E1C00
003E342F2800
002F701F7400
001FD00FF000
000FC00BD000
000B8003C000
ENDCHAR
STARTCHAR uni02B8
ENCODING 696
SWIDTH 427 0
DWIDTH 15 0
BBX 16 20 0 3
BITMAP
FFF80FFD
2FD001F4
0FC001D0
07D002C0
03F00340
02F40700
00F80A00
00BD0D00
007E1C00
002F2400
001FB000
000BE000
0007D000
0003C000
00074000
000B0000
001E0000
2E7C0000
7FF40000
2F900000
ENDCHAR
STARTCHAR uni02B9
ENCODING 697
SWIDTH 296 0
DWIDTH 11 0
BBX 6 11 2 15
BITMAP
01E0
03F0
07F0
0BE0
0FC0
0F80
1F00
2E00
3C00
7800
7000
ENDCHAR
STARTCHAR uni02BA
ENCODING 698
SWIDTH 456 0
DWIDTH 16 0
BBX 12 11 2 15
BITMAP
01E02E
03F03F
07F07E
0BE0BD
0FC0F8
0F81F4
1F02E0
2E03D0
3C0780
780B40
700A00
ENDCHAR
STARTCHAR uni02BB
ENCODING 699
SWIDTH 245 0
DWIDTH 9 0
BBX 5 9 2 17
BITMAP
0280
0E00
3800
7400
B000
FF40
BFC0
BFC0
2F40
ENDCHAR
STARTCHAR uni02BC
ENCODING 700
SWIDTH 244 0
DWIDTH 9 0
BBX 6 9 1 17
BITMAP
1F80
3FD0
7FE0
2FE0
01E0
01D0
0380
1A00
3400
ENDCHAR
STARTCHAR uni02BD
ENCODING 701
SWIDTH 244 0
DWIDTH 9 0
BBX 5 9 2 17
BITMAP
2F40
BFC0
BFC0
FF40
B000
7400
3800
1E00
0280
ENDCHAR
STARTCHAR uni02BE
ENCODING 702
SWIDTH 203 0
DWIDTH 7 0
BBX 6 8 1 18
BITMAP
FE00
5B80
02D0
02D0
02D0
07C0
FE00
5000
ENDCHAR
STARTCHAR uni02BF
ENCODING 703
SWIDTH 203 0
DWIDTH 7 0
BBX 6 8 1 18
BITMAP
1FD0
B940
F000
F000
F000
B900
2FD0
0140
ENDCHAR
STARTCHAR uni02C0
ENCODING 704
SWIDTH 364 0
DWIDTH 13 0
BBX 11 13 1 13
BITMAP
0BFE40
3F9BD0
7E02F4
7C01F8
1400F8
0000FC
0000F8
0001F4
0007E0
006F80
03F900
03E000
03E000
ENDCHAR
STARTCHAR uni02C1
ENCODING 705
SWIDTH 364 0
DWIDTH 13 0
BBX 11 13 1 13
BITMAP
06FF80
1F97F0
3E02F4
BD00F4
BD0050
BC0000
BD0000
7E0000
2F4000
0BE400
007F00
001F00
002F00
ENDCHAR
STARTCHAR uni02C2
ENCODING 706
SWIDTH 324 0
DWIDTH 12 0
BBX 10 12 1 16
BITMAP
000010
0001D0
001BD0
00BE40
07F400
6F8000
BE0000
2F9000
06F800
007F40
000BD0
000190
ENDCHAR
STARTCHAR uni02C3
ENCODING 707
SWIDTH 324 0
DWIDTH 12 0
BBX 10 12 1 16
BITMAP
400000
B40000
BE0000
1FD000
02FD00
002F80
000BD0
007F40
02F800
2F9000
BD0000
A00000
ENDCHAR
STARTCHAR uni02C4
ENCODING 708
SWIDTH 324 0
DWIDTH 12 0
BBX 12 10 0 18
BITMAP
001400
007C00
00BD00
01FF00
03DB80
0B83D0
0F01E0
2E00B4
7C007C
B4002E
ENDCHAR
STARTCHAR uni02C5
ENCODING 709
SWIDTH 324 0
DWIDTH 12 0
BBX 12 10 0 18
BITMAP
600019
B8003D
3D00B8
1E00F0
0B42E0
07C7C0
02DB40
00FE00
00BD00
003800
ENDCHAR
STARTCHAR circumflex
ENCODING 710
SWIDTH 342 0
DWIDTH 12 0
BBX 10 6 1 19
BITMAP
00A400
02FC00
07EE00
1F4B40
2D02D0
B000B0
ENDCHAR
STARTCHAR caron
ENCODING 711
SWIDTH 342 0
DWIDTH 12 0
BBX 10 6 1 19
BITMAP
500050
7801E0
2E0780
0B9F00
03FD00
01F800
ENDCHAR
STARTCHAR uni02C8
ENCODING 712
SWIDTH 284 0
DWIDTH 10 0
BBX 2 10 4 17
BITMAP
B0
B0
B0
B0
B0
B0
B0
B0
B0
B0
ENDCHAR
STARTCHAR uni02C9
ENCODING 713
SWIDTH 350 0
DWIDTH 13 0
BBX 11 2 1 21
BITMAP
FFFFF8
FFFFF8
ENDCHAR
STARTCHAR uni02CA
ENCODING 714
SWIDTH 222 0
DWIDTH 8 0
BBX 6 6 1 19
BITMAP
0690
0FE0
1F80
2E00
7800
B000
ENDCHAR
STARTCHAR uni02CB
ENCODING 715
SWIDTH 222 0
DWIDTH 8 0
BBX 6 6 1 19
BITMAP
6900
BF00
2F40
0B80
02D0
00E0
ENDCHAR
STARTCHAR uni02CC
ENCODING 716
SWIDTH 284 0
DWIDTH 10 0
BBX 2 10 4 -7
BITMAP
B0
B0
B0
B0
B0
B0
B0
B0
B0
B0
ENDCHAR
STARTCHAR uni02CD
ENCODING 717
SWIDTH 342 0
DWIDTH 12 0
BBX 12 2 0 -6
BITMAP
BFFFFF
BFFFFF
ENDCHAR
STARTCHAR uni02CE
ENCODING 718
SWIDTH 222 0
DWIDTH 8 0
BBX 6 6 1 -7
BITMAP
6900
BF00
2F40
0B80
02D0
00E0
ENDCHAR
STARTCHAR uni02CF
ENCODING 719
SWIDTH 223 0
DWIDTH 8 0
BBX 6 6 1 -7
BITMAP
0690
0FE0
1F80
2E00
7800
B000
ENDCHAR
STARTCHAR uni02D0
ENCODING 720
SWIDTH 341 0
DWIDTH 12 0
BBX 6 17 3 1
BITMAP
BFE0
7FD0
3FC0
2F80
1F40
0F00
0000
0000
0000
0000
0000
0F00
1F40
2F80
3FC0
7FD0
BFE0
ENDCHAR
STARTCHAR uni02D1
ENCODING 721
SWIDTH 341 0
DWIDTH 12 0
BBX 6 6 3 11
BITMAP
BFE0
7FD0
3FC0
2F80
1F40
0F00
ENDCHAR
STARTCHAR uni02D2
ENCODING 722
SWIDTH 341 0
DWIDTH 12 0
BBX 8 11 2 3
BITMAP
7F80
7FF4
05FC
003D
001E
001E
001E
002D
01BC
7FF4
7F80
ENDCHAR
STARTCHAR uni02D3
ENCODING 723
SWIDTH 341 0
DWIDTH 12 0
BBX 8 11 2 3
BITMAP
01BE
0BFE
2F50
7D00
7800
7800
7800
7C00
2F50
0BFE
01BE
ENDCHAR
STARTCHAR uni02D4
ENCODING 724
SWIDTH 341 0
DWIDTH 12 0
BBX 9 7 2 6
BITMAP
02C000
02C000
02C000
02C000
02C000
AAEA40
FFFF40
ENDCHAR
STARTCHAR uni02D5
ENCODING 725
SWIDTH 341 0
DWIDTH 12 0
BBX 9 7 2 6
BITMAP
FFFF40
56D500
02C000
02C000
02C000
02C000
028000
ENDCHAR
STARTCHAR uni02D6
ENCODING 726
SWIDTH 341 0
DWIDTH 12 0
BBX 8 7 2 6
BITMAP
02C0
02C0
02C0
7FFE
16D5
02C0
02C0
ENDCHAR
STARTCHAR uni02D7
ENCODING 727
SWIDTH 341 0
DWIDTH 12 0
BBX 8 2 2 8
BITMAP
7FFE
1555
ENDCHAR
STARTCHAR breve
ENCODING 728
SWIDTH 353 0
DWIDTH 13 0
BBX 11 6 1 20
BITMAP
400014
900024
B00074
7D55F0
2FFFD0
06FE40
ENDCHAR
STARTCHAR dotaccent
ENCODING 729
SWIDTH 194 0
DWIDTH 7 0
BBX 5 4 1 21
BITMAP
2E00
7F40
7F40
2E00
ENDCHAR
STARTCHAR ring
ENCODING 730
SWIDTH 265 0
DWIDTH 10 0
BBX 8 8 1 19
BITMAP
1FE0
7978
B01D
E00D
A01D
787C
2FF4
0140
ENDCHAR
STARTCHAR ogonek
ENCODING 731
SWIDTH 277 0
DWIDTH 10 0
BBX 8 8 1 -8
BITMAP
0280
0E00
2C00
B800
F800
FC06
7FF8
2FE0
ENDCHAR
STARTCHAR tilde
ENCODING 732
SWIDTH 381 0
DWIDTH 14 0
BBX 12 4 1 20
BITMAP
0BE00A
3FFD5D
75BFF8
901BE0
ENDCHAR
STARTCHAR hungarumlaut
ENCODING 733
SWIDTH 350 0
DWIDTH 13 0
BBX 11 6 1 19
BITMAP
0BE3F4
0FD7F0
2F4BC0
3D0F40
782D00
A03800
ENDCHAR
STARTCHAR uni02DE
ENCODING 734
SWIDTH 205 0
DWIDTH 7 0
BBX 9 6 -2 7
BITMAP
014000
0B8040
7B8180
43D680
01FE00
001000
ENDCHAR
STARTCHAR uni02DF
ENCODING 735
SWIDTH 302 0
DWIDTH 11 0
BBX 9 9 1 18
BITMAP
100100
B40780
7D1F00
1FBC00
07F000
07F400
1F7D00
7C1F40
700700
ENDCHAR
STARTCHAR uni02E0
ENCODING 736
SWIDTH 413 0
DWIDTH 15 0
BBX 15 20 0 3
BITMAP
FFF40FFC
2FD002E0
0FC002C0
0BD00380
03E00700
02F40A00
01F81D00
00FC2800
007D3400
003E7000
002FA000
001FC000
000BC000
000FD000
001AF000
0025F400
0030F400
0070B400
0035F000
001F9000
ENDCHAR
STARTCHAR uni02E1
ENCODING 737
SWIDTH 244 0
DWIDTH 9 0
BBX 7 20 1 9
BITMAP
AB80
AF80
0F80
0F80
0F80
0F80
0F80
0F80
0F80
0F80
0F80
0F80
0F80
0F80
0F80
0F80
0F80
0F80
1FD0
FFFC
ENDCHAR
STARTCHAR uni02E2
ENCODING 738
SWIDTH 337 0
DWIDTH 12 0
BBX 10 14 1 9
BITMAP
0BF990
3D1BD0
B402D0
B800D0
BE0090
7FD000
1FFD00
06FF80
006FE0
9007F0
A002F0
B002F0
BD07D0
ABFE40
ENDCHAR
STARTCHAR uni02E3
ENCODING 739
SWIDTH 445 0
DWIDTH 16 0
BBX 16 14 0 9
BITMAP
3FFE1FF8
07F407D0
02F80740
00BD0E00
003E2800
001FB000
000BD000
000BF000
001DF800
00787E00
00E02F40
02C00FC0
1B800BF4
7FF03FFD
ENDCHAR
STARTCHAR uni02E4
ENCODING 740
SWIDTH 364 0
DWIDTH 13 0
BBX 12 20 1 9
BITMAP
01AFE4
0BD0BD
1F007F
3E003F
7D0019
7D0000
7D0000
7E0000
3F0000
1F8000
07E400
00BF80
000BD0
0007D0
0007D0
0007D0
0007D0
000BD0
000FE0
00FFFE
ENDCHAR
STARTCHAR uni02E5
ENCODING 741
SWIDTH 423 0
DWIDTH 15 0
BBX 13 25 1 0
BITMAP
7FFFFF80
15555780
00000380
00000380
00000380
00000380
00000380
00000380
00000380
00000380
00000380
00000380
00000380
00000380
00000380
00000380
00000380
00000380
00000380
00000380
00000380
00000380
00000380
00000380
00000140
ENDCHAR
STARTCHAR uni02E6
ENCODING 742
SWIDTH 414 0
DWIDTH 15 0
BBX 13 26 1 0
BITMAP
00000640
00000740
00000740
00000740
00000740
00000740
00000740
00000740
BFFFFF40
15555B40
00000740
00000740
00000740
00000740
00000740
00000740
00000740
00000740
00000740
00000740
00000740
00000740
00000740
00000740
00000740
00000640
ENDCHAR
STARTCHAR uni02E7
ENCODING 743
SWIDTH 414 0
DWIDTH 15 0
BBX 13 26 1 0
BITMAP
00000100
00000740
00000740
00000740
00000740
00000740
00000740
00000740
00000740
00000740
00000740
00000740
00000740
BFFFFF40
15555B40
00000740
00000740
00000740
00000740
00000740
00000740
00000740
00000740
00000740
00000740
00000640
ENDCHAR
STARTCHAR uni02E8
ENCODING 744
SWIDTH 414 0
DWIDTH 15 0
BBX 13 27 1 -1
BITMAP
00000100
00000740
00000740
00000740
00000740
00000740
00000740
00000740
00000740
00000740
00000740
00000740
00000740
00000740
00000740
00000740
00000740
00000740
BFFFFF40
15555B40
00000740
00000740
00000740
00000740
00000740
00000740
00000100
ENDCHAR
STARTCHAR uni02E9
ENCODING 745
SWIDTH 414 0
DWIDTH 15 0
BBX 13 26 1 0
BITMAP
00000640
00000740
00000740
00000740
00000740
00000740
00000740
00000740
00000740
00000740
00000740
00000740
00000740
00000740
00000740
00000740
00000740
00000740
00000740
00000740
00000740
00000740
00000740
00000740
BFFFFF40
15555500
ENDCHAR
STARTCHAR uni02EC
ENCODING 748
SWIDTH 341 0
DWIDTH 12 0
BBX 11 8 1 -6
BITMAP
F801F4
7D03E0
2F07C0
0F4F40
0BEE00
03FC00
01F800
00B000
ENDCHAR
STARTCHAR uni02ED
ENCODING 749
SWIDTH 380 0
DWIDTH 14 0
BBX 12 6 1 20
BITMAP
BFFFFD
BFFFFD
000000
000000
BFFFFD
BFFFFD
ENDCHAR
STARTCHAR uni02F7
ENCODING 759
SWIDTH 381 0
DWIDTH 14 0
BBX 12 4 1 -6
BITMAP
0BE00A
3FFD5D
75BFF8
901BE0
ENDCHAR
STARTCHAR uni0300
ENCODING 768
SWIDTH 0 0
DWIDTH 0 0
BBX 6 6 -12 19
BITMAP
A800
FE00
3F00
0F80
07C0
01D0
ENDCHAR
STARTCHAR uni0301
ENCODING 769
SWIDTH 0 0
DWIDTH 0 0
BBX 6 6 -10 19
BITMAP
0690
0FD0
2F40
3E00
B800
E000
ENDCHAR
STARTCHAR uni0302
ENCODING 770
SWIDTH 0 0
DWIDTH 0 0
BBX 10 6 -13 19
BITMAP
019000
07F800
0FBD00
2E1F00
780780
E001D0
ENDCHAR
STARTCHAR uni0303
ENCODING 771
SWIDTH 0 0
DWIDTH 0 0
BBX 12 4 -14 20
BITMAP
0BE006
3FFD5D
75BFF8
901BE0
ENDCHAR
STARTCHAR uni0304
ENCODING 772
SWIDTH 0 0
DWIDTH 0 0
BBX 11 2 -14 21
BITMAP
BFFFFC
BFFFFC
ENDCHAR
STARTCHAR uni0305
ENCODING 773
SWIDTH 0 0
DWIDTH 0 0
BBX 15 2 -15 21
BITMAP
7FFFFFFC
7FFFFFFC
ENDCHAR
STARTCHAR uni0306
ENCODING 774
SWIDTH 0 0
DWIDTH 0 0
BBX 11 6 -14 20
BITMAP
500004
600018
740038
3E55F4
1FFFE0
06FE40
ENDCHAR
STARTCHAR uni0307
ENCODING 775
SWIDTH 0 0
DWIDTH 0 0
BBX 5 4 -11 21
BITMAP
2E00
7F80
7F80
2E00
ENDCHAR
STARTCHAR uni0308
ENCODING 776
SWIDTH 0 0
DWIDTH 0 0
BBX 12 4 -14 21
BITMAP
B900B8
FE01FE
FE01FE
7900B8
ENDCHAR
STARTCHAR uni0309
ENCODING 777
SWIDTH 0 0
DWIDTH 0 0
BBX 7 8 -11 19
BITMAP
6FD0
F9F0
E0B4
00B4
00F4
06D0
0E00
0D00
ENDCHAR
STARTCHAR uni030A
ENCODING 778
SWIDTH 0 0
DWIDTH 0 0
BBX 8 8 -12 19
BITMAP
1FE0
7978
F01D
E01D
E01D
B47C
2FE4
0140
ENDCHAR
STARTCHAR uni030B
ENCODING 779
SWIDTH 0 0
DWIDTH 0 0
BBX 11 6 -12 19
BITMAP
0BF2F8
0FD3F4
1F8BD0
2E0F40
3C1E00
B02800
ENDCHAR
STARTCHAR uni030C
ENCODING 780
SWIDTH 0 0
DWIDTH 0 0
BBX 10 6 -13 19
BITMAP
800050
B402C0
3D0B40
1F6E00
0BFC00
02F400
ENDCHAR
STARTCHAR uni030D
ENCODING 781
SWIDTH 0 0
DWIDTH 0 0
BBX 3 8 -10 19
BITMAP
78
78
78
78
78
78
78
78
ENDCHAR
STARTCHAR uni030E
ENCODING 782
SWIDTH 0 0
DWIDTH 0 0
BBX 8 8 -12 19
BITMAP
F02D
F02D
F02D
F02D
F02D
F02D
F02D
F02D
ENDCHAR
STARTCHAR uni030F
ENCODING 783
SWIDTH 0 0
DWIDTH 0 0
BBX 11 6 -16 19
BITMAP
7F2FC0
2F8FD0
0FC7E0
03D1F0
01E078
00702C
ENDCHAR
STARTCHAR uni0310
ENCODING 784
SWIDTH 0 0
DWIDTH 0 0
BBX 11 8 -14 20
BITMAP
00BD00
01FE00
51FE08
70BD28
740038
3E55F0
1FFFD0
02FE40
ENDCHAR
STARTCHAR uni0311
ENCODING 785
SWIDTH 0 0
DWIDTH 0 0
BBX 11 6 -14 19
BITMAP
06FF40
1FFFD0
3E41F0
780074
700028
500004
ENDCHAR
STARTCHAR uni0312
ENCODING 786
SWIDTH 0 0
DWIDTH 0 0
BBX 5 8 -11 19
BITMAP
0780
2D00
7400
B000
BF40
BFC0
7F80
2F40
ENDCHAR
STARTCHAR uni0313
ENCODING 787
SWIDTH 0 0
DWIDTH 0 0
BBX 5 8 -11 19
BITMAP
2E40
7FC0
7FC0
2FC0
02C0
0380
1E00
7800
ENDCHAR
STARTCHAR uni0314
ENCODING 788
SWIDTH 0 0
DWIDTH 0 0
BBX 5 8 -11 19
BITMAP
2F40
7FC0
BFC0
BF40
B400
7800
1D00
0680
ENDCHAR
STARTCHAR uni0315
ENCODING 789
SWIDTH 0 0
DWIDTH 0 0
BBX 4 8 -9 18
BITMAP
7E
7D
BD
BC
B8
B4
A0
40
ENDCHAR
STARTCHAR uni0316
ENCODING 790
SWIDTH 0 0
DWIDTH 0 0
BBX 6 6 -12 -8
BITMAP
A800
FE00
3F00
0F80
07C0
01D0
ENDCHAR
STARTCHAR uni0317
ENCODING 791
SWIDTH 0 0
DWIDTH 0 0
BBX 6 6 -10 -8
BITMAP
06A0
0BE0
1F80
2F00
3C00
B000
ENDCHAR
STARTCHAR uni0318
ENCODING 792
SWIDTH 0 0
DWIDTH 0 0
BBX 6 7 -11 -9
BITMAP
01D0
01D0
01D0
FFD0
55D0
01D0
01D0
ENDCHAR
STARTCHAR uni0319
ENCODING 793
SWIDTH 0 0
DWIDTH 0 0
BBX 6 7 -11 -9
BITMAP
E000
E000
E000
FFD0
E540
E000
E000
ENDCHAR
STARTCHAR uni031A
ENCODING 794
SWIDTH 0 0
DWIDTH 0 0
BBX 9 7 -13 19
BITMAP
7FFF80
155B80
000780
000780
000780
000780
000640
ENDCHAR
STARTCHAR uni031B
ENCODING 795
SWIDTH 0 0
DWIDTH 0 0
BBX 7 7 -7 16
BITMAP
01F4
01F8
00F8
0078
01B0
BFD0
1400
ENDCHAR
STARTCHAR uni031C
ENCODING 796
SWIDTH 0 0
DWIDTH 0 0
BBX 5 8 -11 -10
BITMAP
1F80
B940
E000
E000
E000
B900
2F80
0140
ENDCHAR
STARTCHAR uni031D
ENCODING 797
SWIDTH 0 0
DWIDTH 0 0
BBX 8 7 -12 -8
BITMAP
0100
0340
0340
0340
0380
BFFD
5554
ENDCHAR
STARTCHAR uni031E
ENCODING 798
SWIDTH 0 0
DWIDTH 0 0
BBX 8 6 -12 -8
BITMAP
BFFD
5794
0340
0340
0340
0100
ENDCHAR
STARTCHAR uni031F
ENCODING 799
SWIDTH 0 0
DWIDTH 0 0
BBX 8 7 -12 -9
BITMAP
0340
0340
0340
FFFD
5794
0340
0340
ENDCHAR
STARTCHAR uni0320
ENCODING 800
SWIDTH 0 0
DWIDTH 0 0
BBX 8 2 -12 -7
BITMAP
FFFD
5554
ENDCHAR
STARTCHAR uni0321
ENCODING 801
SWIDTH 0 0
DWIDTH 0 0
BBX 11 10 -16 -9
BITMAP
0001F8
0001F8
0001F4
0001F4
0002F4
0002F0
3D02E0
7F43D0
7FEF40
1BF900
ENDCHAR
STARTCHAR uni0322
ENCODING 802
SWIDTH 0 0
DWIDTH 0 0
BBX 11 10 -9 -9
BITMAP
7E0000
7E0000
7E0000
7E0000
7E0000
3E0000
2E01F4
1F07F8
07EFF4
01BF90
ENDCHAR
STARTCHAR uni0323
ENCODING 803
SWIDTH 0 0
DWIDTH 0 0
BBX 5 4 -11 -7
BITMAP
2E00
7F80
7F80
2E00
ENDCHAR
STARTCHAR uni0324
ENCODING 804
SWIDTH 0 0
DWIDTH 0 0
BBX 12 4 -14 -7
BITMAP
B900B8
FE01FE
FE01FE
7900B8
ENDCHAR
STARTCHAR uni0325
ENCODING 805
SWIDTH 0 0
DWIDTH 0 0
BBX 8 8 -12 -10
BITMAP
1FE0
7978
F01D
E01D
E01D
B47C
2FE4
0140
ENDCHAR
STARTCHAR uni0326
ENCODING 806
SWIDTH 0 0
DWIDTH 0 0
BBX 5 8 -11 -10
BITMAP
2E40
7FC0
7FC0
2FC0
02C0
0380
0B00
7800
ENDCHAR
STARTCHAR uni0327
ENCODING 807
SWIDTH 0 0
DWIDTH 0 0
BBX 8 9 -12 -9
BITMAP
0600
0A00
0BF4
057C
003D
003D
647C
2FE4
0100
ENDCHAR
STARTCHAR uni0328
ENCODING 808
SWIDTH 0 0
DWIDTH 0 0
BBX 8 8 -12 -8
BITMAP
0280
0A00
2C00
7800
B800
BC06
7FFC
1FE0
ENDCHAR
STARTCHAR uni0329
ENCODING 809
SWIDTH 0 0
DWIDTH 0 0
BBX 3 7 -10 -8
BITMAP
78
78
78
78
78
78
78
ENDCHAR
STARTCHAR uni032A
ENCODING 810
SWIDTH 0 0
DWIDTH 0 0
BBX 9 5 -13 -7
BITMAP
BFFFC0
A555C0
A001C0
A001C0
500040
ENDCHAR
STARTCHAR uni032B
ENCODING 811
SWIDTH 0 0
DWIDTH 0 0
BBX 12 6 -14 -7
BITMAP
401004
E0340D
A0341D
B4BD6C
2FDFF4
010140
ENDCHAR
STARTCHAR uni032C
ENCODING 812
SWIDTH 0 0
DWIDTH 0 0
BBX 10 6 -13 -8
BITMAP
800050
B402C0
3D0B40
1F6E00
0BFC00
02F400
ENDCHAR
STARTCHAR uni032D
ENCODING 813
SWIDTH 0 0
DWIDTH 0 0
BBX 10 6 -13 -8
BITMAP
019000
07F800
0FBD00
2E1F00
780780
E001D0
ENDCHAR
STARTCHAR uni032E
ENCODING 814
SWIDTH 0 0
DWIDTH 0 0
BBX 11 6 -14 -8
BITMAP
500004
600018
740038
3E55F4
1FFFE0
06FE40
ENDCHAR
STARTCHAR uni032F
ENCODING 815
SWIDTH 0 0
DWIDTH 0 0
BBX 11 6 -14 -8
BITMAP
06FF40
1FFFE0
3D01B4
740038
600018
500004
ENDCHAR
STARTCHAR uni0330
ENCODING 816
SWIDTH 0 0
DWIDTH 0 0
BBX 12 4 -14 -6
BITMAP
1F900D
7FF96C
A5BFF4
C01B90
ENDCHAR
STARTCHAR uni0331
ENCODING 817
SWIDTH 0 0
DWIDTH 0 0
BBX 11 2 -14 -5
BITMAP
BFFFFC
BFFFFC
ENDCHAR
STARTCHAR uni0332
ENCODING 818
SWIDTH 0 0
DWIDTH 0 0
BBX 19 2 -18 -6
BITMAP
BFFFFFFFFC
1555555554
ENDCHAR
STARTCHAR uni0333
ENCODING 819
SWIDTH 0 0
DWIDTH 0 0
BBX 19 6 -18 -10
BITMAP
BFFFFFFFFC
1555555554
0000000000
0000000000
BFFFFFFFFC
1555555554
ENDCHAR
STARTCHAR uni0334
ENCODING 820
SWIDTH 0 0
DWIDTH 0 0
BBX 13 4 -15 8
BITMAP
07E40280
1FFE4740
396FFE00
7006F800
ENDCHAR
STARTCHAR uni0335
ENCODING 821
SWIDTH 0 0
DWIDTH 0 0
BBX 12 2 -14 8
BITMAP
FFFFFD
555554
ENDCHAR
STARTCHAR uni0336
ENCODING 822
SWIDTH 0 0
DWIDTH 0 0
BBX 19 2 -18 8
BITMAP
BFFFFFFFFC
1555555554
ENDCHAR
STARTCHAR uni0337
ENCODING 823
SWIDTH 0 0
DWIDTH 0 0
BBX 10 7 -13 10
BITMAP
0001D0
000B80
007D00
01E000
0B8000
7D0000
E00000
ENDCHAR
STARTCHAR uni0338
ENCODING 824
SWIDTH 0 0
DWIDTH 0 0
BBX 16 31 -16 -6
BITMAP
0000002D
0000003C
00000078
000000F0
000001E0
000002D0
000003C0
00000B40
00000F00
00001E00
00002C00
00007800
0000B400
0000F000
0002D000
0003C000
00078000
000B4000
001E0000
002D0000
003C0000
00740000
00F00000
01E00000
02D00000
07800000
0B400000
0F000000
1E000000
3C000000
78000000
ENDCHAR
STARTCHAR uni0339
ENCODING 825
SWIDTH 0 0
DWIDTH 0 0
BBX 6 8 -11 -10
BITMAP
7E00
1B80
01D0
00D0
01D0
07C0
7F40
1400
ENDCHAR
STARTCHAR uni033A
ENCODING 826
SWIDTH 0 0
DWIDTH 0 0
BBX 9 6 -13 -7
BITMAP
000040
A001C0
A001C0
A001C0
BFFFC0
555540
ENDCHAR
STARTCHAR uni033B
ENCODING 827
SWIDTH 0 0
DWIDTH 0 0
BBX 7 7 -12 -9
BITMAP
7FFC
756C
702C
702C
702C
7FFC
1554
ENDCHAR
STARTCHAR uni033C
ENCODING 828
SWIDTH 0 0
DWIDTH 0 0
BBX 11 5 -14 -7
BITMAP
6F42F8
BFDFFC
51FD04
003400
001000
ENDCHAR
STARTCHAR uni033D
ENCODING 829
SWIDTH 0 0
DWIDTH 0 0
BBX 7 7 -12 19
BITMAP
B42C
3DB4
0FD0
0BD0
2DF4
742C
1004
ENDCHAR
STARTCHAR uni033E
ENCODING 830
SWIDTH 0 0
DWIDTH 0 0
BBX 4 13 -10 18
BITMAP
01
2D
B4
F0
F0
F8
7C
3D
2E
1E
2D
F4
40
ENDCHAR
STARTCHAR uni033F
ENCODING 831
SWIDTH 0 0
DWIDTH 0 0
BBX 15 6 -16 18
BITMAP
7FFFFFFC
15555554
00000000
00000000
7FFFFFFC
15555554
ENDCHAR
STARTCHAR uni0346
ENCODING 838
SWIDTH 0 0
DWIDTH 0 0
BBX 11 5 -14 19
BITMAP
BFFFFC
B9557C
B8003C
B8003C
640028
ENDCHAR
STARTCHAR uni0347
ENCODING 839
SWIDTH 0 0
DWIDTH 0 0
BBX 12 6 -14 -8
BITMAP
FFFFFD
FFFFFD
000000
000000
FFFFFD
FFFFFD
ENDCHAR
STARTCHAR uni034C
ENCODING 844
SWIDTH 0 0
DWIDTH 0 0
BBX 12 8 -14 20
BITMAP
1FF819
7FFFFC
A06FE4
000000
0BE006
3FFD5D
75BFF8
901BE0
ENDCHAR
STARTCHAR uni034D
ENCODING 845
SWIDTH 0 0
DWIDTH 0 0
BBX 17 8 -17 -10
BITMAP
0080009000
0740002400
1E00001E00
7FFFFFFF80
BFFFFFFF80
1E00001E00
0740002400
0090009000
ENDCHAR
STARTCHAR uni0359
ENCODING 857
SWIDTH 0 0
DWIDTH 0 0
BBX 11 12 -14 -14
BITMAP
007800
007800
787878
7E35FC
1BAB90
00BC00
1BA790
7E35FC
783478
007800
007800
007800
ENDCHAR
STARTCHAR uni035C
ENCODING 860
SWIDTH 0 0
DWIDTH 0 0
BBX 26 6 -13 -9
BITMAP
700000000000D0
380000000002C0
2F400000001F80
0BFA54015AFE00
01BFFFFFFFE400
0016FFFFF94000
ENDCHAR
STARTCHAR uni0360
ENCODING 864
SWIDTH 0 0
DWIDTH 0 0
BBX 18 4 -9 20
BITMAP
1BFE400020
7FFFF955A0
E006FFFFD0
40001AFE40
ENDCHAR
STARTCHAR uni0361
ENCODING 865
SWIDTH 0 0
DWIDTH 0 0
BBX 18 6 -9 20
BITMAP
01BFFFA400
0BFFFFFE00
2F50005F80
78000002D0
A0000000A0
5000000050
ENDCHAR
STARTCHAR uni0362
ENCODING 866
SWIDTH 0 0
DWIDTH 0 0
BBX 28 8 -14 -10
BITMAP
00000000000140
000000000000D0
000000000000B4
7FFFFFFFFFFFFE
7FFFFFFFFFFFFE
000000000000B4
000000000001D0
00000000000140
ENDCHAR
STARTCHAR uni037E
ENCODING 894
SWIDTH 261 0
DWIDTH 9 0
BBX 6 22 2 -5
BITMAP
2F40
7F80
7FC0
2F40
0000
0000
0000
0000
0000
0000
0000
0000
0000
2F40
7FD0
7FD0
2FE0
01D0
02C0
0380
1E00
2400
ENDCHAR
STARTCHAR tonos
ENCODING 900
SWIDTH 165 0
DWIDTH 6 0
BBX 4 6 1 18
BITMAP
BF
BD
BC
B8
B0
E0
ENDCHAR
STARTCHAR dieresistonos
ENCODING 901
SWIDTH 426 0
DWIDTH 15 0
BBX 13 6 1 18
BITMAP
001F8000
7D2F4B80
FE2F1FC0
BE2E1FC0
7D2C0B80
00380000
ENDCHAR
STARTCHAR Alphatonos
ENCODING 902
SWIDTH 718 0
DWIDTH 26 0
BBX 26 24 0 0
BITMAP
000001E0000000
000002F0000000
0BE003F8000000
0BD00BFC000000
0F800FFD000000
0F401EBF000000
0E002C7F400000
1D00783F800000
0000B42FD00000
0000F00FE00000
0001E00BF00000
0003C007F80000
00078003FC0000
000B4002FD0000
001F0001FF0000
002FFFFFFF4000
003D5555BF8000
007800003FC000
00F400001FE000
01E000000FF000
02D000000BF800
07D000000BFD00
6FF500006FFF90
FFFE0000FFFFE0
ENDCHAR
STARTCHAR anoteleia
ENCODING 903
SWIDTH 261 0
DWIDTH 9 0
BBX 5 4 2 13
BITMAP
2F40
7F80
7FC0
2F40
ENDCHAR
STARTCHAR Epsilontonos
ENCODING 904
SWIDTH 745 0
DWIDTH 27 0
BBX 27 24 -1 0
BITMAP
0007FFFFFFFFE0
00006FEAAAAFE0
3F401FD00002E0
3F000FD00000E0
3E000FD00000A0
7C000FD0000060
78000FD0000000
70000FD0001800
00000FD0001800
00000FD0002800
00000FD001B800
00000FFFFFF800
00000FE555B800
00000FD0002800
00000FD0001800
00000FD0001800
00000FD0000000
00000FD0000014
00000FD0000028
00000FD0000074
00000FD00000B4
00000FD00002F4
00006FEAAABFF0
0007FFFFFFFFF0
ENDCHAR
STARTCHAR Etatonos
ENCODING 905
SWIDTH 896 0
DWIDTH 32 0
BBX 32 24 -1 0
BITMAP
0007FFFFC01FFFFF
0005BFFA4006FFE9
3F401FE000007F80
3F000FD000003F80
3E000FD000002F40
7C000FD000002F40
78000FD000002F40
70000FD000002F40
00000FD000002F40
00000FD000002F40
00000FD000003F40
00000FFFFFFFFF40
00000FE555557F40
00000FD000002F40
00000FD000002F40
00000FD000002F40
00000FD000002F40
00000FD000002F40
00000FD000002F40
00000FD000003F40
00000FD000003F80
00001FE000003F80
0005BFF94006FFE5
0007FFFFC01FFFFF
ENDCHAR
STARTCHAR Iotatonos
ENCODING 906
SWIDTH 478 0
DWIDTH 17 0
BBX 17 24 -1 0
BITMAP
0007FFFFC0
0005BFFA40
3F401FE000
3F000FD000
3E000FD000
7C000FD000
78000FD000
70000FD000
00000FD000
00000FD000
00000FD000
00000FD000
00000FD000
00000FD000
00000FD000
00000FD000
00000FD000
00000FD000
00000FD000
00000FD000
00000FE000
00001FE000
0005BFFA40
0007FFFFC0
ENDCHAR
STARTCHAR Omicrontonos
ENCODING 908
SWIDTH 806 0
DWIDTH 29 0
BBX 29 24 -1 0
BITMAP
0000006BFE900000
000007FA5BF90000
3F402F8000BF4000
3F00BE00001FD000
3E02FC00000BF400
7C07F4000003F800
780BF0000001FD00
700FE0000001FE00
001FD0000000FF00
002FD0000000BF00
002FC0000000BF00
002FC0000000BF40
002FC0000000BF40
002FC0000000BF00
002FD0000000BF00
001FD0000000FE00
000FE0000000FD00
000BF0000001FC00
0007F4000002F800
0002FC000007F000
0000BE00000FD000
00002F80007F4000
000007FA5BF80000
0000006BFE400000
ENDCHAR
STARTCHAR Upsilontonos
ENCODING 910
SWIDTH 787 0
DWIDTH 28 0
BBX 30 24 -1 0
BITMAP
000FFFFE001FFFE0
0006FFE50006FE90
BE007FD00000F800
BD002FE00001E000
F8000BF40003C000
F40007F800074000
F00002FD000E0000
D00000FF002D0000
0000007F80780000
0000002FD0F00000
0000000FF1D00000
00000007FB800000
00000002FF400000
00000000FE000000
00000000FD000000
00000000FD000000
00000000FD000000
00000000FD000000
00000000FD000000
00000000FD000000
00000000FE000000
00000001FF000000
0000005BFFE40000
0000007FFFFD0000
ENDCHAR
STARTCHAR Omegatonos
ENCODING 911
SWIDTH 830 0
DWIDTH 30 0
BBX 29 23 -1 0
BITMAP
0000006BFE900000
3F4007F956FD0000
3F002F80002F8000
3E00FE00000BF000
7C02F8000003F800
7807F4000001FD00
700BF0000000FE00
000FE0000000FF00
001FE0000000FF00
001FE0000000BF00
001FE0000000FF00
000FE0000000FF00
000FF0000001FE00
000BF4000001FD00
0003F8000002FC00
0002FC000007F400
0000BE00000BE040
00702F00001F80C0
00740B80003E01C0
003802E000F407C0
003FFFF803FFFF80
002FFFFC03FFFF80
002FFFFC03FFFF40
ENDCHAR
STARTCHAR iotadieresistonos
ENCODING 912
SWIDTH 259 0
DWIDTH 9 0
BBX 13 24 -2 0
BITMAP
002F8000
7D2F5F40
FE2F2FC0
FE2D2FC0
7D3C1F40
00380000
00000000
007E0000
007E0000
007E0000
00BD0000
00BD0000
00BC0000
00BC0000
00BC0000
00B80000
00B80000
00B80000
00B80000
00B80000
00BC0400
007FAD00
003FF800
001FD000
ENDCHAR
STARTCHAR Alpha
ENCODING 913
SWIDTH 718 0
DWIDTH 26 0
BBX 26 24 0 0
BITMAP
000001E0000000
000002F0000000
000003F8000000
00000BFC000000
00000FFD000000
00001EBF000000
00002C7F400000
0000783F800000
0000B42FD00000
0000F00FE00000
0001E00BF00000
0003C007F80000
00078003FC0000
000B4002FD0000
001F0001FF0000
002FFFFFFF4000
003D5555BF8000
007800003FC000
00F400001FE000
01E000000FF000
02D000000BF800
07D000000BFD00
6FF500006FFF90
FFFE0000FFFFE0
ENDCHAR
STARTCHAR Beta
ENCODING 914
SWIDTH 618 0
DWIDTH 22 0
BBX 20 24 1 0
BITMAP
BFFFFFE900
17FE9AFF80
01FC001FE0
01FC0007F4
01FC0003F8
01FC0002F8
01FC0002F8
01FC0003F8
01FC0007F0
01FC000BD0
01FD017E00
01FFFFF400
01FD55BF90
01FC000BF4
01FC0002FC
01FC0001FE
01FC0000FF
01FC0000BF
01FC0000FF
01FC0000FE
01FC0002FD
02FC0007F8
17FE56BFD0
BFFFFFF900
ENDCHAR
STARTCHAR Gamma
ENCODING 915
SWIDTH 569 0
DWIDTH 20 0
BBX 19 23 1 0
BITMAP
7FFFFFFFF8
07FEAAABF8
01FC0000F8
01FC000078
01FC000038
01FC000028
01FC000014
01FC000000
01FC000000
01FC000000
01FC000000
01FC000000
01FC000000
01FC000000
01FC000000
01FC000000
01FC000000
01FC000000
01FC000000
01FC000000
01FD000000
07FF400000
7FFFFC0000
ENDCHAR
STARTCHAR Delta
ENCODING 916
SWIDTH 667 0
DWIDTH 24 0
BBX 22 23 1 0
BITMAP
00000B000000
00001F400000
00002FC00000
00007FD00000
0000BBE00000
0001E7F40000
0002D3F80000
000381FC0000
000B40FE0000
000E00BF0000
002D007F4000
003C002FC000
0074001FD000
00F0000FE000
01E0000BF400
03C00003F800
07800002FD00
0F000001FE00
1E000000FF00
2D0000007F80
7EAAAAAAFFC0
BFFFFFFFFFD0
FFFFFFFFFFE0
ENDCHAR
STARTCHAR Epsilon
ENCODING 917
SWIDTH 626 0
DWIDTH 23 0
BBX 21 24 1 0
BITMAP
BFFFFFFFFD00
07FEAAABFD00
01FC00007D00
01FC00001D00
01FC00000D00
01FC00000900
01FC00000000
01FC00028000
01FC00028000
01FC00038000
01FD005B8000
01FFFFFF8000
01FD555F8000
01FC00038000
01FC00028000
01FC00028000
01FC00000000
01FC00000140
01FC00000340
01FC00000740
01FC00000F00
01FC00006F00
07FEAAABFE00
BFFFFFFFFE00
ENDCHAR
STARTCHAR Zeta
ENCODING 918
SWIDTH 594 0
DWIDTH 21 0
BBX 20 24 1 0
BITMAP
1FFFFFFFFC
2FE9555BF8
2F00000FF0
2C00002FD0
2800007F80
240000FF00
000002FD00
000007F800
00000FF000
00002FD000
00007F8000
0000FF0000
0002FD0000
0007F80000
001FF00000
002FD00000
007F800000
01FF000009
02FD00000D
0BF800001C
1FF000003C
3FD00000B8
BFD5555BF8
FFFFFFFFF4
ENDCHAR
STARTCHAR Eta
ENCODING 919
SWIDTH 777 0
DWIDTH 28 0
BBX 26 24 1 0
BITMAP
BFFFF802FFFFE0
5BFF94016FFE50
02FD000007F800
01FD000007F400
01FC000003F400
01FC000003F400
01FC000003F400
01FC000003F400
01FC000003F400
01FC000003F400
01FD000007F400
01FFFFFFFFF400
01FD555557F400
01FC000003F400
01FC000003F400
01FC000003F400
01FC000003F400
01FC000003F400
01FC000003F400
01FC000003F400
01FD000007F400
02FD000007F400
5BFF94016FFE50
BFFFF802FFFFE0
ENDCHAR
STARTCHAR Theta
ENCODING 920
SWIDTH 738 0
DWIDTH 27 0
BBX 24 23 1 0
BITMAP
00016FFA4000
001BE55BF400
007F4000BE00
01FC00001FC0
07F400000BE0
0BE0000007F4
1FD0000002F8
2FC0000002FC
3FC0800181FD
3F80D00281FE
3F80FFFF81FE
7F80FFFF81FE
3F80FFFF81FE
3FC0D00281FE
3FC0800181FD
2FD0000002FD
1FE0000003FC
0FF0000007F4
07F800000FF0
01FE00002FC0
007F9001FF40
001BFFFFF800
0001AFFE4000
ENDCHAR
STARTCHAR Iota
ENCODING 921
SWIDTH 357 0
DWIDTH 13 0
BBX 11 24 1 0
BITMAP
BFFFF8
5BFF94
02FD00
01FC00
01FC00
01FC00
01FC00
01FC00
01FC00
01FC00
01FC00
01FC00
01FC00
01FC00
01FC00
01FC00
01FC00
01FC00
01FC00
01FC00
01FC00
02FD00
5BFF94
BFFFF8
ENDCHAR
STARTCHAR Kappa
ENCODING 922
SWIDTH 702 0
DWIDTH 25 0
BBX 24 24 1 0
BITMAP
BFFFF81FFFF8
5BFF9407FFA4
02FD0001FD00
01FC0002F400
01FC0007D000
01FC001F0000
01FC00780000
01FC01E00000
01FC07800000
01FC1E000000
01FC78000000
01FEF4000000
01FEFD000000
01FCBF400000
01FC2FE00000
01FC0BF80000
01FC02FE0000
01FC00BF8000
01FC002FE000
01FC000BF800
01FC0002FE00
02FD0001FF80
5BFF9406FFF9
BFFFF81FFFFF
ENDCHAR
STARTCHAR Lambda
ENCODING 923
SWIDTH 710 0
DWIDTH 26 0
BBX 26 23 0 0
BITMAP
000001D0000000
000003F0000000
000007F4000000
00000BF8000000
00000EFD000000
00002DFE000000
0000387F000000
0000743F800000
0000F02FC00000
0001E01FD00000
0002C00BF00000
00038007F40000
000B4003F80000
000F0002FD0000
001E0000FE0000
002C0000BF4000
007800007F8000
00B400003FC000
00F000001FE000
02E000000FF000
07D000000FF800
1FE000001FFE40
FFFE0001FFFFD0
ENDCHAR
STARTCHAR Mu
ENCODING 924
SWIDTH 895 0
DWIDTH 32 0
BBX 30 24 1 0
BITMAP
FFFE00000007FFE0
6FFF0000000FFE50
03FF4000001FF800
02FFC000002FF800
02EFD000003EF400
02DFE00000BAF400
02DBF00000F2F400
02D7F80001E2F400
02D2FC0002D2F400
02D1FD0007C2F400
02D0FE000B42F400
02D0BF400F02F400
02D03F801E02F400
02D02FC03C02F400
02D01FD07802F400
02D00BF0B402F400
02D007F4F002F400
02D003FAD002F400
02D002FFC002F400
02D000FF8002F400
02D000BF4002F800
03E0007E0003F800
6FF9402D006FFE50
FFFF401C00FFFFE0
ENDCHAR
STARTCHAR Nu
ENCODING 925
SWIDTH 742 0
DWIDTH 27 0
BBX 25 24 1 0
BITMAP
FFF80000BFFF80
6FFD00006FFE40
07FF000003F000
02FF800002E000
02FFE00001E000
02DFF40001D000
02D7FC0001D000
02D2FE0001D000
02D0FF8001D000
02D03FD001D000
02D01FF401D000
02D00BFC01D000
02D002FE01D000
02D000FF41D000
02D0007FD1D000
02D0001FF1D000
02D0000BF9D000
02D00002FED000
02D00000FFD000
02D000007FD000
02D000001FD000
03E000000BD000
6FF9400003D000
FFFF400000D000
ENDCHAR
STARTCHAR Xi
ENCODING 926
SWIDTH 648 0
DWIDTH 23 0
BBX 21 23 1 0
BITMAP
2FFFFFFFFF00
2FFFFFFFFF00
2FFFFFFFFF00
2E0000001F00
280000000700
240000000700
000000000000
007000028000
007000028000
007800078000
007FFFFF8000
007FFFFF8000
007FFFFF8000
007400078000
007000028000
000000000000
100000000140
700000000280
740000000380
3D0000000B40
3FFFFFFFFF40
3FFFFFFFFF40
3FFFFFFFFF40
ENDCHAR
STARTCHAR Omicron
ENCODING 927
SWIDTH 738 0
DWIDTH 27 0
BBX 23 24 2 0
BITMAP
0001BFE90000
002FE5AFD000
01FD0006F800
07F40000BF00
0FD000003F80
2FC000001FD0
3F4000000FE0
7F0000000BF0
BF00000007F4
FE00000007F8
FE00000003F8
FE00000003F8
FE00000003F8
FE00000003F8
FE00000007F8
BF00000007F4
BF4000000BF0
7F4000000BE0
2FC000001FD0
0FD000002F80
07F400007E00
01FD0002F800
002FE5AFD000
0001BFE90000
ENDCHAR
STARTCHAR Pi
ENCODING 928
SWIDTH 759 0
DWIDTH 27 0
BBX 25 23 1 0
BITMAP
BFFFFFFFFFFFC0
07FEAAAAAFF500
01FC00000BE000
01FC00000BE000
01FC00000BE000
01FC00000BE000
01FC00000BE000
01FC00000BE000
01FC00000BE000
01FC00000BE000
01FC00000BE000
01FC00000BE000
01FC00000BE000
01FC00000BE000
01FC00000BE000
01FC00000BE000
01FC00000BE000
01FC00000BE000
01FC00000BE000
01FC00000BE000
01FD00000FE000
07FE40002FF400
BFFFF403FFFFC0
ENDCHAR
STARTCHAR Rho
ENCODING 929
SWIDTH 569 0
DWIDTH 20 0
BBX 19 24 1 0
BITMAP
7FFFFFA400
07FEAAFF40
01FC002FD0
01FC000BF0
01FC0007F4
01FC0003F8
01FC0003F8
01FC0003F4
01FC0007F4
01FC000BE0
01FC001FC0
01FD01BF40
01FFFFF400
01FD550000
01FC000000
01FC000000
01FC000000
01FC000000
01FC000000
01FC000000
01FD000000
02FD000000
5BFF940000
7FFFF80000
ENDCHAR
ENDFONT
